{
.appVersion = "3151";
.formatVersion = 3;
DisplayStrings = (
"OLUWAXEUN
CHISAOKWU
DEVLIN
AMEJI
",
".,:;!?\"“”
1234567890

OOOOOOO
444444444
99999999
HHHHHHH",
"1",
"ABCDEFGHIJKLMNOPQRST
UVWXYZ
/_bones.short/_bones.long/_kebab.short/_kebab.long/_ladder.short/_ladder.caps/_Bristles.large/_Bristles.small/_chevron 
abcdefghijklmnopqrstuvwxyz
1234567890 .,:;!?\"“”

HAMBURGEFONTSIV
hamburgefontsiv
adhesion
",
H,
w,
x,
y,
z,
"ÓÔÖÒŐŌØÕŒ",
"̈",
"Ä",
A,
h,
p,
"1",
p,
K,
q,
BLACKk,
"/_ladder.caps"
);
axes = (
{
name = Morph;
tag = morf;
}
);
date = "2023-10-07 20:47:59 +0000";
familyName = "Nsibidi Libre";
fontMaster = (
{
axesValues = (
0
);
iconName = Condensed;
id = m01;
metricValues = (
{
over = 16;
pos = 726;
},
{
over = 16;
pos = 700;
},
{
over = 16;
pos = 500;
},
{
over = -16;
},
{
over = -16;
pos = -300;
}
);
name = "0";
userData = {
GSCornerRadius = 26;
GSRoughenHorizontal = 8;
GSRoughenSegmentLength = 8;
GSRoughenVertical = 8;
};
},
{
axesValues = (
10
);
iconName = SemiBold;
id = m002;
metricValues = (
{
over = 16;
pos = 726;
},
{
over = 16;
pos = 700;
},
{
over = 16;
pos = 500;
},
{
over = -16;
},
{
over = -16;
pos = -300;
}
);
name = "1";
userData = {
GSCornerRadius = 26;
GSRoughenHorizontal = 8;
GSRoughenSegmentLength = 8;
GSRoughenVertical = 8;
};
visible = 1;
},
{
axesValues = (
20
);
iconName = Bold_Extended;
id = m003;
metricValues = (
{
over = 16;
pos = 726;
},
{
over = 16;
pos = 700;
},
{
over = 16;
pos = 500;
},
{
over = -16;
},
{
over = -16;
pos = -300;
}
);
name = "2";
userData = {
GSCornerRadius = 8;
GSRoughenHorizontal = 8;
GSRoughenSegmentLength = 8;
GSRoughenVertical = 8;
};
}
);
glyphs = (
{
color = 5;
glyphname = A;
lastChange = "2024-01-05 22:00:07 +0000";
layers = (
{
layerId = m01;
shapes = (
{
closed = 1;
nodes = (
(548,0,o),
(565,9,o),
(565,27,cs),
(565,31,o),
(564,35,o),
(563,38,cs),
(338,657,ls),
(337,660,o),
(335,662,o),
(333,662,cs),
(329,662,o),
(324,656,o),
(317,656,cs),
(298,656,ls),
(291,656,o),
(286,661,o),
(281,661,cs),
(279,661,o),
(277,660,o),
(276,656,cs),
(50,34,ls),
(48,28,o),
(48,27,o),
(48,24,cs),
(48,11,o),
(58,0,o),
(79,0,cs),
(92,0,o),
(98,5,o),
(102,17,cs),
(292,564,ls),
(293,567,o),
(306,568,o),
(308,568,cs),
(311,568,o),
(323,567,o),
(324,564,cs),
(512,17,ls),
(517,4,o),
(527,0,o),
(536,0,cs)
);
},
{
closed = 1;
nodes = (
(532,249,ls),
(546,249,o),
(557,260,o),
(557,274,cs),
(557,288,o),
(546,299,o),
(532,299,cs),
(83,299,ls),
(69,299,o),
(58,288,o),
(58,274,cs),
(58,260,o),
(69,249,o),
(83,249,cs)
);
},
{
pos = (-53,50);
ref = _chevron;
},
{
pos = (375,50);
ref = _chevron;
},
{
angle = -90;
pos = (-32,767);
ref = _bones.long;
},
{
pos = (161,700);
ref = _chevron;
scale = (1,-1);
}
);
width = 614;
},
{
background = {
shapes = (
{
pos = (-53,0);
ref = _chevron;
},
{
pos = (375,0);
ref = _chevron;
},
{
angle = -90;
pos = (-32,999);
ref = _bones.long;
}
);
};
layerId = m002;
shapes = (
{
closed = 1;
nodes = (
(548,0,o),
(565,9,o),
(565,27,cs),
(565,31,o),
(564,35,o),
(563,38,cs),
(338,657,ls),
(337,660,o),
(335,662,o),
(333,662,cs),
(329,662,o),
(324,656,o),
(317,656,cs),
(298,656,ls),
(291,656,o),
(286,661,o),
(281,661,cs),
(279,661,o),
(277,660,o),
(276,656,cs),
(50,34,ls),
(48,28,o),
(48,27,o),
(48,24,cs),
(48,11,o),
(58,0,o),
(79,0,cs),
(92,0,o),
(98,5,o),
(102,17,cs),
(292,564,ls),
(293,567,o),
(306,568,o),
(308,568,cs),
(311,568,o),
(323,567,o),
(324,564,cs),
(512,17,ls),
(517,4,o),
(527,0,o),
(536,0,cs)
);
},
{
closed = 1;
nodes = (
(532,249,ls),
(546,249,o),
(557,260,o),
(557,274,cs),
(557,288,o),
(546,299,o),
(532,299,cs),
(83,299,ls),
(69,299,o),
(58,288,o),
(58,274,cs),
(58,260,o),
(69,249,o),
(83,249,cs)
);
},
{
pos = (-53,0);
ref = _chevron;
},
{
pos = (375,0);
ref = _chevron;
},
{
angle = -90;
pos = (-39,836);
ref = _bones.long;
scale = (1.0174,1.0174);
},
{
pos = (161,700);
ref = _chevron;
scale = (1,-1);
}
);
width = 614;
},
{
layerId = m003;
shapes = (
{
closed = 1;
nodes = (
(534,38,o),
(552,46,o),
(552,65,cs),
(552,69,o),
(551,73,o),
(550,76,cs),
(338,657,ls),
(337,660,o),
(335,662,o),
(333,662,cs),
(329,662,o),
(324,656,o),
(317,656,cs),
(298,656,ls),
(291,656,o),
(286,661,o),
(281,661,cs),
(279,661,o),
(277,660,o),
(276,656,cs),
(65,75,ls),
(63,69,o),
(63,68,o),
(63,65,cs),
(63,52,o),
(73,41,o),
(94,41,cs),
(107,41,o),
(113,46,o),
(117,58,cs),
(292,564,ls),
(293,567,o),
(306,568,o),
(308,568,cs),
(311,568,o),
(323,567,o),
(324,564,cs),
(499,55,ls),
(504,42,o),
(514,38,o),
(523,38,cs)
);
},
{
closed = 1;
nodes = (
(532,249,ls),
(546,249,o),
(557,260,o),
(557,274,cs),
(557,288,o),
(546,299,o),
(532,299,cs),
(83,299,ls),
(69,299,o),
(58,288,o),
(58,274,cs),
(58,260,o),
(69,249,o),
(83,249,cs)
);
},
{
pos = (-53,0);
ref = _chevron;
},
{
pos = (375,0);
ref = _chevron;
},
{
angle = -90;
pos = (-33,769);
ref = _bones.long;
},
{
pos = (161,700);
ref = _chevron;
scale = (1,-1);
}
);
width = 614;
}
);
unicode = 65;
},
{
color = 5;
glyphname = B;
lastChange = "2024-01-05 22:04:36 +0000";
layers = (
{
background = {
shapes = (
{
angle = -90;
pos = (-53,699);
ref = _bones.short;
},
{
angle = -90;
pos = (50,515);
ref = _chevron;
}
);
};
layerId = m01;
shapes = (
{
closed = 1;
nodes = (
(425,0,ls),
(527,0,o),
(609,73,o),
(609,208,cs),
(609,295,o),
(556,367,o),
(488,382,c),
(524,410,o),
(559,447,o),
(559,526,cs),
(559,626,o),
(477,700,o),
(375,700,cs),
(158,700,ls),
(140,700,o),
(130,690,o),
(130,672,cs),
(130,393,l),
(75,393,ls),
(61,393,o),
(50,382,o),
(50,368,cs),
(50,355,o),
(61,344,o),
(74,344,cs),
(130,344,l),
(130,28,ls),
(130,10,o),
(140,0,o),
(158,0,cs)
);
},
{
closed = 1;
nodes = (
(185,344,l),
(414,344,ls),
(491,344,o),
(554,283,o),
(554,209,cs),
(554,91,o),
(466,50,o),
(414,50,cs),
(185,50,l)
);
},
{
closed = 1;
nodes = (
(185,650,l),
(380,650,ls),
(449,650,o),
(505,595,o),
(505,528,cs),
(505,459,o),
(449,393,o),
(380,393,cs),
(185,393,l)
);
},
{
angle = -90;
pos = (135,515);
ref = _chevron;
},
{
angle = -90;
pos = (-53,699);
ref = _bones.short;
}
);
width = 669;
},
{
background = {
shapes = (
{
angle = -90;
pos = (-53,699);
ref = _bones.short;
},
{
angle = -90;
pos = (50,515);
ref = _chevron;
}
);
};
layerId = m002;
shapes = (
{
closed = 1;
nodes = (
(425,0,ls),
(527,0,o),
(609,73,o),
(609,208,cs),
(609,295,o),
(556,367,o),
(488,382,c),
(524,410,o),
(559,447,o),
(559,526,cs),
(559,626,o),
(477,700,o),
(375,700,cs),
(158,700,ls),
(140,700,o),
(130,690,o),
(130,672,cs),
(130,393,l),
(75,393,ls),
(61,393,o),
(50,382,o),
(50,368,cs),
(50,355,o),
(61,344,o),
(74,344,cs),
(130,344,l),
(130,28,ls),
(130,10,o),
(140,0,o),
(158,0,cs)
);
},
{
closed = 1;
nodes = (
(185,344,l),
(414,344,ls),
(491,344,o),
(554,283,o),
(554,209,cs),
(554,91,o),
(466,50,o),
(414,50,cs),
(185,50,l)
);
},
{
closed = 1;
nodes = (
(185,650,l),
(380,650,ls),
(449,650,o),
(505,595,o),
(505,528,cs),
(505,459,o),
(449,393,o),
(380,393,cs),
(185,393,l)
);
},
{
angle = -90;
pos = (50,515);
ref = _chevron;
},
{
angle = -90;
pos = (-53,699);
ref = _bones.short;
}
);
width = 669;
},
{
background = {
shapes = (
{
angle = -90;
pos = (50,515);
ref = _chevron;
},
{
angle = -90;
pos = (-53,699);
ref = _bones.short;
}
);
};
guides = (
{
pos = (505,368);
showMeasurement = 1;
}
);
layerId = m003;
shapes = (
{
closed = 1;
nodes = (
(425,0,ls),
(527,0,o),
(609,73,o),
(609,208,cs),
(609,295,o),
(556,367,o),
(488,382,c),
(524,410,o),
(559,447,o),
(559,526,cs),
(559,626,o),
(477,700,o),
(375,700,cs),
(158,700,ls),
(140,700,o),
(130,690,o),
(130,672,cs),
(130,393,l),
(116,393,ls),
(102,393,o),
(91,382,o),
(91,368,cs),
(91,355,o),
(102,344,o),
(115,344,cs),
(130,344,l),
(130,28,ls),
(130,10,o),
(140,0,o),
(158,0,cs)
);
},
{
closed = 1;
nodes = (
(185,344,l),
(414,344,ls),
(491,344,o),
(554,283,o),
(554,209,cs),
(554,91,o),
(466,50,o),
(414,50,cs),
(185,50,l)
);
},
{
closed = 1;
nodes = (
(185,650,l),
(380,650,ls),
(449,650,o),
(505,595,o),
(505,528,cs),
(505,459,o),
(449,393,o),
(380,393,cs),
(185,393,l)
);
},
{
angle = -90;
pos = (50,515);
ref = _chevron;
},
{
angle = -90;
pos = (-53,699);
ref = _bones.short;
}
);
width = 669;
}
);
metricLeft = H;
unicode = 66;
},
{
color = 5;
glyphname = C;
lastChange = "2024-01-05 16:13:10 +0000";
layers = (
{
layerId = m01;
shapes = (
{
closed = 1;
nodes = (
(475,-10,o),
(567,28,o),
(633,94,cs),
(640,101,o),
(644,109,o),
(644,116,cs),
(644,124,o),
(641,131,o),
(635,135,cs),
(630,139,o),
(624,141,o),
(617,141,cs),
(609,141,o),
(601,138,o),
(594,131,cs),
(537,74,o),
(459,40,o),
(379,40,cs),
(233,40,o),
(113,197,o),
(113,351,cs),
(113,547,o),
(241,660,o),
(379,660,cs),
(451,660,o),
(526,637,o),
(583,589,cs),
(590,583,o),
(597,581,o),
(605,581,cs),
(611,581,o),
(617,584,o),
(622,588,cs),
(628,593,o),
(631,600,o),
(631,608,cs),
(631,616,o),
(627,625,o),
(618,632,cs),
(551,685,o),
(465,710,o),
(379,710,cs),
(211,710,o),
(58,585,o),
(58,351,cs),
(58,165,o),
(200,-10,o),
(379,-10,cs)
);
},
{
ref = _ladder.caps;
},
{
closed = 1;
nodes = (
(612,35,o),
(613,35,o),
(614,35,cs),
(625,37,o),
(633,45,o),
(635,55,cs),
(652,149,ls),
(652,151,o),
(653,152,o),
(653,154,cs),
(653,166,o),
(644,176,o),
(634,178,cs),
(632,178,o),
(630,179,o),
(629,179,cs),
(616,179,o),
(605,170,o),
(603,159,cs),
(587,66,ls),
(587,64,o),
(586,62,o),
(586,61,cs),
(586,47,o),
(598,35,o),
(611,35,cs)
);
},
{
closed = 1;
nodes = (
(627,535,o),
(639,546,o),
(639,559,cs),
(639,561,o),
(639,562,o),
(622,658,cs),
(620,670,o),
(609,679,o),
(597,679,cs),
(584,679,o),
(573,668,o),
(573,655,cs),
(573,654,o),
(573,651,o),
(590,556,cs),
(592,545,o),
(602,535,o),
(615,535,cs)
);
}
);
width = 711;
},
{
layerId = m002;
shapes = (
{
closed = 1;
nodes = (
(475,-10,o),
(567,28,o),
(633,94,cs),
(640,101,o),
(644,109,o),
(644,116,cs),
(644,124,o),
(641,131,o),
(635,135,cs),
(630,139,o),
(624,141,o),
(617,141,cs),
(609,141,o),
(601,138,o),
(594,131,cs),
(537,74,o),
(459,40,o),
(379,40,cs),
(233,40,o),
(113,197,o),
(113,351,cs),
(113,547,o),
(241,660,o),
(379,660,cs),
(451,660,o),
(526,637,o),
(583,589,cs),
(590,583,o),
(597,581,o),
(605,581,cs),
(611,581,o),
(617,584,o),
(622,588,cs),
(628,593,o),
(631,600,o),
(631,608,cs),
(631,616,o),
(627,625,o),
(618,632,cs),
(551,685,o),
(465,710,o),
(379,710,cs),
(211,710,o),
(58,585,o),
(58,351,cs),
(58,165,o),
(200,-10,o),
(379,-10,cs)
);
},
{
ref = _ladder.caps;
},
{
closed = 1;
nodes = (
(612,35,o),
(613,35,o),
(614,35,cs),
(625,37,o),
(633,45,o),
(635,55,cs),
(652,149,ls),
(652,151,o),
(653,152,o),
(653,154,cs),
(653,166,o),
(644,176,o),
(634,178,cs),
(632,178,o),
(630,179,o),
(629,179,cs),
(616,179,o),
(605,170,o),
(603,159,cs),
(587,66,ls),
(587,64,o),
(586,62,o),
(586,61,cs),
(586,47,o),
(598,35,o),
(611,35,cs)
);
},
{
closed = 1;
nodes = (
(627,535,o),
(639,546,o),
(639,559,cs),
(639,561,o),
(639,562,o),
(622,658,cs),
(620,670,o),
(609,679,o),
(597,679,cs),
(584,679,o),
(573,668,o),
(573,655,cs),
(573,654,o),
(573,651,o),
(590,556,cs),
(592,545,o),
(602,535,o),
(615,535,cs)
);
}
);
width = 711;
},
{
guides = (
{
pos = (505,351);
showMeasurement = 1;
}
);
layerId = m003;
shapes = (
{
closed = 1;
nodes = (
(475,-10,o),
(567,28,o),
(633,94,cs),
(640,101,o),
(644,109,o),
(644,116,cs),
(644,124,o),
(641,131,o),
(635,135,cs),
(630,139,o),
(624,141,o),
(617,141,cs),
(609,141,o),
(601,138,o),
(594,131,cs),
(537,74,o),
(459,40,o),
(379,40,cs),
(233,40,o),
(113,197,o),
(113,351,cs),
(113,547,o),
(241,660,o),
(379,660,cs),
(451,660,o),
(526,637,o),
(583,589,cs),
(590,583,o),
(597,581,o),
(605,581,cs),
(611,581,o),
(617,584,o),
(622,588,cs),
(628,593,o),
(631,600,o),
(631,608,cs),
(631,616,o),
(627,625,o),
(618,632,cs),
(551,685,o),
(465,710,o),
(379,710,cs),
(211,710,o),
(58,585,o),
(58,351,cs),
(58,165,o),
(200,-10,o),
(379,-10,cs)
);
},
{
ref = _ladder.caps;
},
{
closed = 1;
nodes = (
(612,35,o),
(613,35,o),
(614,35,cs),
(625,37,o),
(633,45,o),
(635,55,cs),
(652,149,ls),
(652,151,o),
(653,152,o),
(653,154,cs),
(653,166,o),
(644,176,o),
(634,178,cs),
(632,178,o),
(630,179,o),
(629,179,cs),
(616,179,o),
(605,170,o),
(603,159,cs),
(587,66,ls),
(587,64,o),
(586,62,o),
(586,61,cs),
(586,47,o),
(598,35,o),
(611,35,cs)
);
},
{
closed = 1;
nodes = (
(627,535,o),
(639,546,o),
(639,559,cs),
(639,561,o),
(639,562,o),
(622,658,cs),
(620,670,o),
(609,679,o),
(597,679,cs),
(584,679,o),
(573,668,o),
(573,655,cs),
(573,654,o),
(573,651,o),
(590,556,cs),
(592,545,o),
(602,535,o),
(615,535,cs)
);
}
);
width = 711;
}
);
metricLeft = O;
metricRight = O;
unicode = 67;
},
{
color = 5;
glyphname = D;
lastChange = "2023-12-24 22:06:57 +0000";
layers = (
{
layerId = m01;
shapes = (
{
closed = 1;
nodes = (
(250,0,ls),
(515,0,o),
(657,115,o),
(657,351,cs),
(657,605,o),
(455,700,o),
(250,700,cs),
(75,700,ls),
(61,700,o),
(50,689,o),
(50,675,cs),
(50,661,o),
(62,650,o),
(76,650,cs),
(250,650,ls),
(427,650,o),
(602,558,o),
(602,351,cs),
(602,154,o),
(487,50,o),
(250,50,cs),
(75,50,ls),
(61,50,o),
(50,39,o),
(50,25,cs),
(50,11,o),
(61,0,o),
(75,0,cs)
);
},
{
closed = 1;
nodes = (
(165,0,o),
(175,12,o),
(175,28,cs),
(175,676,ls),
(175,692,o),
(165,700,o),
(147,700,cs),
(129,700,o),
(120,691,o),
(120,674,cs),
(120,26,ls),
(120,10,o),
(129,0,o),
(147,0,cs)
);
},
{
pos = (-54,0);
ref = _ladder.caps;
}
);
width = 715;
},
{
layerId = m002;
shapes = (
{
closed = 1;
nodes = (
(250,0,ls),
(515,0,o),
(657,115,o),
(657,351,cs),
(657,605,o),
(455,700,o),
(250,700,cs),
(75,700,ls),
(61,700,o),
(50,689,o),
(50,675,cs),
(50,661,o),
(62,650,o),
(76,650,cs),
(250,650,ls),
(427,650,o),
(602,558,o),
(602,351,cs),
(602,154,o),
(487,50,o),
(250,50,cs),
(75,50,ls),
(61,50,o),
(50,39,o),
(50,25,cs),
(50,11,o),
(61,0,o),
(75,0,cs)
);
},
{
closed = 1;
nodes = (
(165,0,o),
(175,12,o),
(175,28,cs),
(175,676,ls),
(175,692,o),
(165,700,o),
(147,700,cs),
(129,700,o),
(120,691,o),
(120,674,cs),
(120,26,ls),
(120,10,o),
(129,0,o),
(147,0,cs)
);
},
{
pos = (-54,0);
ref = _ladder.caps;
}
);
width = 715;
},
{
layerId = m003;
shapes = (
{
closed = 1;
nodes = (
(250,0,ls),
(515,0,o),
(657,115,o),
(657,351,cs),
(657,605,o),
(455,700,o),
(250,700,cs),
(75,700,ls),
(61,700,o),
(50,689,o),
(50,675,cs),
(50,661,o),
(62,650,o),
(76,650,cs),
(250,650,ls),
(427,650,o),
(602,558,o),
(602,351,cs),
(602,154,o),
(487,50,o),
(250,50,cs),
(75,50,ls),
(61,50,o),
(50,39,o),
(50,25,cs),
(50,11,o),
(61,0,o),
(75,0,cs)
);
},
{
closed = 1;
nodes = (
(165,0,o),
(175,12,o),
(175,28,cs),
(175,676,ls),
(175,692,o),
(165,700,o),
(147,700,cs),
(129,700,o),
(120,691,o),
(120,674,cs),
(120,26,ls),
(120,10,o),
(129,0,o),
(147,0,cs)
);
},
{
pos = (-54,0);
ref = _ladder.caps;
}
);
width = 715;
}
);
metricLeft = H;
metricRight = O;
unicode = 68;
},
{
color = 5;
glyphname = E;
lastChange = "2024-01-04 21:53:35 +0000";
layers = (
{
layerId = m01;
shapes = (
{
closed = 1;
nodes = (
(161,0,o),
(170,10,o),
(170,26,cs),
(170,674,ls),
(170,690,o),
(161,700,o),
(145,700,cs),
(129,700,o),
(120,691,o),
(120,674,cs),
(120,36,ls),
(120,10,o),
(129,0,o),
(145,0,cs)
);
},
{
closed = 1;
nodes = (
(551,0,ls),
(567,0,o),
(577,9,o),
(577,25,cs),
(577,41,o),
(567,50,o),
(551,50,cs),
(76,50,ls),
(60,50,o),
(50,41,o),
(50,25,cs),
(50,9,o),
(59,0,o),
(76,0,cs)
);
},
{
closed = 1;
nodes = (
(501,331,ls),
(517,331,o),
(527,340,o),
(527,356,cs),
(527,372,o),
(517,381,o),
(501,381,cs),
(156,381,ls),
(140,381,o),
(130,372,o),
(130,356,cs),
(130,340,o),
(139,331,o),
(156,331,cs)
);
},
{
closed = 1;
nodes = (
(551,650,ls),
(567,650,o),
(580,659,o),
(580,675,cs),
(580,691,o),
(567,700,o),
(551,700,cs),
(76,700,ls),
(60,700,o),
(50,691,o),
(50,675,cs),
(50,659,o),
(59,650,o),
(76,650,cs)
);
},
{
angle = 90;
pos = (487,209);
ref = _chevron;
},
{
pos = (-69,-91);
ref = _Bristles.small;
},
{
pos = (-69,-439);
ref = _Bristles.small;
}
);
width = 605;
},
{
layerId = m002;
shapes = (
{
closed = 1;
nodes = (
(161,0,o),
(170,10,o),
(170,26,cs),
(170,674,ls),
(170,690,o),
(161,700,o),
(145,700,cs),
(129,700,o),
(120,691,o),
(120,674,cs),
(120,36,ls),
(120,10,o),
(129,0,o),
(145,0,cs)
);
},
{
closed = 1;
nodes = (
(551,0,ls),
(567,0,o),
(577,9,o),
(577,25,cs),
(577,41,o),
(567,50,o),
(551,50,cs),
(76,50,ls),
(60,50,o),
(50,41,o),
(50,25,cs),
(50,9,o),
(59,0,o),
(76,0,cs)
);
},
{
closed = 1;
nodes = (
(491,331,ls),
(507,331,o),
(517,340,o),
(517,356,cs),
(517,372,o),
(507,381,o),
(491,381,cs),
(156,381,ls),
(140,381,o),
(130,372,o),
(130,356,cs),
(130,340,o),
(139,331,o),
(156,331,cs)
);
},
{
closed = 1;
nodes = (
(551,650,ls),
(567,650,o),
(580,659,o),
(580,675,cs),
(580,691,o),
(567,700,o),
(551,700,cs),
(76,700,ls),
(60,700,o),
(50,691,o),
(50,675,cs),
(50,659,o),
(59,650,o),
(76,650,cs)
);
},
{
angle = 90;
pos = (523,209);
ref = _chevron;
},
{
pos = (-69,-91);
ref = _Bristles.small;
},
{
pos = (-69,-439);
ref = _Bristles.small;
}
);
width = 605;
},
{
guides = (
{
pos = (505,356);
showMeasurement = 1;
}
);
layerId = m003;
shapes = (
{
closed = 1;
nodes = (
(161,0,o),
(170,10,o),
(170,26,cs),
(170,674,ls),
(170,690,o),
(161,700,o),
(145,700,cs),
(129,700,o),
(120,691,o),
(120,674,cs),
(120,36,ls),
(120,10,o),
(129,0,o),
(145,0,cs)
);
},
{
closed = 1;
nodes = (
(551,0,ls),
(567,0,o),
(577,9,o),
(577,25,cs),
(577,41,o),
(567,50,o),
(551,50,cs),
(76,50,ls),
(60,50,o),
(50,41,o),
(50,25,cs),
(50,9,o),
(59,0,o),
(76,0,cs)
);
},
{
closed = 1;
nodes = (
(460,331,ls),
(476,331,o),
(486,340,o),
(486,356,cs),
(486,372,o),
(476,381,o),
(460,381,cs),
(156,381,ls),
(140,381,o),
(130,372,o),
(130,356,cs),
(130,340,o),
(139,331,o),
(156,331,cs)
);
},
{
closed = 1;
nodes = (
(551,650,ls),
(567,650,o),
(580,659,o),
(580,675,cs),
(580,691,o),
(567,700,o),
(551,700,cs),
(76,700,ls),
(60,700,o),
(50,691,o),
(50,675,cs),
(50,659,o),
(59,650,o),
(76,650,cs)
);
},
{
angle = 90;
pos = (523,209);
ref = _chevron;
},
{
pos = (-69,-91);
ref = _Bristles.small;
},
{
pos = (-69,-439);
ref = _Bristles.small;
}
);
width = 605;
}
);
metricLeft = H;
metricRight = "=H/2";
unicode = 69;
},
{
color = 5;
glyphname = F;
lastChange = "2024-01-05 22:11:14 +0000";
layers = (
{
layerId = m01;
shapes = (
{
closed = 1;
nodes = (
(165,0,o),
(175,12,o),
(175,28,c),
(175,676,l),
(175,692,o),
(165,700,o),
(147,700,c),
(129,700,o),
(120,691,o),
(120,674,c),
(120,455,o),
(120,245,o),
(120,26,c),
(120,10,o),
(129,0,o),
(147,0,c)
);
},
{
closed = 1;
nodes = (
(434,335,ls),
(460,335,o),
(470,344,o),
(470,360,cs),
(470,376,o),
(460,385,o),
(444,385,cs),
(96,385,ls),
(80,385,o),
(70,376,o),
(70,360,cs),
(70,344,o),
(79,335,o),
(96,335,cs)
);
},
{
closed = 1;
nodes = (
(513,650,ls),
(539,650,o),
(549,659,o),
(549,675,cs),
(549,691,o),
(539,700,o),
(523,700,cs),
(76,700,ls),
(60,700,o),
(50,691,o),
(50,675,cs),
(50,659,o),
(59,650,o),
(76,650,cs)
);
},
{
angle = -90;
pos = (-83,692);
ref = _bones.short;
},
{
pos = (5,50);
ref = _chevron;
}
);
width = 574;
},
{
background = {
shapes = (
{
angle = -90;
pos = (-83,692);
ref = _bones.short;
},
{
pos = (5,0);
ref = _chevron;
}
);
};
layerId = m002;
shapes = (
{
closed = 1;
nodes = (
(165,6,o),
(175,18,o),
(175,34,c),
(175,676,l),
(175,692,o),
(165,700,o),
(147,700,c),
(129,700,o),
(120,691,o),
(120,674,c),
(120,455,o),
(120,251,o),
(120,32,c),
(120,16,o),
(129,6,o),
(147,6,c)
);
},
{
closed = 1;
nodes = (
(434,335,ls),
(460,335,o),
(470,344,o),
(470,360,cs),
(470,376,o),
(460,385,o),
(444,385,cs),
(96,385,ls),
(80,385,o),
(70,376,o),
(70,360,cs),
(70,344,o),
(79,335,o),
(96,335,cs)
);
},
{
closed = 1;
nodes = (
(513,650,ls),
(539,650,o),
(549,659,o),
(549,675,cs),
(549,691,o),
(539,700,o),
(523,700,cs),
(76,700,ls),
(60,700,o),
(50,691,o),
(50,675,cs),
(50,659,o),
(59,650,o),
(76,650,cs)
);
},
{
angle = -90;
pos = (-83,692);
ref = _bones.short;
},
{
pos = (5,0);
ref = _chevron;
}
);
width = 574;
},
{
background = {
shapes = (
{
pos = (5,0);
ref = _chevron;
},
{
angle = -90;
pos = (-83,692);
ref = _bones.short;
}
);
};
layerId = m003;
shapes = (
{
closed = 1;
nodes = (
(165,46,o),
(175,58,o),
(175,74,c),
(175,676,l),
(175,692,o),
(165,700,o),
(147,700,c),
(129,700,o),
(120,691,o),
(120,674,c),
(120,455,o),
(120,291,o),
(120,72,c),
(120,56,o),
(129,46,o),
(147,46,c)
);
},
{
closed = 1;
nodes = (
(434,335,ls),
(460,335,o),
(470,344,o),
(470,360,cs),
(470,376,o),
(460,385,o),
(444,385,cs),
(96,385,ls),
(80,385,o),
(70,376,o),
(70,360,cs),
(70,344,o),
(79,335,o),
(96,335,cs)
);
},
{
closed = 1;
nodes = (
(513,650,ls),
(539,650,o),
(549,659,o),
(549,675,cs),
(549,691,o),
(539,700,o),
(523,700,cs),
(76,700,ls),
(60,700,o),
(50,691,o),
(50,675,cs),
(50,659,o),
(59,650,o),
(76,650,cs)
);
},
{
angle = -90;
pos = (-83,692);
ref = _bones.short;
},
{
pos = (5,0);
ref = _chevron;
}
);
width = 574;
}
);
metricLeft = H;
metricRight = E;
unicode = 70;
},
{
color = 5;
glyphname = G;
lastChange = "2023-12-23 20:53:52 +0000";
layers = (
{
layerId = m01;
shapes = (
{
closed = 1;
nodes = (
(475,-10,o),
(567,28,o),
(633,94,cs),
(640,101,o),
(644,109,o),
(644,116,cs),
(644,124,o),
(641,131,o),
(635,135,cs),
(630,139,o),
(624,141,o),
(617,141,cs),
(609,141,o),
(601,128,o),
(594,121,cs),
(537,64,o),
(459,40,o),
(379,40,cs),
(233,40,o),
(113,197,o),
(113,351,cs),
(113,547,o),
(241,660,o),
(379,660,cs),
(451,660,o),
(526,637,o),
(583,589,cs),
(590,583,o),
(597,581,o),
(605,581,cs),
(611,581,o),
(617,574,o),
(622,578,cs),
(628,583,o),
(631,590,o),
(631,598,cs),
(631,606,o),
(627,615,o),
(618,622,cs),
(551,675,o),
(465,710,o),
(379,710,cs),
(211,710,o),
(58,585,o),
(58,351,cs),
(58,165,o),
(200,-10,o),
(379,-10,cs)
);
},
{
closed = 1;
nodes = (
(636,1,o),
(646,13,o),
(646,29,cs),
(646,332,ls),
(646,348,o),
(636,356,o),
(618,356,cs),
(600,356,o),
(591,347,o),
(591,330,cs),
(591,27,ls),
(591,11,o),
(600,1,o),
(618,1,cs)
);
},
{
closed = 1;
nodes = (
(671,312,ls),
(685,312,o),
(696,323,o),
(696,337,cs),
(696,351,o),
(685,362,o),
(671,362,cs),
(491,362,ls),
(477,362,o),
(466,351,o),
(466,337,cs),
(466,323,o),
(477,312,o),
(491,312,cs)
);
},
{
closed = 1;
nodes = (
(627,535,o),
(639,546,o),
(639,559,cs),
(639,561,o),
(639,562,o),
(622,658,cs),
(620,670,o),
(609,679,o),
(597,679,cs),
(584,679,o),
(573,668,o),
(573,655,cs),
(573,654,o),
(573,651,o),
(590,556,cs),
(592,545,o),
(602,535,o),
(615,535,cs)
);
},
{
pos = (3,0);
ref = _ladder.caps;
},
{
angle = -90;
pos = (431,484);
ref = _chevron;
}
);
width = 755;
},
{
layerId = m002;
shapes = (
{
closed = 1;
nodes = (
(475,-10,o),
(567,28,o),
(633,94,cs),
(640,101,o),
(644,109,o),
(644,116,cs),
(644,124,o),
(641,131,o),
(635,135,cs),
(630,139,o),
(624,141,o),
(617,141,cs),
(609,141,o),
(601,128,o),
(594,121,cs),
(537,64,o),
(459,40,o),
(379,40,cs),
(233,40,o),
(113,197,o),
(113,351,cs),
(113,547,o),
(241,660,o),
(379,660,cs),
(451,660,o),
(526,637,o),
(583,589,cs),
(590,583,o),
(597,581,o),
(605,581,cs),
(611,581,o),
(617,574,o),
(622,578,cs),
(628,583,o),
(631,590,o),
(631,598,cs),
(631,606,o),
(627,615,o),
(618,622,cs),
(551,675,o),
(465,710,o),
(379,710,cs),
(211,710,o),
(58,585,o),
(58,351,cs),
(58,165,o),
(200,-10,o),
(379,-10,cs)
);
},
{
closed = 1;
nodes = (
(636,1,o),
(646,13,o),
(646,29,cs),
(646,332,ls),
(646,348,o),
(636,356,o),
(618,356,cs),
(600,356,o),
(591,347,o),
(591,330,cs),
(591,27,ls),
(591,11,o),
(600,1,o),
(618,1,cs)
);
},
{
closed = 1;
nodes = (
(671,312,ls),
(685,312,o),
(696,323,o),
(696,337,cs),
(696,351,o),
(685,362,o),
(671,362,cs),
(491,362,ls),
(477,362,o),
(466,351,o),
(466,337,cs),
(466,323,o),
(477,312,o),
(491,312,cs)
);
},
{
closed = 1;
nodes = (
(627,535,o),
(639,546,o),
(639,559,cs),
(639,561,o),
(639,562,o),
(622,658,cs),
(620,670,o),
(609,679,o),
(597,679,cs),
(584,679,o),
(573,668,o),
(573,655,cs),
(573,654,o),
(573,651,o),
(590,556,cs),
(592,545,o),
(602,535,o),
(615,535,cs)
);
},
{
pos = (3,0);
ref = _ladder.caps;
},
{
angle = -90;
pos = (445,484);
ref = _chevron;
}
);
width = 755;
},
{
layerId = m003;
shapes = (
{
closed = 1;
nodes = (
(475,-10,o),
(567,28,o),
(633,94,cs),
(640,101,o),
(644,109,o),
(644,116,cs),
(644,124,o),
(641,131,o),
(635,135,cs),
(630,139,o),
(624,141,o),
(617,141,cs),
(609,141,o),
(601,128,o),
(594,121,cs),
(537,64,o),
(459,40,o),
(379,40,cs),
(233,40,o),
(113,197,o),
(113,351,cs),
(113,547,o),
(241,660,o),
(379,660,cs),
(451,660,o),
(526,637,o),
(583,589,cs),
(590,583,o),
(597,581,o),
(605,581,cs),
(611,581,o),
(617,574,o),
(622,578,cs),
(628,583,o),
(631,590,o),
(631,598,cs),
(631,606,o),
(627,615,o),
(618,622,cs),
(551,675,o),
(465,710,o),
(379,710,cs),
(211,710,o),
(58,585,o),
(58,351,cs),
(58,165,o),
(200,-10,o),
(379,-10,cs)
);
},
{
closed = 1;
nodes = (
(636,1,o),
(646,13,o),
(646,29,cs),
(646,332,ls),
(646,348,o),
(636,356,o),
(618,356,cs),
(600,356,o),
(591,347,o),
(591,330,cs),
(591,27,ls),
(591,11,o),
(600,1,o),
(618,1,cs)
);
},
{
closed = 1;
nodes = (
(671,312,ls),
(685,312,o),
(696,323,o),
(696,337,cs),
(696,351,o),
(685,362,o),
(671,362,cs),
(491,362,ls),
(477,362,o),
(466,351,o),
(466,337,cs),
(466,323,o),
(477,312,o),
(491,312,cs)
);
},
{
closed = 1;
nodes = (
(627,535,o),
(639,546,o),
(639,559,cs),
(639,561,o),
(639,562,o),
(622,658,cs),
(620,670,o),
(609,679,o),
(597,679,cs),
(584,679,o),
(573,668,o),
(573,655,cs),
(573,654,o),
(573,651,o),
(590,556,cs),
(592,545,o),
(602,535,o),
(615,535,cs)
);
},
{
pos = (3,0);
ref = _ladder.caps;
},
{
angle = -90;
pos = (431,484);
ref = _chevron;
}
);
width = 755;
}
);
metricLeft = O;
unicode = 71;
},
{
color = 5;
glyphname = H;
lastChange = "2024-01-05 22:41:46 +0000";
layers = (
{
guides = (
{
pos = (507,670);
},
{
pos = (185,466);
},
{
pos = (508,583);
},
{
pos = (508,553);
},
{
angle = -90;
pos = (369,360);
showMeasurement = 1;
},
{
pos = (206,30);
},
{
pos = (529,147);
},
{
pos = (529,117);
}
);
layerId = m01;
shapes = (
{
closed = 1;
nodes = (
(656,0,o),
(666,12,o),
(666,28,c),
(666,676,ls),
(666,692,o),
(656,700,o),
(638,700,cs),
(620,700,o),
(611,691,o),
(611,676,cs),
(611,455,o),
(611,245,o),
(611,28,c),
(611,10,o),
(620,0,o),
(638,0,c)
);
},
{
closed = 1;
nodes = (
(165,0,o),
(175,12,o),
(175,28,c),
(175,676,ls),
(175,692,o),
(165,700,o),
(147,700,cs),
(129,700,o),
(120,691,o),
(120,676,cs),
(120,455,o),
(120,245,o),
(120,28,c),
(120,10,o),
(129,0,o),
(147,0,c)
);
},
{
closed = 1;
nodes = (
(710,335,ls),
(726,335,o),
(736,344,o),
(736,360,cs),
(736,376,o),
(726,385,o),
(710,385,cs),
(76,385,l),
(60,385,o),
(50,376,o),
(50,360,c),
(50,344,o),
(59,335,o),
(76,335,c)
);
},
{
pos = (2,50);
ref = _chevron;
},
{
pos = (488,50);
ref = _chevron;
},
{
pos = (2,650);
ref = _chevron;
scale = (1,-1);
},
{
pos = (488,650);
ref = _chevron;
scale = (1,-1);
},
{
angle = -90;
pos = (32,692);
ref = _bones.short;
}
);
width = 786;
},
{
guides = (
{
pos = (507,670);
},
{
pos = (185,466);
},
{
pos = (508,583);
},
{
pos = (508,553);
},
{
pos = (375,360);
showMeasurement = 1;
},
{
pos = (206,30);
},
{
pos = (529,147);
},
{
pos = (529,117);
}
);
layerId = m002;
shapes = (
{
closed = 1;
nodes = (
(656,0,o),
(666,12,o),
(666,28,c),
(666,676,ls),
(666,692,o),
(656,700,o),
(638,700,cs),
(620,700,o),
(611,691,o),
(611,676,cs),
(611,455,o),
(611,245,o),
(611,28,c),
(611,10,o),
(620,0,o),
(638,0,c)
);
},
{
closed = 1;
nodes = (
(165,0,o),
(175,12,o),
(175,28,c),
(175,676,ls),
(175,692,o),
(165,700,o),
(147,700,cs),
(129,700,o),
(120,691,o),
(120,676,cs),
(120,455,o),
(120,245,o),
(120,28,c),
(120,10,o),
(129,0,o),
(147,0,c)
);
},
{
closed = 1;
nodes = (
(710,335,ls),
(726,335,o),
(736,344,o),
(736,360,cs),
(736,376,o),
(726,385,o),
(710,385,cs),
(76,385,l),
(60,385,o),
(50,376,o),
(50,360,c),
(50,344,o),
(59,335,o),
(76,335,c)
);
},
{
pos = (2,0);
ref = _chevron;
},
{
pos = (488,0);
ref = _chevron;
},
{
pos = (2,700);
ref = _chevron;
scale = (1,-1);
},
{
pos = (488,700);
ref = _chevron;
scale = (1,-1);
},
{
angle = -90;
pos = (32,692);
ref = _bones.short;
}
);
width = 786;
},
{
guides = (
{
pos = (507,670);
},
{
pos = (185,466);
},
{
pos = (508,583);
},
{
pos = (508,553);
},
{
pos = (524,360);
showMeasurement = 1;
},
{
pos = (206,30);
},
{
pos = (529,147);
},
{
pos = (529,117);
}
);
layerId = m003;
shapes = (
{
closed = 1;
nodes = (
(656,40,o),
(666,52,o),
(666,68,c),
(666,636,ls),
(666,652,o),
(656,660,o),
(638,660,cs),
(620,660,o),
(611,651,o),
(611,636,cs),
(611,415,o),
(611,285,o),
(611,68,c),
(611,50,o),
(620,40,o),
(638,40,c)
);
},
{
closed = 1;
nodes = (
(165,40,o),
(175,52,o),
(175,68,c),
(175,636,ls),
(175,652,o),
(165,660,o),
(147,660,cs),
(129,660,o),
(120,651,o),
(120,636,cs),
(120,415,o),
(120,285,o),
(120,68,c),
(120,50,o),
(129,40,o),
(147,40,c)
);
},
{
closed = 1;
nodes = (
(710,335,ls),
(726,335,o),
(736,344,o),
(736,360,cs),
(736,376,o),
(726,385,o),
(710,385,cs),
(76,385,l),
(60,385,o),
(50,376,o),
(50,360,c),
(50,344,o),
(59,335,o),
(76,335,c)
);
},
{
pos = (2,0);
ref = _chevron;
},
{
pos = (488,0);
ref = _chevron;
},
{
pos = (2,700);
ref = _chevron;
scale = (1,-1);
},
{
pos = (488,700);
ref = _chevron;
scale = (1,-1);
},
{
angle = -90;
pos = (34,692);
ref = _bones.short;
}
);
width = 786;
}
);
unicode = 72;
},
{
color = 5;
glyphname = I;
lastChange = "2023-12-23 21:00:44 +0000";
layers = (
{
layerId = m01;
shapes = (
{
closed = 1;
nodes = (
(175,6,o),
(185,16,o),
(185,32,cs),
(185,674,ls),
(185,690,o),
(175,700,o),
(157,700,cs),
(139,700,o),
(130,691,o),
(130,674,cs),
(130,32,ls),
(130,16,o),
(139,6,o),
(157,6,cs)
);
},
{
closed = 1;
nodes = (
(239,650,ls),
(255,650,o),
(265,659,o),
(265,675,cs),
(265,691,o),
(255,700,o),
(239,700,cs),
(76,700,ls),
(60,700,o),
(50,691,o),
(50,675,cs),
(50,659,o),
(60,650,o),
(76,650,cs)
);
},
{
closed = 1;
nodes = (
(239,0,ls),
(255,0,o),
(265,9,o),
(265,25,cs),
(265,41,o),
(255,50,o),
(239,50,cs),
(76,50,ls),
(60,50,o),
(50,41,o),
(50,25,cs),
(50,9,o),
(60,0,o),
(76,0,cs)
);
},
{
pos = (-174,0);
ref = _bones.short;
}
);
width = 315;
},
{
layerId = m002;
shapes = (
{
closed = 1;
nodes = (
(175,6,o),
(185,16,o),
(185,32,cs),
(185,674,ls),
(185,690,o),
(175,700,o),
(157,700,cs),
(139,700,o),
(130,691,o),
(130,674,cs),
(130,32,ls),
(130,16,o),
(139,6,o),
(157,6,cs)
);
},
{
closed = 1;
nodes = (
(239,650,ls),
(255,650,o),
(265,659,o),
(265,675,cs),
(265,691,o),
(255,700,o),
(239,700,cs),
(76,700,ls),
(60,700,o),
(50,691,o),
(50,675,cs),
(50,659,o),
(60,650,o),
(76,650,cs)
);
},
{
closed = 1;
nodes = (
(239,0,ls),
(255,0,o),
(265,9,o),
(265,25,cs),
(265,41,o),
(255,50,o),
(239,50,cs),
(76,50,ls),
(60,50,o),
(50,41,o),
(50,25,cs),
(50,9,o),
(60,0,o),
(76,0,cs)
);
},
{
pos = (-174,0);
ref = _bones.short;
}
);
width = 315;
},
{
layerId = m003;
shapes = (
{
closed = 1;
nodes = (
(175,6,o),
(185,16,o),
(185,32,cs),
(185,674,ls),
(185,690,o),
(175,700,o),
(157,700,cs),
(139,700,o),
(130,691,o),
(130,674,cs),
(130,32,ls),
(130,16,o),
(139,6,o),
(157,6,cs)
);
},
{
closed = 1;
nodes = (
(239,650,ls),
(255,650,o),
(265,659,o),
(265,675,cs),
(265,691,o),
(255,700,o),
(239,700,cs),
(76,700,ls),
(60,700,o),
(50,691,o),
(50,675,cs),
(50,659,o),
(60,650,o),
(76,650,cs)
);
},
{
closed = 1;
nodes = (
(239,0,ls),
(255,0,o),
(265,9,o),
(265,25,cs),
(265,41,o),
(255,50,o),
(239,50,cs),
(76,50,ls),
(60,50,o),
(50,41,o),
(50,25,cs),
(50,9,o),
(60,0,o),
(76,0,cs)
);
},
{
pos = (-174,0);
ref = _bones.short;
}
);
width = 315;
}
);
metricLeft = H;
metricRight = H;
unicode = 73;
},
{
color = 5;
glyphname = J;
lastChange = "2024-01-02 23:27:44 +0000";
layers = (
{
layerId = m01;
shapes = (
{
closed = 1;
nodes = (
(355,-10,o),
(452,68,o),
(452,237,cs),
(452,676,ls),
(452,692,o),
(442,700,o),
(424,700,cs),
(406,700,o),
(397,691,o),
(397,674,cs),
(397,250,ls),
(397,116,o),
(325,40,o),
(230,40,cs),
(145,40,o),
(116,76,o),
(105,107,cs),
(91,147,o),
(83,155,o),
(69,155,cs),
(53,155,o),
(40,142,o),
(40,125,cs),
(40,50,o),
(119,-10,o),
(230,-10,cs)
);
},
{
closed = 1;
nodes = (
(424,650,ls),
(440,650,o),
(450,659,o),
(450,675,cs),
(450,691,o),
(440,700,o),
(424,700,cs),
(261,700,ls),
(245,700,o),
(235,691,o),
(235,675,cs),
(235,659,o),
(245,650,o),
(261,650,cs)
);
},
{
pos = (166,295);
ref = _ladder.short;
}
);
width = 497;
},
{
layerId = m002;
shapes = (
{
closed = 1;
nodes = (
(355,-10,o),
(452,68,o),
(452,237,cs),
(452,676,ls),
(452,692,o),
(442,700,o),
(424,700,cs),
(406,700,o),
(397,691,o),
(397,674,cs),
(397,250,ls),
(397,116,o),
(325,40,o),
(230,40,cs),
(145,40,o),
(116,76,o),
(105,107,cs),
(91,147,o),
(83,155,o),
(69,155,cs),
(53,155,o),
(40,142,o),
(40,125,cs),
(40,50,o),
(119,-10,o),
(230,-10,cs)
);
},
{
closed = 1;
nodes = (
(424,650,ls),
(440,650,o),
(450,659,o),
(450,675,cs),
(450,691,o),
(440,700,o),
(424,700,cs),
(261,700,ls),
(245,700,o),
(235,691,o),
(235,675,cs),
(235,659,o),
(245,650,o),
(261,650,cs)
);
},
{
pos = (166,295);
ref = _ladder.short;
}
);
width = 497;
},
{
layerId = m003;
shapes = (
{
closed = 1;
nodes = (
(355,-10,o),
(452,68,o),
(452,237,cs),
(452,676,ls),
(452,692,o),
(442,700,o),
(424,700,cs),
(406,700,o),
(397,691,o),
(397,674,cs),
(397,250,ls),
(397,116,o),
(325,40,o),
(230,40,cs),
(145,40,o),
(116,76,o),
(105,107,cs),
(91,147,o),
(83,155,o),
(69,155,cs),
(53,155,o),
(40,142,o),
(40,125,cs),
(40,50,o),
(119,-10,o),
(230,-10,cs)
);
},
{
closed = 1;
nodes = (
(424,650,ls),
(440,650,o),
(450,659,o),
(450,675,cs),
(450,691,o),
(440,700,o),
(424,700,cs),
(261,700,ls),
(245,700,o),
(235,691,o),
(235,675,cs),
(235,659,o),
(245,650,o),
(261,650,cs)
);
},
{
pos = (166,295);
ref = _ladder.short;
}
);
width = 497;
}
);
metricRight = U;
unicode = 74;
},
{
color = 5;
glyphname = K;
lastChange = "2023-12-28 09:52:02 +0000";
layers = (
{
layerId = m01;
shapes = (
{
closed = 1;
nodes = (
(515,0,o),
(527,13,o),
(527,31,cs),
(527,291,o),
(446,385,o),
(219,393,c),
(491,649,ls),
(497,655,o),
(502,662,o),
(502,673,cs),
(502,682,o),
(494,697,o),
(473,697,cs),
(465,697,o),
(459,694,o),
(453,688,cs),
(75,332,l),
(120,294,l),
(173,346,l),
(391,340,o),
(463,278,o),
(472,32,cs),
(473,13,o),
(485,0,o),
(501,0,cs)
);
},
{
closed = 1;
nodes = (
(115,0,o),
(125,10,o),
(125,26,cs),
(125,674,ls),
(125,690,o),
(115,700,o),
(97,700,cs),
(79,700,o),
(70,691,o),
(70,674,cs),
(70,26,ls),
(70,10,o),
(79,0,o),
(97,0,cs)
);
},
{
pos = (-45,50);
ref = _chevron;
},
{
pos = (-45,650);
ref = _chevron;
scale = (1,-1);
}
);
width = 567;
},
{
layerId = m002;
shapes = (
{
closed = 1;
nodes = (
(515,0,o),
(527,13,o),
(527,31,cs),
(527,291,o),
(446,385,o),
(219,393,c),
(491,649,ls),
(497,655,o),
(502,662,o),
(502,673,cs),
(502,682,o),
(494,697,o),
(473,697,cs),
(465,697,o),
(459,694,o),
(453,688,cs),
(75,332,l),
(120,294,l),
(173,346,l),
(391,340,o),
(463,278,o),
(472,32,cs),
(473,13,o),
(485,0,o),
(501,0,cs)
);
},
{
closed = 1;
nodes = (
(115,0,o),
(125,10,o),
(125,26,cs),
(125,674,ls),
(125,690,o),
(115,700,o),
(97,700,cs),
(79,700,o),
(70,691,o),
(70,674,cs),
(70,26,ls),
(70,10,o),
(79,0,o),
(97,0,cs)
);
},
{
pos = (-45,0);
ref = _chevron;
},
{
pos = (-45,700);
ref = _chevron;
scale = (1,-1);
}
);
width = 567;
},
{
layerId = m003;
shapes = (
{
closed = 1;
nodes = (
(515,0,o),
(527,13,o),
(527,31,cs),
(527,291,o),
(446,385,o),
(219,393,c),
(491,649,ls),
(497,655,o),
(502,662,o),
(502,673,cs),
(502,682,o),
(494,697,o),
(473,697,cs),
(465,697,o),
(459,694,o),
(453,688,cs),
(75,332,l),
(120,294,l),
(173,346,l),
(391,340,o),
(463,278,o),
(472,32,cs),
(473,13,o),
(485,0,o),
(501,0,cs)
);
},
{
closed = 1;
nodes = (
(229,222,o),
(235,230,o),
(235,240,cs),
(235,350,ls),
(235,361,o),
(229,366,o),
(217,366,cs),
(206,366,o),
(200,360,o),
(200,349,cs),
(200,239,ls),
(200,229,o),
(206,222,o),
(217,222,cs)
);
},
{
closed = 1;
nodes = (
(163,223,o),
(171,217,o),
(181,217,cs),
(253,217,ls),
(264,217,o),
(271,223,o),
(271,235,cs),
(271,246,o),
(263,252,o),
(252,252,cs),
(180,252,ls),
(170,252,o),
(163,246,o),
(163,235,cs)
);
},
{
closed = 1;
nodes = (
(206,577,o),
(200,570,o),
(200,560,cs),
(200,450,ls),
(200,439,o),
(206,433,o),
(217,433,cs),
(229,433,o),
(235,438,o),
(235,449,cs),
(235,559,ls),
(235,569,o),
(229,577,o),
(217,577,cs)
);
},
{
closed = 1;
nodes = (
(163,553,o),
(170,547,o),
(180,547,cs),
(252,547,ls),
(263,547,o),
(271,553,o),
(271,564,cs),
(271,576,o),
(264,582,o),
(253,582,cs),
(181,582,ls),
(171,582,o),
(163,576,o),
(163,564,cs)
);
},
{
closed = 1;
nodes = (
(115,46,o),
(125,58,o),
(125,74,c),
(125,630,l),
(125,646,o),
(115,654,o),
(97,654,c),
(79,654,o),
(70,645,o),
(70,630,c),
(70,409,o),
(70,291,o),
(70,74,c),
(70,56,o),
(79,46,o),
(97,46,c)
);
},
{
pos = (-45,0);
ref = _chevron;
},
{
pos = (-45,700);
ref = _chevron;
scale = (1,-1);
}
);
width = 567;
}
);
metricLeft = M;
unicode = 75;
},
{
color = 5;
glyphname = L;
lastChange = "2023-12-20 15:04:31 +0000";
layers = (
{
layerId = m01;
shapes = (
{
closed = 1;
nodes = (
(91,0,o),
(100,10,o),
(100,26,cs),
(100,674,ls),
(100,690,o),
(91,700,o),
(75,700,cs),
(59,700,o),
(50,691,o),
(50,674,cs),
(50,36,ls),
(50,10,o),
(59,0,o),
(75,0,cs)
);
},
{
closed = 1;
nodes = (
(501,0,ls),
(517,0,o),
(527,9,o),
(527,25,cs),
(527,41,o),
(517,50,o),
(501,50,cs),
(76,50,ls),
(60,50,o),
(50,41,o),
(50,25,cs),
(50,9,o),
(59,0,o),
(76,0,cs)
);
},
{
closed = 1;
nodes = (
(477,26,ls),
(477,10,o),
(486,0,o),
(502,0,cs),
(518,0,o),
(527,10,o),
(527,26,cs),
(527,119,ls),
(527,135,o),
(518,145,o),
(502,145,cs),
(486,145,o),
(477,135,o),
(477,119,cs)
);
},
{
pos = (-129,0);
ref = _ladder.caps;
}
);
width = 567;
},
{
layerId = m002;
shapes = (
{
closed = 1;
nodes = (
(91,0,o),
(100,10,o),
(100,26,cs),
(100,674,ls),
(100,690,o),
(91,700,o),
(75,700,cs),
(59,700,o),
(50,691,o),
(50,674,cs),
(50,36,ls),
(50,10,o),
(59,0,o),
(75,0,cs)
);
},
{
closed = 1;
nodes = (
(501,0,ls),
(517,0,o),
(527,9,o),
(527,25,cs),
(527,41,o),
(517,50,o),
(501,50,cs),
(76,50,ls),
(60,50,o),
(50,41,o),
(50,25,cs),
(50,9,o),
(59,0,o),
(76,0,cs)
);
},
{
closed = 1;
nodes = (
(477,26,ls),
(477,10,o),
(486,0,o),
(502,0,cs),
(518,0,o),
(527,10,o),
(527,26,cs),
(527,119,ls),
(527,135,o),
(518,145,o),
(502,145,cs),
(486,145,o),
(477,135,o),
(477,119,cs)
);
},
{
pos = (-129,0);
ref = _ladder.caps;
}
);
width = 567;
},
{
layerId = m003;
shapes = (
{
closed = 1;
nodes = (
(91,0,o),
(100,10,o),
(100,26,cs),
(100,674,ls),
(100,690,o),
(91,700,o),
(75,700,cs),
(59,700,o),
(50,691,o),
(50,674,cs),
(50,36,ls),
(50,10,o),
(59,0,o),
(75,0,cs)
);
},
{
closed = 1;
nodes = (
(501,0,ls),
(517,0,o),
(527,9,o),
(527,25,cs),
(527,41,o),
(517,50,o),
(501,50,cs),
(76,50,ls),
(60,50,o),
(50,41,o),
(50,25,cs),
(50,9,o),
(59,0,o),
(76,0,cs)
);
},
{
closed = 1;
nodes = (
(477,26,ls),
(477,10,o),
(486,0,o),
(502,0,cs),
(518,0,o),
(527,10,o),
(527,26,cs),
(527,119,ls),
(527,135,o),
(518,145,o),
(502,145,cs),
(486,145,o),
(477,135,o),
(477,119,cs)
);
},
{
pos = (-129,0);
ref = _ladder.caps;
}
);
width = 567;
}
);
metricLeft = H;
unicode = 76;
},
{
color = 5;
glyphname = M;
lastChange = "2024-01-05 22:04:07 +0000";
layers = (
{
layerId = m01;
shapes = (
{
closed = 1;
nodes = (
(115,0,o),
(125,12,o),
(125,28,c),
(125,428,ls),
(125,585,o),
(209,653,o),
(286,653,cs),
(356,653,o),
(453,585,o),
(453,428,c),
(508,428,l),
(508,637,o),
(382,708,o),
(285,708,cs),
(181,708,o),
(85,628,o),
(80,436,cs),
(70,26,l),
(70,10,o),
(79,0,o),
(97,0,c)
);
},
{
closed = 1;
nodes = (
(115,0,o),
(125,12,o),
(125,28,c),
(125,676,l),
(125,692,o),
(115,700,o),
(97,700,c),
(79,700,o),
(70,691,o),
(70,676,c),
(70,455,o),
(70,245,o),
(70,28,c),
(70,10,o),
(79,0,o),
(97,0,c)
);
},
{
closed = 1;
nodes = (
(498,0,o),
(508,12,o),
(508,28,c),
(508,462,ls),
(508,478,o),
(498,486,o),
(480,486,cs),
(462,486,o),
(453,477,o),
(453,460,cs),
(453,26,l),
(453,10,o),
(462,0,o),
(480,0,c)
);
},
{
closed = 1;
nodes = (
(881,0,o),
(891,12,o),
(891,28,c),
(891,438,ls),
(891,652,o),
(781,710,o),
(685,710,cs),
(589,710,o),
(470,628,o),
(470,430,c),
(508,430,l),
(508,591,o),
(616,659,o),
(685,659,cs),
(755,659,o),
(836,601,o),
(836,430,cs),
(836,26,l),
(836,10,o),
(845,0,o),
(863,0,c)
);
},
{
pos = (333,50);
ref = _chevron;
},
{
pos = (180,0);
ref = _bones.long;
}
);
width = 961;
},
{
layerId = m002;
shapes = (
{
closed = 1;
nodes = (
(115,0,o),
(125,12,o),
(125,28,c),
(125,428,ls),
(125,585,o),
(209,653,o),
(286,653,cs),
(356,653,o),
(453,585,o),
(453,428,c),
(508,428,l),
(508,637,o),
(382,708,o),
(285,708,cs),
(181,708,o),
(85,628,o),
(80,436,cs),
(70,26,l),
(70,10,o),
(79,0,o),
(97,0,c)
);
},
{
closed = 1;
nodes = (
(115,0,o),
(125,12,o),
(125,28,c),
(125,676,l),
(125,692,o),
(115,700,o),
(97,700,c),
(79,700,o),
(70,691,o),
(70,676,c),
(70,455,o),
(70,245,o),
(70,28,c),
(70,10,o),
(79,0,o),
(97,0,c)
);
},
{
closed = 1;
nodes = (
(498,0,o),
(508,12,o),
(508,28,c),
(508,462,ls),
(508,478,o),
(498,486,o),
(480,486,cs),
(462,486,o),
(453,477,o),
(453,460,cs),
(453,26,l),
(453,10,o),
(462,0,o),
(480,0,c)
);
},
{
closed = 1;
nodes = (
(881,0,o),
(891,12,o),
(891,28,c),
(891,438,ls),
(891,652,o),
(781,710,o),
(685,710,cs),
(589,710,o),
(470,628,o),
(470,430,c),
(508,430,l),
(508,591,o),
(616,659,o),
(685,659,cs),
(755,659,o),
(836,601,o),
(836,430,cs),
(836,26,l),
(836,10,o),
(845,0,o),
(863,0,c)
);
},
{
pos = (333,0);
ref = _chevron;
},
{
pos = (180,0);
ref = _bones.long;
}
);
width = 961;
},
{
background = {
shapes = (
{
closed = 1;
nodes = (
(115,40,o),
(125,52,o),
(125,68,cs),
(125,428,ls),
(125,585,o),
(179,653,o),
(256,653,cs),
(326,653,o),
(391,585,o),
(391,428,c),
(446,428,l),
(446,637,o),
(352,708,o),
(255,708,cs),
(151,708,o),
(70,628,o),
(70,436,cs),
(70,66,ls),
(70,50,o),
(79,40,o),
(97,40,cs)
);
},
{
closed = 1;
nodes = (
(41,-3,o),
(54,-3,o),
(66,9,cs),
(100,43,ls),
(111,54,o),
(112,67,o),
(101,79,cs),
(89,90,o),
(76,89,o),
(65,78,cs),
(31,44,l),
(19,32,o),
(19,19,o),
(30,8,cs)
);
},
{
closed = 1;
nodes = (
(165,19,o),
(165,32,o),
(153,44,cs),
(119,78,ls),
(108,89,o),
(95,90,o),
(83,79,cs),
(72,67,o),
(73,54,o),
(84,43,cs),
(118,9,ls),
(130,-3,o),
(143,-3,o),
(154,8,c)
);
},
{
closed = 1;
nodes = (
(362,-3,o),
(375,-3,o),
(387,9,cs),
(421,43,ls),
(432,54,o),
(433,67,o),
(422,79,cs),
(410,90,o),
(397,89,o),
(386,78,cs),
(352,44,ls),
(340,32,o),
(340,19,o),
(351,8,cs)
);
},
{
closed = 1;
nodes = (
(496,19,o),
(496,32,o),
(484,44,cs),
(450,78,ls),
(439,89,o),
(426,90,o),
(414,79,cs),
(403,67,o),
(404,54,o),
(415,43,cs),
(449,9,ls),
(461,-3,o),
(474,-3,o),
(485,8,cs)
);
},
{
closed = 1;
nodes = (
(436,40,o),
(446,52,o),
(446,68,cs),
(446,462,ls),
(446,478,o),
(436,486,o),
(418,486,cs),
(400,486,o),
(391,477,o),
(391,460,cs),
(391,66,ls),
(391,50,o),
(400,40,o),
(418,40,cs)
);
},
{
closed = 1;
nodes = (
(697,-3,o),
(710,-3,o),
(722,9,cs),
(756,43,ls),
(767,54,o),
(768,67,o),
(757,79,cs),
(745,90,o),
(732,89,o),
(721,78,cs),
(687,44,ls),
(675,32,o),
(675,19,o),
(686,8,cs)
);
},
{
closed = 1;
nodes = (
(821,19,o),
(821,32,o),
(809,44,cs),
(775,78,ls),
(764,89,o),
(751,90,o),
(739,79,cs),
(728,67,o),
(729,54,o),
(740,43,cs),
(774,9,ls),
(786,-3,o),
(799,-3,o),
(810,8,cs)
);
},
{
closed = 1;
nodes = (
(761,40,o),
(771,52,o),
(771,68,cs),
(771,438,ls),
(771,652,o),
(691,710,o),
(595,710,cs),
(499,710,o),
(408,628,o),
(408,430,c),
(446,430,l),
(446,591,o),
(526,659,o),
(595,659,cs),
(665,659,o),
(716,601,o),
(716,430,cs),
(716,66,ls),
(716,50,o),
(725,40,o),
(743,40,cs)
);
}
);
};
layerId = m003;
shapes = (
{
closed = 1;
nodes = (
(115,0,o),
(125,12,o),
(125,28,c),
(125,428,ls),
(125,585,o),
(209,653,o),
(286,653,cs),
(356,653,o),
(453,585,o),
(453,428,c),
(508,428,l),
(508,637,o),
(382,708,o),
(285,708,cs),
(181,708,o),
(85,628,o),
(80,436,cs),
(70,26,l),
(70,10,o),
(79,0,o),
(97,0,c)
);
},
{
closed = 1;
nodes = (
(115,0,o),
(125,12,o),
(125,28,c),
(125,676,l),
(125,692,o),
(115,700,o),
(97,700,c),
(79,700,o),
(70,691,o),
(70,676,c),
(70,455,o),
(70,245,o),
(70,28,c),
(70,10,o),
(79,0,o),
(97,0,c)
);
},
{
closed = 1;
nodes = (
(498,40,o),
(508,52,o),
(508,68,c),
(508,462,ls),
(508,478,o),
(498,486,o),
(480,486,cs),
(462,486,o),
(453,477,o),
(453,460,cs),
(453,66,l),
(453,50,o),
(462,40,o),
(480,40,c)
);
},
{
closed = 1;
nodes = (
(881,0,o),
(891,12,o),
(891,28,c),
(891,438,ls),
(891,652,o),
(781,710,o),
(685,710,cs),
(589,710,o),
(470,628,o),
(470,430,c),
(508,430,l),
(508,591,o),
(616,659,o),
(685,659,cs),
(755,659,o),
(836,601,o),
(836,430,cs),
(836,26,l),
(836,10,o),
(845,0,o),
(863,0,c)
);
},
{
pos = (333,0);
ref = _chevron;
},
{
pos = (180,0);
ref = _bones.long;
}
);
width = 961;
}
);
unicode = 77;
},
{
color = 5;
glyphname = N;
lastChange = "2024-01-05 22:07:52 +0000";
layers = (
{
layerId = m01;
shapes = (
{
closed = 1;
nodes = (
(692,-10,o),
(720,47,o),
(720,114,cs),
(720,671,l),
(720,687,o),
(710,695,o),
(692,695,cs),
(674,695,o),
(665,686,o),
(665,669,cs),
(665,135,ls),
(665,92,o),
(652,41,o),
(610,41,cs),
(577,41,o),
(545,60,o),
(495,215,cs),
(389,545,ls),
(353,657,o),
(297,710,o),
(223,710,cs),
(138,710,o),
(111,649,o),
(111,557,cs),
(111,26,ls),
(111,10,o),
(120,0,o),
(138,0,cs),
(156,0,o),
(166,12,o),
(166,28,cs),
(166,545,ls),
(166,598,o),
(170,658,o),
(222,658,cs),
(270,658,o),
(305,603,o),
(334,516,cs),
(440,192,ls),
(497,19,o),
(544,-10,o),
(610,-10,cs)
);
},
{
closed = 1;
nodes = (
(219,0,ls),
(235,0,o),
(245,9,o),
(245,25,cs),
(245,41,o),
(235,50,o),
(219,50,cs),
(56,50,ls),
(40,50,o),
(30,41,o),
(30,25,cs),
(30,9,o),
(40,0,o),
(56,0,cs)
);
},
{
closed = 1;
nodes = (
(774,650,ls),
(790,650,o),
(800,659,o),
(800,675,cs),
(800,691,o),
(790,700,o),
(774,700,cs),
(611,700,ls),
(595,700,o),
(585,691,o),
(585,675,cs),
(585,659,o),
(595,650,o),
(611,650,cs)
);
},
{
angle = -162;
pos = (696,139);
ref = _ladder.caps;
scale = (1,-1);
}
);
width = 830;
},
{
layerId = m002;
shapes = (
{
closed = 1;
nodes = (
(692,-10,o),
(720,47,o),
(720,114,cs),
(720,671,l),
(720,687,o),
(710,695,o),
(692,695,cs),
(674,695,o),
(665,686,o),
(665,669,cs),
(665,135,ls),
(665,92,o),
(652,41,o),
(610,41,cs),
(577,41,o),
(545,60,o),
(495,215,cs),
(389,545,ls),
(353,657,o),
(297,710,o),
(223,710,cs),
(138,710,o),
(111,649,o),
(111,557,cs),
(111,26,ls),
(111,10,o),
(120,0,o),
(138,0,cs),
(156,0,o),
(166,12,o),
(166,28,cs),
(166,545,ls),
(166,598,o),
(170,658,o),
(222,658,cs),
(270,658,o),
(305,603,o),
(334,516,cs),
(440,192,ls),
(497,19,o),
(544,-10,o),
(610,-10,cs)
);
},
{
closed = 1;
nodes = (
(219,0,ls),
(235,0,o),
(245,9,o),
(245,25,cs),
(245,41,o),
(235,50,o),
(219,50,cs),
(56,50,ls),
(40,50,o),
(30,41,o),
(30,25,cs),
(30,9,o),
(40,0,o),
(56,0,cs)
);
},
{
closed = 1;
nodes = (
(774,650,ls),
(790,650,o),
(800,659,o),
(800,675,cs),
(800,691,o),
(790,700,o),
(774,700,cs),
(611,700,ls),
(595,700,o),
(585,691,o),
(585,675,cs),
(585,659,o),
(595,650,o),
(611,650,cs)
);
},
{
angle = -162;
pos = (698,136);
ref = _ladder.caps;
scale = (1,-1);
}
);
width = 830;
},
{
background = {
shapes = (
{
closed = 1;
nodes = (
(611,40,o),
(621,52,o),
(621,68,cs),
(621,438,ls),
(621,652,o),
(452,710,o),
(355,710,cs),
(239,710,o),
(83,628,o),
(83,430,c),
(131,430,l),
(131,591,o),
(275,659,o),
(364,659,cs),
(446,659,o),
(566,601,o),
(566,430,cs),
(566,66,ls),
(566,50,o),
(575,40,o),
(593,40,cs)
);
},
{
closed = 1;
nodes = (
(121,40,o),
(131,52,o),
(131,68,cs),
(131,676,ls),
(131,692,o),
(121,700,o),
(103,700,cs),
(85,700,o),
(76,691,o),
(76,674,cs),
(76,66,ls),
(76,50,o),
(85,40,o),
(103,40,cs)
);
},
{
closed = 1;
nodes = (
(25,32,o),
(25,20,o),
(36,8,cs),
(47,-3,o),
(61,-2,o),
(72,9,cs),
(106,43,ls),
(117,54,o),
(118,68,o),
(107,79,cs),
(95,90,o),
(83,90,o),
(71,78,cs),
(37,44,ls)
);
},
{
closed = 1;
nodes = (
(113,90,o),
(101,90,o),
(89,79,cs),
(78,68,o),
(79,54,o),
(90,43,cs),
(124,9,ls),
(135,-2,o),
(149,-3,o),
(160,8,cs),
(171,20,o),
(171,32,o),
(159,44,cs),
(125,78,ls)
);
},
{
closed = 1;
nodes = (
(525,32,o),
(525,20,o),
(536,8,cs),
(547,-3,o),
(561,-2,o),
(572,9,cs),
(606,43,ls),
(617,54,o),
(618,68,o),
(607,79,cs),
(595,90,o),
(583,90,o),
(571,78,cs),
(537,44,ls)
);
},
{
closed = 1;
nodes = (
(613,90,o),
(601,90,o),
(589,79,cs),
(578,68,o),
(579,54,o),
(590,43,cs),
(624,9,ls),
(635,-2,o),
(649,-3,o),
(660,8,cs),
(671,20,o),
(671,32,o),
(659,44,cs),
(625,78,ls)
);
}
);
};
layerId = m003;
shapes = (
{
closed = 1;
nodes = (
(692,-10,o),
(720,47,o),
(720,114,cs),
(720,671,l),
(720,687,o),
(710,695,o),
(692,695,cs),
(674,695,o),
(665,686,o),
(665,669,cs),
(665,135,ls),
(665,92,o),
(652,41,o),
(610,41,cs),
(577,41,o),
(545,60,o),
(495,215,cs),
(389,545,ls),
(353,657,o),
(297,710,o),
(223,710,cs),
(138,710,o),
(111,649,o),
(111,557,cs),
(111,26,ls),
(111,10,o),
(120,0,o),
(138,0,cs),
(156,0,o),
(166,12,o),
(166,28,cs),
(166,545,ls),
(166,598,o),
(170,658,o),
(222,658,cs),
(270,658,o),
(305,603,o),
(334,516,cs),
(440,192,ls),
(497,19,o),
(544,-10,o),
(610,-10,cs)
);
},
{
closed = 1;
nodes = (
(219,0,ls),
(235,0,o),
(245,9,o),
(245,25,cs),
(245,41,o),
(235,50,o),
(219,50,cs),
(56,50,ls),
(40,50,o),
(30,41,o),
(30,25,cs),
(30,9,o),
(40,0,o),
(56,0,cs)
);
},
{
closed = 1;
nodes = (
(774,650,ls),
(790,650,o),
(800,659,o),
(800,675,cs),
(800,691,o),
(790,700,o),
(774,700,cs),
(611,700,ls),
(595,700,o),
(585,691,o),
(585,675,cs),
(585,659,o),
(595,650,o),
(611,650,cs)
);
},
{
angle = -162;
pos = (705,119);
ref = _ladder.caps;
scale = (1,-1);
}
);
width = 830;
}
);
unicode = 78;
},
{
color = 5;
glyphname = O;
lastChange = "2023-12-20 15:04:47 +0000";
layers = (
{
guides = (
{
pos = (423,351);
showMeasurement = 1;
},
{
angle = 270;
pos = (422,350);
showMeasurement = 1;
}
);
layerId = m01;
shapes = (
{
closed = 1;
nodes = (
(721,135,o),
(572,42,o),
(417,42,cs),
(262,42,o),
(113,135,o),
(113,351,cs),
(113,567,o),
(262,660,o),
(417,660,cs),
(572,660,o),
(721,567,o),
(721,351,cs)
);
},
{
closed = 1;
nodes = (
(58,97,o),
(240,-8,o),
(417,-8,cs),
(594,-8,o),
(776,97,o),
(776,351,cs),
(776,605,o),
(594,710,o),
(417,710,cs),
(240,710,o),
(58,605,o),
(58,351,cs)
);
},
{
pos = (3,0);
ref = _ladder.caps;
}
);
width = 834;
},
{
guides = (
{
pos = (438,350);
showMeasurement = 1;
},
{
angle = 270;
pos = (422,350);
showMeasurement = 1;
}
);
layerId = m002;
shapes = (
{
closed = 1;
nodes = (
(721,135,o),
(572,42,o),
(417,42,cs),
(262,42,o),
(113,135,o),
(113,351,cs),
(113,567,o),
(262,660,o),
(417,660,cs),
(572,660,o),
(721,567,o),
(721,351,cs)
);
},
{
closed = 1;
nodes = (
(58,97,o),
(240,-8,o),
(417,-8,cs),
(594,-8,o),
(776,97,o),
(776,351,cs),
(776,605,o),
(594,710,o),
(417,710,cs),
(240,710,o),
(58,605,o),
(58,351,cs)
);
},
{
pos = (3,0);
ref = _ladder.caps;
}
);
width = 834;
},
{
guides = (
{
pos = (422,350);
showMeasurement = 1;
},
{
angle = 270;
pos = (422,350);
showMeasurement = 1;
}
);
layerId = m003;
shapes = (
{
closed = 1;
nodes = (
(721,135,o),
(572,42,o),
(417,42,cs),
(262,42,o),
(113,135,o),
(113,351,cs),
(113,567,o),
(262,660,o),
(417,660,cs),
(572,660,o),
(721,567,o),
(721,351,cs)
);
},
{
closed = 1;
nodes = (
(58,97,o),
(240,-8,o),
(417,-8,cs),
(594,-8,o),
(776,97,o),
(776,351,cs),
(776,605,o),
(594,710,o),
(417,710,cs),
(240,710,o),
(58,605,o),
(58,351,cs)
);
},
{
ref = _ladder.caps;
}
);
width = 834;
}
);
unicode = 79;
},
{
color = 5;
glyphname = P;
lastChange = "2024-01-02 23:29:55 +0000";
layers = (
{
layerId = m01;
shapes = (
{
closed = 1;
nodes = (
(165,0,o),
(175,12,o),
(175,28,cs),
(175,324,l),
(365,324,ls),
(467,324,o),
(550,399,o),
(550,516,cs),
(550,632,o),
(467,700,o),
(355,700,cs),
(148,700,l),
(131,700,o),
(120,693,o),
(120,674,cs),
(120,373,l),
(75,373,ls),
(61,373,o),
(50,362,o),
(50,348,cs),
(50,335,o),
(61,324,o),
(74,324,cs),
(120,324,l),
(120,26,ls),
(120,10,o),
(129,0,o),
(147,0,cs)
);
},
{
closed = 1;
nodes = (
(175,650,l),
(360,650,ls),
(439,650,o),
(495,586,o),
(495,518,cs),
(495,449,o),
(439,373,o),
(370,373,cs),
(175,373,l)
);
},
{
pos = (-12,357);
ref = _kebab.short;
},
{
pos = (0,50);
ref = _chevron;
}
);
width = 580;
},
{
layerId = m002;
shapes = (
{
closed = 1;
nodes = (
(165,0,o),
(175,12,o),
(175,28,cs),
(175,324,l),
(365,324,ls),
(467,324,o),
(550,399,o),
(550,516,cs),
(550,632,o),
(467,700,o),
(355,700,cs),
(148,700,l),
(131,700,o),
(120,693,o),
(120,674,cs),
(120,373,l),
(75,373,ls),
(61,373,o),
(50,362,o),
(50,348,cs),
(50,335,o),
(61,324,o),
(74,324,cs),
(120,324,l),
(120,26,ls),
(120,10,o),
(129,0,o),
(147,0,cs)
);
},
{
closed = 1;
nodes = (
(175,650,l),
(360,650,ls),
(439,650,o),
(495,586,o),
(495,518,cs),
(495,449,o),
(439,373,o),
(370,373,cs),
(175,373,l)
);
},
{
pos = (-12,357);
ref = _kebab.short;
},
{
ref = _chevron;
}
);
width = 580;
},
{
guides = (
{
pos = (422,516);
showMeasurement = 1;
}
);
layerId = m003;
shapes = (
{
closed = 1;
nodes = (
(165,40,o),
(175,52,o),
(175,68,cs),
(175,324,l),
(365,324,ls),
(467,324,o),
(550,399,o),
(550,516,cs),
(550,632,o),
(467,700,o),
(355,700,cs),
(148,700,l),
(131,700,o),
(120,693,o),
(120,674,cs),
(120,373,l),
(75,373,ls),
(61,373,o),
(50,362,o),
(50,348,cs),
(50,335,o),
(61,324,o),
(74,324,cs),
(120,324,l),
(120,66,ls),
(120,50,o),
(129,40,o),
(147,40,cs)
);
},
{
closed = 1;
nodes = (
(175,650,l),
(360,650,ls),
(439,650,o),
(495,586,o),
(495,518,cs),
(495,449,o),
(439,373,o),
(370,373,cs),
(175,373,l)
);
},
{
closed = 1;
nodes = (
(289,339,o),
(295,347,o),
(295,357,cs),
(295,671,ls),
(295,682,o),
(289,687,o),
(277,687,cs),
(266,687,o),
(260,681,o),
(260,670,cs),
(260,356,ls),
(260,346,o),
(266,339,o),
(277,339,cs)
);
},
{
ref = _chevron;
},
{
pos = (-12,357);
ref = _kebab.short;
}
);
width = 580;
}
);
metricLeft = H;
unicode = 80;
},
{
color = 5;
glyphname = Q;
lastChange = "2024-01-01 22:09:56 +0000";
layers = (
{
layerId = m01;
shapes = (
{
closed = 1;
nodes = (
(598,-8,o),
(780,97,o),
(780,351,cs),
(780,605,o),
(598,710,o),
(421,710,cs),
(244,710,o),
(62,605,o),
(62,351,cs),
(62,97,o),
(244,-8,o),
(421,-8,cs)
);
},
{
closed = 1;
nodes = (
(746,14,o),
(750,20,o),
(750,27,cs),
(750,32,o),
(747,38,o),
(741,44,cs),
(586,199,ls),
(580,205,o),
(574,208,o),
(567,208,cs),
(561,208,o),
(555,205,o),
(550,200,cs),
(545,195,o),
(543,189,o),
(543,184,cs),
(543,177,o),
(546,171,o),
(552,165,cs),
(707,10,ls),
(713,4,o),
(719,1,o),
(725,1,cs),
(730,1,o),
(735,3,o),
(740,8,cs)
);
},
{
closed = 1;
nodes = (
(266,42,o),
(117,135,o),
(117,351,cs),
(117,567,o),
(266,660,o),
(421,660,cs),
(576,660,o),
(725,567,o),
(725,351,cs),
(725,135,o),
(576,42,o),
(421,42,cs)
);
},
{
ref = _ladder.caps;
}
);
width = 840;
},
{
layerId = m002;
shapes = (
{
closed = 1;
nodes = (
(598,-8,o),
(780,97,o),
(780,351,cs),
(780,605,o),
(598,710,o),
(421,710,cs),
(244,710,o),
(62,605,o),
(62,351,cs),
(62,97,o),
(244,-8,o),
(421,-8,cs)
);
},
{
closed = 1;
nodes = (
(746,14,o),
(750,20,o),
(750,27,cs),
(750,32,o),
(747,38,o),
(741,44,cs),
(586,199,ls),
(580,205,o),
(574,208,o),
(567,208,cs),
(561,208,o),
(555,205,o),
(550,200,cs),
(545,195,o),
(543,189,o),
(543,184,cs),
(543,177,o),
(546,171,o),
(552,165,cs),
(707,10,ls),
(713,4,o),
(719,1,o),
(725,1,cs),
(730,1,o),
(735,3,o),
(740,8,cs)
);
},
{
closed = 1;
nodes = (
(266,42,o),
(117,135,o),
(117,351,cs),
(117,567,o),
(266,660,o),
(421,660,cs),
(576,660,o),
(725,567,o),
(725,351,cs),
(725,135,o),
(576,42,o),
(421,42,cs)
);
},
{
ref = _ladder.caps;
}
);
width = 840;
},
{
layerId = m003;
shapes = (
{
closed = 1;
nodes = (
(598,-8,o),
(780,97,o),
(780,351,cs),
(780,605,o),
(598,710,o),
(421,710,cs),
(244,710,o),
(62,605,o),
(62,351,cs),
(62,97,o),
(244,-8,o),
(421,-8,cs)
);
},
{
closed = 1;
nodes = (
(746,14,o),
(750,20,o),
(750,27,cs),
(750,32,o),
(747,38,o),
(741,44,cs),
(586,199,ls),
(580,205,o),
(574,208,o),
(567,208,cs),
(561,208,o),
(555,205,o),
(550,200,cs),
(545,195,o),
(543,189,o),
(543,184,cs),
(543,177,o),
(546,171,o),
(552,165,cs),
(707,10,ls),
(713,4,o),
(719,1,o),
(725,1,cs),
(730,1,o),
(735,3,o),
(740,8,cs)
);
},
{
closed = 1;
nodes = (
(266,42,o),
(117,135,o),
(117,351,cs),
(117,567,o),
(266,660,o),
(421,660,cs),
(576,660,o),
(725,567,o),
(725,351,cs),
(725,135,o),
(576,42,o),
(421,42,cs)
);
},
{
ref = _ladder.caps;
}
);
width = 840;
}
);
unicode = 81;
},
{
color = 5;
glyphname = R;
lastChange = "2024-01-02 23:29:37 +0000";
layers = (
{
layerId = m01;
shapes = (
{
closed = 1;
nodes = (
(566,0,o),
(577,8,o),
(577,26,cs),
(577,30,o),
(577,34,o),
(539,215,cs),
(523,291,o),
(483,332,o),
(445,356,c),
(505,378,o),
(560,432,o),
(560,526,cs),
(560,642,o),
(477,700,o),
(355,700,cs),
(158,700,l),
(141,700,o),
(130,692,o),
(130,674,cs),
(130,393,l),
(75,393,ls),
(61,393,o),
(50,382,o),
(50,368,cs),
(50,355,o),
(61,344,o),
(74,344,cs),
(130,344,l),
(130,26,ls),
(130,10,o),
(139,0,o),
(157,0,cs),
(175,0,o),
(185,12,o),
(185,28,cs),
(185,344,l),
(316,344,ls),
(392,344,o),
(460,317,o),
(484,209,cs),
(524,26,ls),
(527,10,o),
(533,0,o),
(551,0,cs)
);
},
{
closed = 1;
nodes = (
(185,650,l),
(360,650,ls),
(449,650,o),
(505,596,o),
(505,528,cs),
(505,459,o),
(449,393,o),
(380,393,cs),
(185,393,l)
);
},
{
pos = (-12,367);
ref = _kebab.short;
},
{
pos = (396,50);
ref = _chevron;
},
{
pos = (16,50);
ref = _chevron;
}
);
width = 627;
},
{
layerId = m002;
shapes = (
{
closed = 1;
nodes = (
(566,0,o),
(577,8,o),
(577,26,cs),
(577,30,o),
(577,34,o),
(539,215,cs),
(523,291,o),
(483,332,o),
(445,356,c),
(505,378,o),
(560,432,o),
(560,526,cs),
(560,642,o),
(477,700,o),
(355,700,cs),
(158,700,l),
(141,700,o),
(130,692,o),
(130,674,cs),
(130,393,l),
(75,393,ls),
(61,393,o),
(50,382,o),
(50,368,cs),
(50,355,o),
(61,344,o),
(74,344,cs),
(130,344,l),
(130,26,ls),
(130,10,o),
(139,0,o),
(157,0,cs),
(175,0,o),
(185,12,o),
(185,28,cs),
(185,344,l),
(316,344,ls),
(392,344,o),
(460,317,o),
(484,209,cs),
(524,26,ls),
(527,10,o),
(533,0,o),
(551,0,cs)
);
},
{
closed = 1;
nodes = (
(185,650,l),
(360,650,ls),
(449,650,o),
(505,596,o),
(505,528,cs),
(505,459,o),
(449,393,o),
(380,393,cs),
(185,393,l)
);
},
{
pos = (-12,367);
ref = _kebab.short;
},
{
pos = (399,0);
ref = _chevron;
},
{
pos = (16,0);
ref = _chevron;
}
);
width = 627;
},
{
layerId = m003;
shapes = (
{
closed = 1;
nodes = (
(558,38,o),
(569,46,o),
(569,64,cs),
(569,68,o),
(577,34,o),
(539,215,cs),
(523,291,o),
(483,332,o),
(445,356,c),
(505,378,o),
(560,432,o),
(560,526,cs),
(560,642,o),
(477,700,o),
(355,700,cs),
(158,700,l),
(141,700,o),
(130,692,o),
(130,674,cs),
(130,393,l),
(75,393,ls),
(61,393,o),
(50,382,o),
(50,368,cs),
(50,355,o),
(61,344,o),
(74,344,cs),
(130,344,l),
(130,66,ls),
(130,50,o),
(139,40,o),
(157,40,cs),
(175,40,o),
(185,52,o),
(185,68,cs),
(185,344,l),
(316,344,ls),
(392,344,o),
(460,317,o),
(484,209,cs),
(516,64,ls),
(520,48,o),
(525,38,o),
(543,38,cs)
);
},
{
closed = 1;
nodes = (
(185,650,l),
(360,650,ls),
(449,650,o),
(505,596,o),
(505,528,cs),
(505,459,o),
(449,393,o),
(380,393,cs),
(185,393,l)
);
},
{
pos = (390,0);
ref = _chevron;
},
{
pos = (-12,367);
ref = _kebab.short;
},
{
pos = (16,0);
ref = _chevron;
}
);
width = 627;
}
);
metricLeft = H;
unicode = 82;
},
{
color = 5;
glyphname = S;
lastChange = "2023-12-20 15:10:56 +0000";
layers = (
{
layerId = m01;
shapes = (
{
closed = 1;
nodes = (
(442,-10,o),
(542,62,o),
(542,190,cs),
(542,437,o),
(137,328,o),
(137,526,cs),
(137,612,o),
(228,655,o),
(302,655,cs),
(376,655,o),
(432,612,o),
(450,574,cs),
(458,557,o),
(466,546,o),
(484,545,cs),
(486,545,o),
(489,545,o),
(492,546,cs),
(502,548,o),
(509,554,o),
(509,569,cs),
(509,573,o),
(508,578,o),
(507,582,cs),
(488,657,o),
(397,710,o),
(302,710,cs),
(199,710,o),
(84,646,o),
(84,525,cs),
(84,277,o),
(492,378,o),
(492,190,cs),
(492,102,o),
(396,45,o),
(299,45,cs),
(218,45,o),
(135,85,o),
(117,163,cs),
(112,184,o),
(104,195,o),
(85,195,cs),
(69,195,o),
(60,187,o),
(60,171,cs),
(60,167,o),
(60,163,o),
(61,159,cs),
(84,23,o),
(217,-10,o),
(304,-10,cs)
);
},
{
pos = (-42,369);
ref = _kebab.short;
},
{
pos = (94,25);
ref = _kebab.short;
}
);
width = 602;
},
{
layerId = m002;
shapes = (
{
closed = 1;
nodes = (
(442,-10,o),
(542,62,o),
(542,190,cs),
(542,437,o),
(137,328,o),
(137,526,cs),
(137,612,o),
(228,655,o),
(302,655,cs),
(376,655,o),
(432,612,o),
(450,574,cs),
(458,557,o),
(466,546,o),
(484,545,cs),
(486,545,o),
(489,545,o),
(492,546,cs),
(502,548,o),
(509,554,o),
(509,569,cs),
(509,573,o),
(508,578,o),
(507,582,cs),
(488,657,o),
(397,710,o),
(302,710,cs),
(199,710,o),
(84,646,o),
(84,525,cs),
(84,277,o),
(492,378,o),
(492,190,cs),
(492,102,o),
(396,45,o),
(299,45,cs),
(218,45,o),
(135,85,o),
(117,163,cs),
(112,184,o),
(104,195,o),
(85,195,cs),
(69,195,o),
(60,187,o),
(60,171,cs),
(60,167,o),
(60,163,o),
(61,159,cs),
(84,23,o),
(217,-10,o),
(304,-10,cs)
);
},
{
pos = (-42,369);
ref = _kebab.short;
},
{
pos = (94,25);
ref = _kebab.short;
}
);
width = 602;
},
{
layerId = m003;
shapes = (
{
closed = 1;
nodes = (
(442,-10,o),
(542,62,o),
(542,190,cs),
(542,437,o),
(137,328,o),
(137,526,cs),
(137,612,o),
(228,655,o),
(302,655,cs),
(376,655,o),
(432,612,o),
(450,574,cs),
(458,557,o),
(466,546,o),
(484,545,cs),
(486,545,o),
(489,545,o),
(492,546,cs),
(502,548,o),
(509,554,o),
(509,569,cs),
(509,573,o),
(508,578,o),
(507,582,cs),
(488,657,o),
(397,710,o),
(302,710,cs),
(199,710,o),
(84,646,o),
(84,525,cs),
(84,277,o),
(492,378,o),
(492,190,cs),
(492,102,o),
(396,45,o),
(299,45,cs),
(218,45,o),
(135,85,o),
(117,163,cs),
(112,184,o),
(104,195,o),
(85,195,cs),
(69,195,o),
(60,187,o),
(60,171,cs),
(60,167,o),
(60,163,o),
(61,159,cs),
(84,23,o),
(217,-10,o),
(304,-10,cs)
);
},
{
pos = (-42,369);
ref = _kebab.short;
},
{
pos = (94,25);
ref = _kebab.short;
}
);
width = 602;
}
);
unicode = 83;
},
{
color = 5;
glyphname = T;
lastChange = "2024-01-01 22:09:38 +0000";
layers = (
{
layerId = m01;
shapes = (
{
closed = 1;
nodes = (
(348,0,o),
(358,12,o),
(358,28,c),
(358,676,l),
(358,692,o),
(348,700,o),
(330,700,c),
(312,700,o),
(303,691,o),
(303,674,c),
(303,455,o),
(303,245,o),
(303,26,c),
(303,10,o),
(312,0,o),
(330,0,c)
);
},
{
closed = 1;
nodes = (
(584,650,ls),
(610,650,o),
(620,659,o),
(620,675,cs),
(620,691,o),
(610,700,o),
(594,700,cs),
(66,700,ls),
(50,700,o),
(40,691,o),
(40,675,cs),
(40,659,o),
(49,650,o),
(66,650,cs)
);
},
{
ref = _bones.short;
},
{
pos = (183,50);
ref = _chevron;
}
);
width = 660;
},
{
layerId = m002;
shapes = (
{
closed = 1;
nodes = (
(348,6,o),
(358,18,o),
(358,34,c),
(358,676,l),
(358,692,o),
(348,700,o),
(330,700,c),
(312,700,o),
(303,691,o),
(303,674,c),
(303,455,o),
(303,251,o),
(303,32,c),
(303,16,o),
(312,6,o),
(330,6,c)
);
},
{
closed = 1;
nodes = (
(584,650,ls),
(610,650,o),
(620,659,o),
(620,675,cs),
(620,691,o),
(610,700,o),
(594,700,cs),
(66,700,ls),
(50,700,o),
(40,691,o),
(40,675,cs),
(40,659,o),
(49,650,o),
(66,650,cs)
);
},
{
ref = _bones.short;
},
{
pos = (183,0);
ref = _chevron;
}
);
width = 660;
},
{
layerId = m003;
shapes = (
{
closed = 1;
nodes = (
(348,36,o),
(358,48,o),
(358,64,c),
(358,676,l),
(358,692,o),
(348,700,o),
(330,700,c),
(312,700,o),
(303,691,o),
(303,674,c),
(303,455,o),
(303,281,o),
(303,62,c),
(303,46,o),
(312,36,o),
(330,36,c)
);
},
{
closed = 1;
nodes = (
(584,650,ls),
(610,650,o),
(620,659,o),
(620,675,cs),
(620,691,o),
(610,700,o),
(594,700,cs),
(66,700,ls),
(50,700,o),
(40,691,o),
(40,675,cs),
(40,659,o),
(49,650,o),
(66,650,cs)
);
},
{
ref = _bones.short;
},
{
pos = (183,0);
ref = _chevron;
}
);
width = 660;
}
);
unicode = 84;
},
{
color = 5;
glyphname = U;
lastChange = "2023-12-26 11:21:49 +0000";
layers = (
{
layerId = m01;
shapes = (
{
closed = 1;
nodes = (
(465,-10,o),
(552,118,o),
(552,337,cs),
(552,676,ls),
(552,692,o),
(542,700,o),
(524,700,cs),
(506,700,o),
(497,691,o),
(497,674,cs),
(497,350,ls),
(497,166,o),
(435,40,o),
(300,40,cs),
(164,40,o),
(100,167,o),
(100,351,cs),
(100,676,ls),
(100,692,o),
(90,700,o),
(72,700,cs),
(54,700,o),
(45,691,o),
(45,674,c),
(45,334,ls),
(45,108,o),
(135,-10,o),
(300,-10,cs)
);
},
{
pos = (196,150);
ref = _Bristles.large;
},
{
pos = (-159,150);
ref = _Bristles.large;
}
);
width = 597;
},
{
layerId = m002;
shapes = (
{
closed = 1;
nodes = (
(465,-10,o),
(552,118,o),
(552,337,cs),
(552,676,ls),
(552,692,o),
(542,700,o),
(524,700,cs),
(506,700,o),
(497,691,o),
(497,674,cs),
(497,350,ls),
(497,166,o),
(435,40,o),
(300,40,cs),
(164,40,o),
(100,167,o),
(100,351,cs),
(100,676,ls),
(100,692,o),
(90,700,o),
(72,700,cs),
(54,700,o),
(45,691,o),
(45,674,c),
(45,334,ls),
(45,108,o),
(135,-10,o),
(300,-10,cs)
);
},
{
pos = (196,150);
ref = _Bristles.large;
},
{
pos = (-159,150);
ref = _Bristles.large;
}
);
width = 597;
},
{
background = {
shapes = (
{
closed = 1;
nodes = (
(507,-10,o),
(594,118,o),
(594,337,cs),
(594,636,ls),
(594,652,o),
(584,660,o),
(566,660,cs),
(548,660,o),
(539,651,o),
(539,634,cs),
(539,350,ls),
(539,166,o),
(477,40,o),
(342,40,cs),
(206,40,o),
(142,167,o),
(142,351,cs),
(142,636,ls),
(142,652,o),
(132,660,o),
(114,660,cs),
(96,660,o),
(87,651,o),
(87,634,c),
(87,334,ls),
(87,108,o),
(177,-10,o),
(342,-10,cs)
);
},
{
closed = 1;
nodes = (
(130,632,o),
(129,646,o),
(118,657,cs),
(84,691,ls),
(73,702,o),
(59,703,o),
(48,692,cs),
(37,680,o),
(37,668,o),
(49,656,cs),
(83,622,ls),
(95,610,o),
(107,610,o),
(119,621,cs)
);
},
{
closed = 1;
nodes = (
(113,610,o),
(125,610,o),
(137,622,cs),
(171,656,ls),
(183,668,o),
(183,680,o),
(172,692,cs),
(161,703,o),
(147,702,o),
(136,691,cs),
(102,657,ls),
(91,646,o),
(90,632,o),
(101,621,cs)
);
},
{
closed = 1;
nodes = (
(591,632,o),
(590,646,o),
(579,657,cs),
(545,691,ls),
(534,702,o),
(520,703,o),
(509,692,cs),
(498,680,o),
(498,668,o),
(510,656,cs),
(544,622,ls),
(556,610,o),
(568,610,o),
(580,621,cs)
);
},
{
closed = 1;
nodes = (
(574,610,o),
(586,610,o),
(598,622,cs),
(632,656,ls),
(644,668,o),
(644,680,o),
(633,692,cs),
(622,703,o),
(608,702,o),
(597,691,cs),
(563,657,ls),
(552,646,o),
(551,632,o),
(562,621,cs)
);
}
);
};
layerId = m003;
shapes = (
{
closed = 1;
nodes = (
(465,-10,o),
(552,118,o),
(552,337,cs),
(552,676,ls),
(552,692,o),
(542,700,o),
(524,700,cs),
(506,700,o),
(497,691,o),
(497,674,cs),
(497,350,ls),
(497,166,o),
(435,40,o),
(300,40,cs),
(164,40,o),
(100,167,o),
(100,351,cs),
(100,676,ls),
(100,692,o),
(90,700,o),
(72,700,cs),
(54,700,o),
(45,691,o),
(45,674,c),
(45,334,ls),
(45,108,o),
(135,-10,o),
(300,-10,cs)
);
},
{
pos = (196,150);
ref = _Bristles.large;
},
{
pos = (-159,150);
ref = _Bristles.large;
}
);
width = 597;
}
);
unicode = 85;
},
{
color = 5;
glyphname = V;
lastChange = "2023-12-26 13:27:26 +0000";
layers = (
{
layerId = m01;
shapes = (
{
closed = 1;
nodes = (
(349,-10,o),
(360,-4,o),
(367,16,cs),
(597,665,ls),
(599,670,o),
(600,674,o),
(600,681,cs),
(600,687,o),
(594,694,o),
(585,698,cs),
(580,700,o),
(576,700,o),
(572,700,cs),
(562,700,o),
(554,694,o),
(550,682,cs),
(330,63,ls),
(329,59,o),
(327,58,o),
(325,58,cs),
(323,58,o),
(321,60,o),
(320,63,cs),
(93,682,ls),
(89,693,o),
(81,699,o),
(72,699,cs),
(66,699,o),
(62,699,o),
(54,695,cs),
(46,691,o),
(39,685,o),
(39,677,cs),
(39,671,o),
(40,667,o),
(42,663,cs),
(279,16,ls),
(286,-4,o),
(303,-10,o),
(325,-10,cs)
);
},
{
angle = -20;
pos = (81,295);
ref = _Bristles.large;
},
{
angle = -160;
pos = (560,295);
ref = _Bristles.large;
scale = (1,-1);
}
);
width = 639;
},
{
layerId = m002;
shapes = (
{
closed = 1;
nodes = (
(349,-10,o),
(360,-4,o),
(367,16,cs),
(597,665,ls),
(599,670,o),
(600,674,o),
(600,681,cs),
(600,687,o),
(594,694,o),
(585,698,cs),
(580,700,o),
(576,700,o),
(572,700,cs),
(562,700,o),
(554,694,o),
(550,682,cs),
(330,63,ls),
(329,59,o),
(327,58,o),
(325,58,cs),
(323,58,o),
(321,60,o),
(320,63,cs),
(93,682,ls),
(89,693,o),
(81,699,o),
(72,699,cs),
(66,699,o),
(62,699,o),
(54,695,cs),
(46,691,o),
(39,685,o),
(39,677,cs),
(39,671,o),
(40,667,o),
(42,663,cs),
(279,16,ls),
(286,-4,o),
(303,-10,o),
(325,-10,cs)
);
},
{
angle = -160;
pos = (560,295);
ref = _Bristles.large;
scale = (1,-1);
},
{
angle = -20;
pos = (81,295);
ref = _Bristles.large;
}
);
width = 639;
},
{
layerId = m003;
shapes = (
{
closed = 1;
nodes = (
(349,-10,o),
(360,-4,o),
(367,16,cs),
(597,665,ls),
(599,670,o),
(600,674,o),
(600,681,cs),
(600,687,o),
(594,694,o),
(585,698,cs),
(580,700,o),
(576,700,o),
(572,700,cs),
(562,700,o),
(554,694,o),
(550,682,cs),
(330,63,ls),
(329,59,o),
(327,58,o),
(325,58,cs),
(323,58,o),
(321,60,o),
(320,63,cs),
(93,682,ls),
(89,693,o),
(81,699,o),
(72,699,cs),
(66,699,o),
(62,699,o),
(54,695,cs),
(46,691,o),
(39,685,o),
(39,677,cs),
(39,671,o),
(40,667,o),
(42,663,cs),
(279,16,ls),
(286,-4,o),
(303,-10,o),
(325,-10,cs)
);
},
{
angle = -160;
pos = (560,295);
ref = _Bristles.large;
scale = (1,-1);
},
{
angle = -20;
pos = (81,295);
ref = _Bristles.large;
}
);
width = 639;
}
);
unicode = 86;
},
{
color = 5;
glyphname = W;
lastChange = "2024-01-03 21:25:20 +0000";
layers = (
{
layerId = m01;
shapes = (
{
closed = 1;
nodes = (
(309,-10,o),
(320,-4,o),
(327,16,cs),
(461,399,l),
(598,16,ls),
(605,-4,o),
(622,-10,o),
(644,-10,cs),
(668,-10,o),
(679,-4,o),
(686,16,cs),
(916,664,ls),
(917,668,o),
(918,672,o),
(918,676,cs),
(918,686,o),
(913,693,o),
(903,697,cs),
(899,699,o),
(895,699,o),
(891,699,cs),
(881,699,o),
(873,693,o),
(869,681,cs),
(649,63,ls),
(648,59,o),
(646,58,o),
(644,58,cs),
(642,58,o),
(640,60,o),
(639,63,cs),
(490,478,l),
(557,665,ls),
(559,670,o),
(560,674,o),
(560,678,cs),
(559,687,o),
(554,694,o),
(545,698,cs),
(540,700,o),
(536,700,o),
(532,700,cs),
(522,700,o),
(514,694,o),
(510,682,cs),
(469,568,ls),
(468,565,o),
(465,564,o),
(463,564,cs),
(460,564,o),
(458,566,o),
(457,568,cs),
(412,683,ls),
(408,694,o),
(400,700,o),
(389,700,cs),
(377,700,o),
(359,691,o),
(359,676,cs),
(359,672,o),
(360,667,o),
(434,472,c),
(290,63,ls),
(289,59,o),
(287,58,o),
(285,58,cs),
(283,58,o),
(281,60,o),
(280,63,cs),
(53,691,ls),
(49,702,o),
(41,708,o),
(32,708,cs),
(28,708,o),
(22,708,o),
(17,706,cs),
(6,702,o),
(0,694,o),
(0,684,cs),
(0,682,o),
(0,676,o),
(2,672,cs),
(239,16,ls),
(246,-4,o),
(263,-10,o),
(285,-10,cs)
);
},
{
angle = 20;
pos = (-4,109);
ref = _Bristles.large;
},
{
angle = 160;
pos = (929,109);
ref = _Bristles.large;
scale = (1,-1);
},
{
pos = (130,113);
ref = _bones.short;
}
);
width = 918;
},
{
layerId = m002;
shapes = (
{
closed = 1;
nodes = (
(309,-10,o),
(320,-4,o),
(327,16,cs),
(461,399,l),
(598,16,ls),
(605,-4,o),
(622,-10,o),
(644,-10,cs),
(668,-10,o),
(679,-4,o),
(686,16,cs),
(916,664,ls),
(917,668,o),
(918,672,o),
(918,676,cs),
(918,686,o),
(913,693,o),
(903,697,cs),
(899,699,o),
(895,699,o),
(891,699,cs),
(881,699,o),
(873,693,o),
(869,681,cs),
(649,63,ls),
(648,59,o),
(646,58,o),
(644,58,cs),
(642,58,o),
(640,60,o),
(639,63,cs),
(490,478,l),
(557,665,ls),
(559,670,o),
(560,674,o),
(560,678,cs),
(559,687,o),
(554,694,o),
(545,698,cs),
(540,700,o),
(536,700,o),
(532,700,cs),
(522,700,o),
(514,694,o),
(510,682,cs),
(469,568,ls),
(468,565,o),
(465,564,o),
(463,564,cs),
(460,564,o),
(458,566,o),
(457,568,cs),
(412,683,ls),
(408,694,o),
(400,700,o),
(389,700,cs),
(377,700,o),
(359,691,o),
(359,676,cs),
(359,672,o),
(360,667,o),
(434,472,c),
(290,63,ls),
(289,59,o),
(287,58,o),
(285,58,cs),
(283,58,o),
(281,60,o),
(280,63,cs),
(53,691,ls),
(49,702,o),
(41,708,o),
(32,708,cs),
(28,708,o),
(22,708,o),
(17,706,cs),
(6,702,o),
(0,694,o),
(0,684,cs),
(0,682,o),
(0,676,o),
(2,672,cs),
(239,16,ls),
(246,-4,o),
(263,-10,o),
(285,-10,cs)
);
},
{
angle = 20;
pos = (-4,109);
ref = _Bristles.large;
},
{
angle = 160;
pos = (929,109);
ref = _Bristles.large;
scale = (1,-1);
}
);
width = 918;
},
{
layerId = m003;
shapes = (
{
closed = 1;
nodes = (
(309,-10,o),
(320,-4,o),
(327,16,cs),
(461,399,l),
(598,16,ls),
(605,-4,o),
(622,-10,o),
(644,-10,cs),
(668,-10,o),
(679,-4,o),
(686,16,cs),
(916,664,ls),
(917,668,o),
(918,672,o),
(918,676,cs),
(918,686,o),
(913,693,o),
(903,697,cs),
(899,699,o),
(895,699,o),
(891,699,cs),
(881,699,o),
(873,693,o),
(869,681,cs),
(649,63,ls),
(648,59,o),
(646,58,o),
(644,58,cs),
(642,58,o),
(640,60,o),
(639,63,cs),
(490,478,l),
(557,665,ls),
(559,670,o),
(560,674,o),
(560,678,cs),
(559,687,o),
(554,694,o),
(545,698,cs),
(540,700,o),
(536,700,o),
(532,700,cs),
(522,700,o),
(514,694,o),
(510,682,cs),
(469,568,ls),
(468,565,o),
(465,564,o),
(463,564,cs),
(460,564,o),
(458,566,o),
(457,568,cs),
(412,683,ls),
(408,694,o),
(400,700,o),
(389,700,cs),
(377,700,o),
(359,691,o),
(359,676,cs),
(359,672,o),
(360,667,o),
(434,472,c),
(290,63,ls),
(289,59,o),
(287,58,o),
(285,58,cs),
(283,58,o),
(281,60,o),
(280,63,cs),
(53,691,ls),
(49,702,o),
(41,708,o),
(32,708,cs),
(28,708,o),
(22,708,o),
(17,706,cs),
(6,702,o),
(0,694,o),
(0,684,cs),
(0,682,o),
(0,676,o),
(2,672,cs),
(239,16,ls),
(246,-4,o),
(263,-10,o),
(285,-10,cs)
);
},
{
angle = 20;
pos = (-4,109);
ref = _Bristles.large;
},
{
angle = 160;
pos = (929,109);
ref = _Bristles.large;
scale = (1,-1);
}
);
width = 918;
}
);
unicode = 87;
},
{
color = 5;
glyphname = X;
lastChange = "2024-01-01 21:25:48 +0000";
layers = (
{
layerId = m01;
shapes = (
{
closed = 1;
nodes = (
(84,0,o),
(92,5,o),
(98,13,cs),
(305,309,l),
(380,202,o),
(455,95,o),
(513,11,cs),
(518,4,o),
(525,0,o),
(532,0,cs),
(537,0,o),
(543,2,o),
(549,6,cs),
(558,12,o),
(562,20,o),
(562,28,cs),
(562,34,o),
(560,40,o),
(556,45,cs),
(343,349,l),
(561,661,ls),
(564,665,o),
(566,670,o),
(566,674,cs),
(566,682,o),
(562,689,o),
(553,695,cs),
(548,699,o),
(543,700,o),
(538,700,cs),
(531,700,o),
(524,695,o),
(518,687,cs),
(460,605,o),
(386,499,o),
(312,393,c),
(104,690,ls),
(99,697,o),
(93,700,o),
(86,700,cs),
(81,700,o),
(75,698,o),
(68,694,cs),
(59,688,o),
(55,681,o),
(55,673,cs),
(55,668,o),
(57,663,o),
(61,657,cs),
(122,572,o),
(198,463,o),
(274,353,c),
(55,40,ls),
(51,34,o),
(49,28,o),
(49,23,cs),
(49,16,o),
(53,10,o),
(61,5,cs),
(66,2,o),
(70,0,o),
(75,0,cs)
);
},
{
angle = 35;
pos = (336,-45);
ref = _Bristles.small;
},
{
angle = 145;
pos = (28,-565);
ref = _Bristles.small;
scale = (1,-1);
},
{
angle = 145;
pos = (286,-45);
ref = _Bristles.small;
scale = (1,-1);
},
{
angle = 35;
pos = (584,-565);
ref = _Bristles.small;
}
);
width = 615;
},
{
layerId = m002;
shapes = (
{
closed = 1;
nodes = (
(84,0,o),
(92,5,o),
(98,13,cs),
(305,309,l),
(380,202,o),
(455,95,o),
(513,11,cs),
(518,4,o),
(525,0,o),
(532,0,cs),
(537,0,o),
(543,2,o),
(549,6,cs),
(558,12,o),
(562,20,o),
(562,28,cs),
(562,34,o),
(560,40,o),
(556,45,cs),
(343,349,l),
(561,661,ls),
(564,665,o),
(566,670,o),
(566,674,cs),
(566,682,o),
(562,689,o),
(553,695,cs),
(548,699,o),
(543,700,o),
(538,700,cs),
(531,700,o),
(524,695,o),
(518,687,cs),
(460,605,o),
(386,499,o),
(312,393,c),
(104,690,ls),
(99,697,o),
(93,700,o),
(86,700,cs),
(81,700,o),
(75,698,o),
(68,694,cs),
(59,688,o),
(55,681,o),
(55,673,cs),
(55,668,o),
(57,663,o),
(61,657,cs),
(122,572,o),
(198,463,o),
(274,353,c),
(55,40,ls),
(51,34,o),
(49,28,o),
(49,23,cs),
(49,16,o),
(53,10,o),
(61,5,cs),
(66,2,o),
(70,0,o),
(75,0,cs)
);
},
{
angle = 35;
pos = (336,-45);
ref = _Bristles.small;
},
{
angle = 145;
pos = (28,-565);
ref = _Bristles.small;
scale = (1,-1);
},
{
angle = 145;
pos = (286,-45);
ref = _Bristles.small;
scale = (1,-1);
},
{
angle = 35;
pos = (584,-565);
ref = _Bristles.small;
}
);
width = 615;
},
{
layerId = m003;
shapes = (
{
closed = 1;
nodes = (
(84,0,o),
(92,5,o),
(98,13,cs),
(305,309,l),
(380,202,o),
(455,95,o),
(513,11,cs),
(518,4,o),
(525,0,o),
(532,0,cs),
(537,0,o),
(543,2,o),
(549,6,cs),
(558,12,o),
(562,20,o),
(562,28,cs),
(562,34,o),
(560,40,o),
(556,45,cs),
(343,349,l),
(561,661,ls),
(564,665,o),
(566,670,o),
(566,674,cs),
(566,682,o),
(562,689,o),
(553,695,cs),
(548,699,o),
(543,700,o),
(538,700,cs),
(531,700,o),
(524,695,o),
(518,687,cs),
(460,605,o),
(386,499,o),
(312,393,c),
(104,690,ls),
(99,697,o),
(93,700,o),
(86,700,cs),
(81,700,o),
(75,698,o),
(68,694,cs),
(59,688,o),
(55,681,o),
(55,673,cs),
(55,668,o),
(57,663,o),
(61,657,cs),
(122,572,o),
(198,463,o),
(274,353,c),
(55,40,ls),
(51,34,o),
(49,28,o),
(49,23,cs),
(49,16,o),
(53,10,o),
(61,5,cs),
(66,2,o),
(70,0,o),
(75,0,cs)
);
},
{
angle = 35;
pos = (336,-45);
ref = _Bristles.small;
},
{
angle = 145;
pos = (38,-565);
ref = _Bristles.small;
scale = (1,-1);
},
{
angle = 145;
pos = (286,-45);
ref = _Bristles.small;
scale = (1,-1);
},
{
angle = 35;
pos = (584,-565);
ref = _Bristles.small;
}
);
width = 615;
}
);
unicode = 88;
},
{
color = 5;
glyphname = Y;
lastChange = "2024-01-05 21:07:27 +0000";
layers = (
{
layerId = m01;
shapes = (
{
closed = 1;
nodes = (
(291,0,o),
(301,12,o),
(301,28,c),
(301,350,l),
(301,366,o),
(291,374,o),
(273,374,c),
(255,374,o),
(246,365,o),
(246,348,c),
(246,129,o),
(246,245,o),
(246,26,c),
(246,10,o),
(255,0,o),
(273,0,c)
);
},
{
pos = (126,50);
ref = _chevron;
},
{
closed = 1;
nodes = (
(270,290,l),
(521,661,ls),
(524,665,o),
(526,670,o),
(526,674,cs),
(526,682,o),
(522,689,o),
(513,695,cs),
(508,699,o),
(503,700,o),
(498,700,cs),
(491,700,o),
(484,695,o),
(478,687,c),
(273,385,l),
(64,690,ls),
(59,697,o),
(53,700,o),
(46,700,cs),
(41,700,o),
(35,698,o),
(28,694,cs),
(19,688,o),
(15,681,o),
(15,673,cs),
(15,668,o),
(17,663,o),
(21,657,c)
);
},
{
angle = 35;
pos = (291,-50);
ref = _Bristles.small;
},
{
angle = 145;
pos = (250,-50);
ref = _Bristles.small;
scale = (1,-1);
},
{
pos = (-59,-67);
ref = _bones.short;
}
);
width = 547;
},
{
layerId = m002;
shapes = (
{
closed = 1;
nodes = (
(291,16,o),
(301,28,o),
(301,44,c),
(301,360,l),
(301,376,o),
(291,384,o),
(273,384,c),
(255,384,o),
(246,375,o),
(246,358,c),
(246,139,o),
(246,261,o),
(246,42,c),
(246,26,o),
(255,16,o),
(273,16,c)
);
},
{
closed = 1;
nodes = (
(270,290,l),
(521,661,ls),
(524,665,o),
(526,670,o),
(526,674,cs),
(526,682,o),
(522,689,o),
(513,695,cs),
(508,699,o),
(503,700,o),
(498,700,cs),
(491,700,o),
(484,695,o),
(478,687,c),
(273,385,l),
(64,690,ls),
(59,697,o),
(53,700,o),
(46,700,cs),
(41,700,o),
(35,698,o),
(28,694,cs),
(19,688,o),
(15,681,o),
(15,673,cs),
(15,668,o),
(17,663,o),
(21,657,c)
);
},
{
pos = (126,0);
ref = _chevron;
},
{
angle = 35;
pos = (291,-50);
ref = _Bristles.small;
},
{
angle = 145;
pos = (250,-50);
ref = _Bristles.small;
scale = (1,-1);
},
{
pos = (-59,-67);
ref = _bones.short;
}
);
width = 547;
},
{
layerId = m003;
shapes = (
{
closed = 1;
nodes = (
(291,36,o),
(301,48,o),
(301,64,c),
(301,360,l),
(301,376,o),
(291,384,o),
(273,384,c),
(255,384,o),
(246,375,o),
(246,358,c),
(246,139,o),
(246,281,o),
(246,62,c),
(246,46,o),
(255,36,o),
(273,36,c)
);
},
{
pos = (126,0);
ref = _chevron;
},
{
angle = 35;
pos = (291,-50);
ref = _Bristles.small;
},
{
closed = 1;
nodes = (
(270,290,l),
(521,661,ls),
(524,665,o),
(526,670,o),
(526,674,cs),
(526,682,o),
(522,689,o),
(513,695,cs),
(508,699,o),
(503,700,o),
(498,700,cs),
(491,700,o),
(484,695,o),
(478,687,c),
(273,385,l),
(64,690,ls),
(59,697,o),
(53,700,o),
(46,700,cs),
(41,700,o),
(35,698,o),
(28,694,cs),
(19,688,o),
(15,681,o),
(15,673,cs),
(15,668,o),
(17,663,o),
(21,657,c)
);
},
{
angle = 145;
pos = (250,-50);
ref = _Bristles.small;
scale = (1,-1);
},
{
pos = (-59,-67);
ref = _bones.short;
}
);
width = 547;
}
);
unicode = 89;
},
{
color = 5;
glyphname = Z;
lastChange = "2024-01-01 22:11:41 +0000";
layers = (
{
layerId = m01;
shapes = (
{
closed = 1;
nodes = (
(77,10,o),
(85,15,o),
(91,23,cs),
(535,660,ls),
(538,664,o),
(540,669,o),
(540,673,cs),
(540,681,o),
(536,688,o),
(527,694,cs),
(522,698,o),
(517,699,o),
(512,699,cs),
(505,699,o),
(498,694,o),
(492,686,c),
(45,41,ls),
(41,35,o),
(46,20,o),
(54,15,cs),
(59,12,o),
(63,10,o),
(68,10,cs)
);
},
{
closed = 1;
nodes = (
(514,0,ls),
(530,0,o),
(540,9,o),
(540,25,cs),
(540,41,o),
(530,50,o),
(514,50,cs),
(66,50,ls),
(50,50,o),
(40,41,o),
(40,25,cs),
(40,9,o),
(49,0,o),
(66,0,cs)
);
},
{
closed = 1;
nodes = (
(531,0,o),
(540,10,o),
(540,26,cs),
(540,109,ls),
(540,125,o),
(531,135,o),
(515,135,cs),
(499,135,o),
(490,125,o),
(490,109,cs),
(490,26,ls),
(490,10,o),
(499,0,o),
(515,0,cs)
);
},
{
closed = 1;
nodes = (
(82,565,o),
(91,575,o),
(91,591,cs),
(91,674,ls),
(91,690,o),
(82,700,o),
(66,700,cs),
(50,700,o),
(41,690,o),
(41,674,cs),
(41,591,ls),
(41,575,o),
(50,565,o),
(66,565,cs)
);
},
{
closed = 1;
nodes = (
(504,650,ls),
(530,650,o),
(540,659,o),
(540,675,cs),
(540,691,o),
(530,700,o),
(514,700,cs),
(66,700,ls),
(50,700,o),
(40,691,o),
(40,675,cs),
(40,659,o),
(49,650,o),
(66,650,cs)
);
},
{
angle = -35;
pos = (-146,279);
ref = _ladder.caps;
}
);
width = 580;
},
{
layerId = m002;
shapes = (
{
closed = 1;
nodes = (
(77,10,o),
(85,15,o),
(91,23,cs),
(535,660,ls),
(538,664,o),
(540,669,o),
(540,673,cs),
(540,681,o),
(536,688,o),
(527,694,cs),
(522,698,o),
(517,699,o),
(512,699,cs),
(505,699,o),
(498,694,o),
(492,686,c),
(45,41,ls),
(41,35,o),
(46,20,o),
(54,15,cs),
(59,12,o),
(63,10,o),
(68,10,cs)
);
},
{
closed = 1;
nodes = (
(514,0,ls),
(530,0,o),
(540,9,o),
(540,25,cs),
(540,41,o),
(530,50,o),
(514,50,cs),
(66,50,ls),
(50,50,o),
(40,41,o),
(40,25,cs),
(40,9,o),
(49,0,o),
(66,0,cs)
);
},
{
closed = 1;
nodes = (
(531,0,o),
(540,10,o),
(540,26,cs),
(540,109,ls),
(540,125,o),
(531,135,o),
(515,135,cs),
(499,135,o),
(490,125,o),
(490,109,cs),
(490,26,ls),
(490,10,o),
(499,0,o),
(515,0,cs)
);
},
{
closed = 1;
nodes = (
(82,565,o),
(91,575,o),
(91,591,cs),
(91,674,ls),
(91,690,o),
(82,700,o),
(66,700,cs),
(50,700,o),
(41,690,o),
(41,674,cs),
(41,591,ls),
(41,575,o),
(50,565,o),
(66,565,cs)
);
},
{
closed = 1;
nodes = (
(504,650,ls),
(530,650,o),
(540,659,o),
(540,675,cs),
(540,691,o),
(530,700,o),
(514,700,cs),
(66,700,ls),
(50,700,o),
(40,691,o),
(40,675,cs),
(40,659,o),
(49,650,o),
(66,650,cs)
);
},
{
angle = -35;
pos = (-146,279);
ref = _ladder.caps;
}
);
width = 580;
},
{
layerId = m003;
shapes = (
{
closed = 1;
nodes = (
(77,10,o),
(85,15,o),
(91,23,cs),
(535,660,ls),
(538,664,o),
(540,669,o),
(540,673,cs),
(540,681,o),
(536,688,o),
(527,694,cs),
(522,698,o),
(517,699,o),
(512,699,cs),
(505,699,o),
(498,694,o),
(492,686,c),
(45,41,ls),
(41,35,o),
(46,20,o),
(54,15,cs),
(59,12,o),
(63,10,o),
(68,10,cs)
);
},
{
closed = 1;
nodes = (
(514,0,ls),
(530,0,o),
(540,9,o),
(540,25,cs),
(540,41,o),
(530,50,o),
(514,50,cs),
(66,50,ls),
(50,50,o),
(40,41,o),
(40,25,cs),
(40,9,o),
(49,0,o),
(66,0,cs)
);
},
{
closed = 1;
nodes = (
(531,0,o),
(540,10,o),
(540,26,cs),
(540,109,ls),
(540,125,o),
(531,135,o),
(515,135,cs),
(499,135,o),
(490,125,o),
(490,109,cs),
(490,26,ls),
(490,10,o),
(499,0,o),
(515,0,cs)
);
},
{
closed = 1;
nodes = (
(82,565,o),
(91,575,o),
(91,591,cs),
(91,674,ls),
(91,690,o),
(82,700,o),
(66,700,cs),
(50,700,o),
(41,690,o),
(41,674,cs),
(41,591,ls),
(41,575,o),
(50,565,o),
(66,565,cs)
);
},
{
closed = 1;
nodes = (
(504,650,ls),
(530,650,o),
(540,659,o),
(540,675,cs),
(540,691,o),
(530,700,o),
(514,700,cs),
(66,700,ls),
(50,700,o),
(40,691,o),
(40,675,cs),
(40,659,o),
(49,650,o),
(66,650,cs)
);
},
{
angle = -35;
pos = (-146,279);
ref = _ladder.caps;
}
);
width = 580;
}
);
unicode = 90;
},
{
color = 5;
glyphname = a;
lastChange = "2023-12-25 19:20:03 +0000";
layers = (
{
background = {
shapes = (
{
closed = 1;
nodes = (
(297,92,o),
(303,95,o),
(308,101,cs),
(313,106,o),
(316,112,o),
(316,118,cs),
(316,124,o),
(313,131,o),
(307,137,cs),
(232,212,ls),
(226,218,o),
(219,221,o),
(213,221,cs),
(207,221,o),
(201,218,o),
(196,213,cs),
(190,207,o),
(187,201,o),
(187,195,cs),
(187,189,o),
(190,183,o),
(196,177,cs),
(272,101,ls),
(278,95,o),
(284,92,o),
(290,92,cs)
);
},
{
closed = 1;
nodes = (
(218,94,o),
(224,97,o),
(230,103,cs),
(306,179,ls),
(312,185,o),
(315,191,o),
(315,197,cs),
(315,204,o),
(312,210,o),
(306,215,cs),
(301,220,o),
(295,223,o),
(289,223,cs),
(283,223,o),
(276,220,o),
(270,214,cs),
(195,139,ls),
(189,133,o),
(186,126,o),
(186,120,cs),
(186,114,o),
(189,108,o),
(194,103,cs),
(199,97,o),
(205,94,o),
(212,94,cs)
);
}
);
};
layerId = m01;
shapes = (
{
closed = 1;
nodes = (
(404,16,o),
(408,9,o),
(412,7,cs),
(415,2,o),
(422,0,o),
(437,0,cs),
(488,0,ls),
(496,0,o),
(502,2,o),
(507,7,cs),
(511,11,o),
(513,16,o),
(513,24,cs),
(513,31,o),
(512,37,o),
(507,41,cs),
(502,46,o),
(496,48,o),
(488,48,cs),
(437,48,ls),
(422,48,o),
(415,45,o),
(413,43,cs),
(408,38,o),
(403,31,o),
(403,24,cs)
);
},
{
closed = 1;
nodes = (
(289,-10,o),
(353,4,o),
(401,58,c),
(401,26,ls),
(401,10,o),
(410,0,o),
(428,0,cs),
(446,0,o),
(456,10,o),
(456,26,cs),
(456,300,ls),
(456,431,o),
(374,510,o),
(236,510,cs),
(168,510,o),
(112,481,o),
(60,425,cs),
(55,420,o),
(52,415,o),
(52,409,cs),
(52,404,o),
(54,398,o),
(58,393,cs),
(64,385,o),
(72,381,o),
(80,381,cs),
(88,381,o),
(95,385,o),
(110,400,cs),
(139,428,o),
(186,458,o),
(236,458,cs),
(339,458,o),
(403,412,o),
(403,278,c),
(380,300,o),
(329,327,o),
(248,327,cs),
(141,327,o),
(50,246,o),
(50,149,cs),
(50,55,o),
(118,-10,o),
(218,-10,cs)
);
},
{
closed = 1;
nodes = (
(144,46,o),
(104,88,o),
(104,150,cs),
(104,215,o),
(175,277,o),
(241,277,cs),
(315,277,o),
(403,246,o),
(403,161,cs),
(403,86,o),
(308,46,o),
(228,46,cs)
);
},
{
ref = _kebab.short;
}
);
width = 533;
},
{
background = {
shapes = (
{
closed = 1;
nodes = (
(305,132,ls),
(321,132,o),
(331,141,o),
(331,157,cs),
(331,173,o),
(321,182,o),
(304,182,cs),
(198,182,ls),
(180,182,o),
(172,172,o),
(172,155,cs),
(172,154,o),
(172,154,o),
(172,153,cs),
(173,139,o),
(184,132,o),
(198,132,cs)
);
},
{
closed = 1;
nodes = (
(267,136,o),
(276,146,o),
(276,162,cs),
(276,269,ls),
(276,285,o),
(267,295,o),
(251,295,cs),
(235,295,o),
(226,286,o),
(226,269,cs),
(226,163,ls),
(226,146,o),
(235,136,o),
(251,136,cs)
);
}
);
};
layerId = m002;
shapes = (
{
closed = 1;
nodes = (
(404,16,o),
(408,9,o),
(412,7,cs),
(415,2,o),
(422,0,o),
(437,0,cs),
(488,0,ls),
(496,0,o),
(502,2,o),
(507,7,cs),
(511,11,o),
(513,16,o),
(513,24,cs),
(513,31,o),
(512,37,o),
(507,41,cs),
(502,46,o),
(496,48,o),
(488,48,cs),
(437,48,ls),
(422,48,o),
(415,45,o),
(413,43,cs),
(408,38,o),
(403,31,o),
(403,24,cs)
);
},
{
closed = 1;
nodes = (
(289,-10,o),
(353,4,o),
(401,58,c),
(401,26,ls),
(401,10,o),
(410,0,o),
(428,0,cs),
(446,0,o),
(456,10,o),
(456,26,cs),
(456,300,ls),
(456,431,o),
(374,510,o),
(236,510,cs),
(168,510,o),
(112,481,o),
(60,425,cs),
(55,420,o),
(52,415,o),
(52,409,cs),
(52,404,o),
(54,398,o),
(58,393,cs),
(64,385,o),
(72,381,o),
(80,381,cs),
(88,381,o),
(95,385,o),
(110,400,cs),
(139,428,o),
(186,458,o),
(236,458,cs),
(339,458,o),
(403,412,o),
(403,278,c),
(380,300,o),
(329,327,o),
(248,327,cs),
(141,327,o),
(50,246,o),
(50,149,cs),
(50,55,o),
(118,-10,o),
(218,-10,cs)
);
},
{
closed = 1;
nodes = (
(144,46,o),
(104,88,o),
(104,150,cs),
(104,215,o),
(175,277,o),
(241,277,cs),
(315,277,o),
(403,246,o),
(403,161,cs),
(403,86,o),
(308,46,o),
(228,46,cs)
);
},
{
ref = _kebab.short;
}
);
width = 533;
},
{
background = {
shapes = (
{
closed = 1;
nodes = (
(279,79,o),
(288,88,o),
(288,105,cs),
(288,211,ls),
(288,228,o),
(279,238,o),
(263,238,cs),
(247,238,o),
(238,228,o),
(238,212,cs),
(238,105,ls),
(238,89,o),
(247,79,o),
(263,79,cs)
);
},
{
closed = 1;
nodes = (
(242,143,o),
(252,134,o),
(268,134,cs),
(395,134,ls),
(411,134,o),
(421,143,o),
(421,159,cs),
(421,175,o),
(412,184,o),
(395,184,cs),
(269,184,ls),
(252,184,o),
(242,175,o),
(242,159,cs)
);
}
);
};
layerId = m003;
shapes = (
{
closed = 1;
nodes = (
(404,16,o),
(408,9,o),
(412,7,cs),
(415,2,o),
(422,0,o),
(437,0,cs),
(488,0,ls),
(496,0,o),
(502,2,o),
(507,7,cs),
(511,11,o),
(513,16,o),
(513,24,cs),
(513,31,o),
(512,37,o),
(507,41,cs),
(502,46,o),
(496,48,o),
(488,48,cs),
(437,48,ls),
(422,48,o),
(415,45,o),
(413,43,cs),
(408,38,o),
(403,31,o),
(403,24,cs)
);
},
{
closed = 1;
nodes = (
(289,-10,o),
(353,4,o),
(401,58,c),
(401,26,ls),
(401,10,o),
(410,0,o),
(428,0,cs),
(446,0,o),
(456,10,o),
(456,26,cs),
(456,300,ls),
(456,431,o),
(374,510,o),
(236,510,cs),
(168,510,o),
(112,481,o),
(60,425,cs),
(55,420,o),
(52,415,o),
(52,409,cs),
(52,404,o),
(54,398,o),
(58,393,cs),
(64,385,o),
(72,381,o),
(80,381,cs),
(88,381,o),
(95,385,o),
(110,400,cs),
(139,428,o),
(186,458,o),
(236,458,cs),
(339,458,o),
(403,412,o),
(403,278,c),
(380,300,o),
(329,327,o),
(248,327,cs),
(141,327,o),
(50,246,o),
(50,149,cs),
(50,55,o),
(118,-10,o),
(218,-10,cs)
);
},
{
closed = 1;
nodes = (
(144,46,o),
(104,88,o),
(104,150,cs),
(104,215,o),
(175,277,o),
(241,277,cs),
(315,277,o),
(403,246,o),
(403,161,cs),
(403,86,o),
(308,46,o),
(228,46,cs)
);
},
{
ref = _kebab.short;
}
);
width = 533;
}
);
unicode = 97;
},
{
color = 5;
glyphname = b;
lastChange = "2023-12-26 11:06:28 +0000";
layers = (
{
background = {
shapes = (
{
closed = 1;
nodes = (
(304,229,ls),
(320,229,o),
(330,238,o),
(330,256,cs),
(330,274,o),
(320,284,o),
(304,284,cs),
(256,284,ls),
(240,284,o),
(230,274,o),
(230,256,cs),
(230,238,o),
(239,229,o),
(256,229,cs)
);
},
{
closed = 1;
nodes = (
(321,181,o),
(330,191,o),
(330,207,cs),
(330,305,ls),
(330,321,o),
(321,331,o),
(305,331,cs),
(289,331,o),
(280,321,o),
(280,305,cs),
(280,207,ls),
(280,191,o),
(289,181,o),
(305,181,cs)
);
},
{
closed = 1;
nodes = (
(401,181,o),
(410,191,o),
(410,207,cs),
(410,305,ls),
(410,321,o),
(401,331,o),
(385,331,cs),
(369,331,o),
(360,321,o),
(360,305,cs),
(360,207,ls),
(360,191,o),
(369,181,o),
(385,181,cs)
);
},
{
closed = 1;
nodes = (
(434,229,ls),
(450,229,o),
(460,238,o),
(460,256,cs),
(460,274,o),
(450,284,o),
(434,284,cs),
(386,284,ls),
(370,284,o),
(360,274,o),
(360,256,cs),
(360,238,o),
(369,229,o),
(386,229,cs)
);
}
);
};
guides = (
{
pos = (345,250);
showMeasurement = 1;
}
);
layerId = m01;
shapes = (
{
closed = 1;
nodes = (
(470,-9,o),
(584,89,o),
(584,245,cs),
(584,430,o),
(463,505,o),
(343,505,cs),
(224,505,o),
(122,430,o),
(122,245,cs),
(122,89,o),
(216,-9,o),
(343,-9,cs)
);
},
{
closed = 1;
nodes = (
(246,41,o),
(157,122,o),
(157,246,cs),
(157,392,o),
(251,455,o),
(343,455,cs),
(436,455,o),
(529,392,o),
(529,246,cs),
(529,122,o),
(440,41,o),
(343,41,cs)
);
},
{
closed = 1;
nodes = (
(147,-4,o),
(157,6,o),
(157,22,cs),
(157,700,ls),
(157,716,o),
(147,726,o),
(129,726,cs),
(111,726,o),
(102,717,o),
(102,700,cs),
(102,22,ls),
(102,6,o),
(111,-4,o),
(129,-4,cs)
);
},
{
pos = (4,0);
ref = _kebab.long;
},
{
closed = 1;
nodes = (
(155,709,o),
(150,716,o),
(145,721,cs),
(143,723,o),
(136,726,o),
(121,726,cs),
(70,726,ls),
(62,726,o),
(56,724,o),
(51,719,cs),
(46,714,o),
(45,709,o),
(45,702,cs),
(45,694,o),
(47,689,o),
(51,685,cs),
(56,680,o),
(62,678,o),
(70,678,cs),
(121,678,ls),
(136,678,o),
(143,680,o),
(146,685,cs),
(150,687,o),
(154,694,o),
(155,702,cs)
);
}
);
width = 634;
},
{
background = {
shapes = (
{
closed = 1;
nodes = (
(354,229,ls),
(370,229,o),
(380,238,o),
(380,256,cs),
(380,274,o),
(370,284,o),
(354,284,cs),
(256,284,ls),
(240,284,o),
(230,274,o),
(230,256,cs),
(230,238,o),
(239,229,o),
(256,229,cs)
);
},
{
closed = 1;
nodes = (
(321,181,o),
(330,191,o),
(330,207,cs),
(330,305,ls),
(330,321,o),
(321,331,o),
(305,331,cs),
(289,331,o),
(280,321,o),
(280,305,cs),
(280,207,ls),
(280,191,o),
(289,181,o),
(305,181,cs)
);
},
{
closed = 1;
nodes = (
(401,181,o),
(410,191,o),
(410,207,cs),
(410,305,ls),
(410,321,o),
(401,331,o),
(385,331,cs),
(369,331,o),
(360,321,o),
(360,305,cs),
(360,207,ls),
(360,191,o),
(369,181,o),
(385,181,cs)
);
},
{
closed = 1;
nodes = (
(434,229,ls),
(450,229,o),
(460,238,o),
(460,256,cs),
(460,274,o),
(450,284,o),
(434,284,cs),
(336,284,ls),
(320,284,o),
(310,274,o),
(310,256,cs),
(310,238,o),
(319,229,o),
(336,229,cs)
);
}
);
};
layerId = m002;
shapes = (
{
closed = 1;
nodes = (
(470,-9,o),
(584,89,o),
(584,245,cs),
(584,430,o),
(463,505,o),
(343,505,cs),
(224,505,o),
(122,430,o),
(122,245,cs),
(122,89,o),
(216,-9,o),
(343,-9,cs)
);
},
{
closed = 1;
nodes = (
(246,41,o),
(157,122,o),
(157,246,cs),
(157,392,o),
(251,455,o),
(343,455,cs),
(436,455,o),
(529,392,o),
(529,246,cs),
(529,122,o),
(440,41,o),
(343,41,cs)
);
},
{
closed = 1;
nodes = (
(147,-4,o),
(157,6,o),
(157,22,cs),
(157,700,ls),
(157,716,o),
(147,726,o),
(129,726,cs),
(111,726,o),
(102,717,o),
(102,700,cs),
(102,22,ls),
(102,6,o),
(111,-4,o),
(129,-4,cs)
);
},
{
pos = (4,0);
ref = _kebab.long;
},
{
closed = 1;
nodes = (
(155,709,o),
(150,716,o),
(145,721,cs),
(143,723,o),
(136,726,o),
(121,726,cs),
(70,726,ls),
(62,726,o),
(56,724,o),
(51,719,cs),
(46,714,o),
(45,709,o),
(45,702,cs),
(45,694,o),
(47,689,o),
(51,685,cs),
(56,680,o),
(62,678,o),
(70,678,cs),
(121,678,ls),
(136,678,o),
(143,680,o),
(146,685,cs),
(150,687,o),
(154,694,o),
(155,702,cs)
);
}
);
width = 634;
},
{
background = {
shapes = (
{
closed = 1;
nodes = (
(344,229,ls),
(360,229,o),
(370,238,o),
(370,256,cs),
(370,274,o),
(360,284,o),
(344,284,cs),
(296,284,ls),
(280,284,o),
(270,274,o),
(270,256,cs),
(270,238,o),
(279,229,o),
(296,229,cs)
);
},
{
closed = 1;
nodes = (
(361,181,o),
(370,191,o),
(370,207,cs),
(370,305,ls),
(370,321,o),
(361,331,o),
(345,331,cs),
(329,331,o),
(320,321,o),
(320,305,cs),
(320,207,ls),
(320,191,o),
(329,181,o),
(345,181,cs)
);
},
{
closed = 1;
nodes = (
(361,181,o),
(370,191,o),
(370,207,cs),
(370,305,ls),
(370,321,o),
(361,331,o),
(345,331,cs),
(329,331,o),
(320,321,o),
(320,305,cs),
(320,207,ls),
(320,191,o),
(329,181,o),
(345,181,cs)
);
},
{
closed = 1;
nodes = (
(394,229,ls),
(410,229,o),
(420,238,o),
(420,256,cs),
(420,274,o),
(410,284,o),
(394,284,cs),
(346,284,ls),
(330,284,o),
(320,274,o),
(320,256,cs),
(320,238,o),
(329,229,o),
(346,229,cs)
);
}
);
};
layerId = m003;
shapes = (
{
closed = 1;
nodes = (
(470,-9,o),
(584,89,o),
(584,245,cs),
(584,430,o),
(463,505,o),
(343,505,cs),
(224,505,o),
(122,430,o),
(122,245,cs),
(122,89,o),
(216,-9,o),
(343,-9,cs)
);
},
{
closed = 1;
nodes = (
(246,41,o),
(157,122,o),
(157,246,cs),
(157,392,o),
(251,455,o),
(343,455,cs),
(436,455,o),
(529,392,o),
(529,246,cs),
(529,122,o),
(440,41,o),
(343,41,cs)
);
},
{
closed = 1;
nodes = (
(147,-4,o),
(157,6,o),
(157,22,cs),
(157,700,ls),
(157,716,o),
(147,726,o),
(129,726,cs),
(111,726,o),
(102,717,o),
(102,700,cs),
(102,22,ls),
(102,6,o),
(111,-4,o),
(129,-4,cs)
);
},
{
pos = (4,0);
ref = _kebab.long;
},
{
closed = 1;
nodes = (
(155,709,o),
(150,716,o),
(145,721,cs),
(143,723,o),
(136,726,o),
(121,726,cs),
(70,726,ls),
(62,726,o),
(56,724,o),
(51,719,cs),
(46,714,o),
(45,709,o),
(45,702,cs),
(45,694,o),
(47,689,o),
(51,685,cs),
(56,680,o),
(62,678,o),
(70,678,cs),
(121,678,ls),
(136,678,o),
(143,680,o),
(146,685,cs),
(150,687,o),
(154,694,o),
(155,702,cs)
);
}
);
width = 634;
}
);
metricRight = o;
unicode = 98;
},
{
color = 5;
glyphname = c;
lastChange = "2024-01-01 21:16:07 +0000";
layers = (
{
layerId = m01;
shapes = (
{
closed = 1;
nodes = (
(515,388,o),
(519,396,o),
(519,404,cs),
(519,411,o),
(517,418,o),
(511,425,cs),
(461,484,o),
(385,510,o),
(310,510,cs),
(183,510,o),
(50,434,o),
(50,250,cs),
(50,95,o),
(174,-10,o),
(310,-10,cs),
(393,-10,o),
(472,29,o),
(521,96,cs),
(525,101,o),
(527,107,o),
(527,112,cs),
(527,121,o),
(523,129,o),
(515,135,cs),
(510,139,o),
(504,140,o),
(499,140,cs),
(490,140,o),
(481,134,o),
(474,125,cs),
(434,72,o),
(373,40,o),
(310,40,cs),
(206,40,o),
(105,126,o),
(105,250,cs),
(105,396,o),
(211,460,o),
(310,460,cs),
(368,460,o),
(428,439,o),
(469,391,cs),
(475,384,o),
(483,380,o),
(492,380,cs),
(497,380,o),
(503,381,o),
(508,384,cs)
);
},
{
pos = (-48,1);
ref = _kebab.long;
}
);
width = 567;
},
{
layerId = m002;
shapes = (
{
closed = 1;
nodes = (
(515,388,o),
(519,396,o),
(519,404,cs),
(519,411,o),
(517,418,o),
(511,425,cs),
(461,484,o),
(385,510,o),
(310,510,cs),
(183,510,o),
(50,434,o),
(50,250,cs),
(50,95,o),
(174,-10,o),
(310,-10,cs),
(393,-10,o),
(472,29,o),
(521,96,cs),
(525,101,o),
(527,107,o),
(527,112,cs),
(527,121,o),
(523,129,o),
(515,135,cs),
(510,139,o),
(504,140,o),
(499,140,cs),
(490,140,o),
(481,134,o),
(474,125,cs),
(434,72,o),
(373,40,o),
(310,40,cs),
(206,40,o),
(105,126,o),
(105,250,cs),
(105,396,o),
(211,460,o),
(310,460,cs),
(368,460,o),
(428,439,o),
(469,391,cs),
(475,384,o),
(483,380,o),
(492,380,cs),
(497,380,o),
(503,381,o),
(508,384,cs)
);
},
{
pos = (-48,1);
ref = _kebab.long;
}
);
width = 567;
},
{
layerId = m003;
shapes = (
{
closed = 1;
nodes = (
(515,388,o),
(519,396,o),
(519,404,cs),
(519,411,o),
(517,418,o),
(511,425,cs),
(461,484,o),
(385,510,o),
(310,510,cs),
(183,510,o),
(50,434,o),
(50,250,cs),
(50,95,o),
(174,-10,o),
(310,-10,cs),
(393,-10,o),
(472,29,o),
(521,96,cs),
(525,101,o),
(527,107,o),
(527,112,cs),
(527,121,o),
(523,129,o),
(515,135,cs),
(510,139,o),
(504,140,o),
(499,140,cs),
(490,140,o),
(481,134,o),
(474,125,cs),
(434,72,o),
(373,40,o),
(310,40,cs),
(206,40,o),
(105,126,o),
(105,250,cs),
(105,396,o),
(211,460,o),
(310,460,cs),
(368,460,o),
(428,439,o),
(469,391,cs),
(475,384,o),
(483,380,o),
(492,380,cs),
(497,380,o),
(503,381,o),
(508,384,cs)
);
},
{
pos = (-48,1);
ref = _kebab.long;
}
);
width = 567;
}
);
metricLeft = o;
metricRight = e;
unicode = 99;
},
{
color = 5;
glyphname = d;
lastChange = "2024-01-01 21:16:23 +0000";
layers = (
{
layerId = m01;
shapes = (
{
closed = 1;
nodes = (
(418,-9,o),
(512,89,o),
(512,245,cs),
(512,430,o),
(411,505,o),
(291,505,cs),
(172,505,o),
(50,430,o),
(50,245,cs),
(50,89,o),
(164,-9,o),
(291,-9,cs)
);
},
{
closed = 1;
nodes = (
(194,41,o),
(105,122,o),
(105,246,cs),
(105,392,o),
(199,455,o),
(291,455,cs),
(384,455,o),
(477,392,o),
(477,246,cs),
(477,122,o),
(388,41,o),
(291,41,cs)
);
},
{
closed = 1;
nodes = (
(523,-4,o),
(533,6,o),
(533,22,cs),
(533,700,ls),
(533,716,o),
(523,726,o),
(505,726,cs),
(487,726,o),
(478,717,o),
(478,700,cs),
(478,22,ls),
(478,6,o),
(487,-4,o),
(505,-4,cs)
);
},
{
closed = 1;
nodes = (
(531,709,o),
(526,716,o),
(521,721,cs),
(519,723,o),
(512,726,o),
(497,726,cs),
(446,726,ls),
(438,726,o),
(432,724,o),
(427,719,cs),
(422,714,o),
(421,709,o),
(421,702,cs),
(421,694,o),
(423,689,o),
(427,685,cs),
(432,680,o),
(438,678,o),
(446,678,cs),
(497,678,ls),
(512,678,o),
(519,680,o),
(522,685,cs),
(526,687,o),
(530,694,o),
(531,702,cs)
);
},
{
pos = (-50,0);
ref = _kebab.long;
}
);
width = 611;
},
{
layerId = m002;
shapes = (
{
closed = 1;
nodes = (
(418,-9,o),
(512,89,o),
(512,245,cs),
(512,430,o),
(411,505,o),
(291,505,cs),
(172,505,o),
(50,430,o),
(50,245,cs),
(50,89,o),
(164,-9,o),
(291,-9,cs)
);
},
{
closed = 1;
nodes = (
(194,41,o),
(105,122,o),
(105,246,cs),
(105,392,o),
(199,455,o),
(291,455,cs),
(384,455,o),
(477,392,o),
(477,246,cs),
(477,122,o),
(388,41,o),
(291,41,cs)
);
},
{
closed = 1;
nodes = (
(523,-4,o),
(533,6,o),
(533,22,cs),
(533,700,ls),
(533,716,o),
(523,726,o),
(505,726,cs),
(487,726,o),
(478,717,o),
(478,700,cs),
(478,22,ls),
(478,6,o),
(487,-4,o),
(505,-4,cs)
);
},
{
closed = 1;
nodes = (
(531,709,o),
(526,716,o),
(521,721,cs),
(519,723,o),
(512,726,o),
(497,726,cs),
(446,726,ls),
(438,726,o),
(432,724,o),
(427,719,cs),
(422,714,o),
(421,709,o),
(421,702,cs),
(421,694,o),
(423,689,o),
(427,685,cs),
(432,680,o),
(438,678,o),
(446,678,cs),
(497,678,ls),
(512,678,o),
(519,680,o),
(522,685,cs),
(526,687,o),
(530,694,o),
(531,702,cs)
);
},
{
pos = (-50,0);
ref = _kebab.long;
}
);
width = 611;
},
{
layerId = m003;
shapes = (
{
closed = 1;
nodes = (
(418,-9,o),
(512,89,o),
(512,245,cs),
(512,430,o),
(411,505,o),
(291,505,cs),
(172,505,o),
(50,430,o),
(50,245,cs),
(50,89,o),
(164,-9,o),
(291,-9,cs)
);
},
{
closed = 1;
nodes = (
(194,41,o),
(105,122,o),
(105,246,cs),
(105,392,o),
(199,455,o),
(291,455,cs),
(384,455,o),
(477,392,o),
(477,246,cs),
(477,122,o),
(388,41,o),
(291,41,cs)
);
},
{
closed = 1;
nodes = (
(523,-4,o),
(533,6,o),
(533,22,cs),
(533,700,ls),
(533,716,o),
(523,726,o),
(505,726,cs),
(487,726,o),
(478,717,o),
(478,700,cs),
(478,22,ls),
(478,6,o),
(487,-4,o),
(505,-4,cs)
);
},
{
pos = (-50,0);
ref = _kebab.long;
},
{
closed = 1;
nodes = (
(531,709,o),
(526,716,o),
(521,721,cs),
(519,723,o),
(512,726,o),
(497,726,cs),
(446,726,ls),
(438,726,o),
(432,724,o),
(427,719,cs),
(422,714,o),
(421,709,o),
(421,702,cs),
(421,694,o),
(423,689,o),
(427,685,cs),
(432,680,o),
(438,678,o),
(446,678,cs),
(497,678,ls),
(512,678,o),
(519,680,o),
(522,685,cs),
(526,687,o),
(530,694,o),
(531,702,cs)
);
}
);
width = 611;
}
);
metricLeft = o;
unicode = 100;
},
{
color = 5;
glyphname = e;
lastChange = "2024-01-05 20:54:28 +0000";
layers = (
{
layerId = m01;
shapes = (
{
closed = 1;
nodes = (
(470,-10,o),
(529,47,o),
(553,76,cs),
(577,105,o),
(581,112,o),
(581,120,cs),
(581,129,o),
(578,136,o),
(571,141,cs),
(567,144,o),
(558,146,o),
(553,146,cs),
(543,146,o),
(535,139,o),
(527,129,cs),
(496,91,o),
(451,40,o),
(366,40,cs),
(258,40,o),
(177,115,o),
(165,225,c),
(571,225,ls),
(590,225,o),
(597,242,o),
(597,253,cs),
(597,450,o),
(452,510,o),
(348,510,cs),
(236,510,o),
(120,441,o),
(110,275,c),
(66,275,ls),
(50,275,o),
(40,266,o),
(40,250,cs),
(40,234,o),
(50,225,o),
(66,225,cs),
(110,225,l),
(122,84,o),
(226,-10,o),
(366,-10,cs)
);
},
{
angle = 90;
pos = (596,121);
ref = _kebab.long;
},
{
closed = 1;
nodes = (
(175,404,o),
(257,460,o),
(346,460,cs),
(479,460,o),
(541,336,o),
(541,283,cs),
(541,280,o),
(537,276,o),
(533,276,cs),
(165,276,l)
);
}
);
width = 637;
},
{
layerId = m002;
shapes = (
{
closed = 1;
nodes = (
(470,-10,o),
(529,47,o),
(553,76,cs),
(577,105,o),
(581,112,o),
(581,120,cs),
(581,129,o),
(578,136,o),
(571,141,cs),
(567,144,o),
(558,146,o),
(553,146,cs),
(543,146,o),
(535,139,o),
(527,129,cs),
(496,91,o),
(451,40,o),
(366,40,cs),
(258,40,o),
(177,115,o),
(165,225,c),
(571,225,ls),
(590,225,o),
(597,242,o),
(597,253,cs),
(597,450,o),
(452,510,o),
(348,510,cs),
(236,510,o),
(120,441,o),
(110,275,c),
(66,275,ls),
(50,275,o),
(40,266,o),
(40,250,cs),
(40,234,o),
(50,225,o),
(66,225,cs),
(110,225,l),
(122,84,o),
(226,-10,o),
(366,-10,cs)
);
},
{
angle = -90;
pos = (40,397);
ref = _chevron;
},
{
angle = 90;
pos = (596,121);
ref = _kebab.long;
},
{
closed = 1;
nodes = (
(175,404,o),
(257,460,o),
(346,460,cs),
(479,460,o),
(541,336,o),
(541,283,cs),
(541,280,o),
(537,276,o),
(533,276,cs),
(165,276,l)
);
}
);
width = 637;
},
{
layerId = m003;
shapes = (
{
closed = 1;
nodes = (
(470,-10,o),
(529,47,o),
(553,76,cs),
(577,105,o),
(581,112,o),
(581,120,cs),
(581,129,o),
(578,136,o),
(571,141,cs),
(567,144,o),
(558,146,o),
(553,146,cs),
(543,146,o),
(535,139,o),
(527,129,cs),
(496,91,o),
(451,40,o),
(366,40,cs),
(258,40,o),
(177,115,o),
(165,225,c),
(571,225,ls),
(590,225,o),
(597,242,o),
(597,253,cs),
(597,450,o),
(452,510,o),
(348,510,cs),
(236,510,o),
(120,441,o),
(110,275,c),
(102,275,ls),
(86,275,o),
(76,266,o),
(76,250,cs),
(76,234,o),
(86,225,o),
(102,225,cs),
(110,225,l),
(122,84,o),
(226,-10,o),
(366,-10,cs)
);
},
{
angle = -90;
pos = (40,397);
ref = _chevron;
},
{
angle = 90;
pos = (596,121);
ref = _kebab.long;
},
{
closed = 1;
nodes = (
(175,404,o),
(257,460,o),
(346,460,cs),
(479,460,o),
(541,336,o),
(541,283,cs),
(541,280,o),
(537,276,o),
(533,276,cs),
(165,276,l)
);
}
);
width = 637;
}
);
unicode = 101;
},
{
color = 5;
glyphname = f;
lastChange = "2024-01-02 16:06:36 +0000";
layers = (
{
layerId = m01;
shapes = (
{
closed = 1;
nodes = (
(150,-1,o),
(164,7,o),
(164,26,cs),
(167,571,ls),
(167,638,o),
(198,688,o),
(247,688,cs),
(269,688,o),
(283,683,o),
(294,672,cs),
(303,663,o),
(309,658,o),
(321,658,cs),
(325,658,o),
(330,659,o),
(335,663,cs),
(341,668,o),
(345,676,o),
(345,684,cs),
(344,690,o),
(342,697,o),
(336,703,cs),
(311,728,o),
(281,736,o),
(247,736,cs),
(161,736,o),
(109,676,o),
(109,586,cs),
(109,26,ls),
(109,7,o),
(121,-1,o),
(137,-1,cs)
);
},
{
closed = 1;
nodes = (
(288,450,ls),
(304,450,o),
(314,459,o),
(314,475,cs),
(314,491,o),
(304,500,o),
(288,500,cs),
(55,500,ls),
(39,500,o),
(29,491,o),
(29,475,cs),
(29,459,o),
(39,450,o),
(55,450,cs)
);
},
{
pos = (-12,50);
ref = _chevron;
}
);
width = 355;
},
{
layerId = m002;
shapes = (
{
closed = 1;
nodes = (
(148,9,o),
(164,17,o),
(164,36,cs),
(167,571,ls),
(167,638,o),
(198,688,o),
(247,688,cs),
(269,688,o),
(283,683,o),
(294,672,cs),
(303,663,o),
(309,658,o),
(321,658,cs),
(325,658,o),
(330,659,o),
(335,663,cs),
(341,668,o),
(345,676,o),
(345,684,cs),
(344,690,o),
(342,697,o),
(336,703,cs),
(311,728,o),
(281,736,o),
(247,736,cs),
(161,736,o),
(109,676,o),
(109,586,cs),
(109,32,l),
(109,17,o),
(119,9,o),
(135,9,cs)
);
},
{
closed = 1;
nodes = (
(288,450,ls),
(304,450,o),
(314,459,o),
(314,475,cs),
(314,491,o),
(304,500,o),
(288,500,cs),
(55,500,ls),
(39,500,o),
(29,491,o),
(29,475,cs),
(29,459,o),
(39,450,o),
(55,450,cs)
);
},
{
pos = (-12,0);
ref = _chevron;
}
);
width = 355;
},
{
layerId = m003;
shapes = (
{
closed = 1;
nodes = (
(148,39,o),
(164,47,o),
(164,66,cs),
(167,571,ls),
(167,638,o),
(198,688,o),
(247,688,cs),
(269,688,o),
(283,683,o),
(294,672,cs),
(303,663,o),
(309,658,o),
(321,658,cs),
(325,658,o),
(330,659,o),
(335,663,cs),
(341,668,o),
(345,676,o),
(345,684,cs),
(344,690,o),
(342,697,o),
(336,703,cs),
(311,728,o),
(281,736,o),
(247,736,cs),
(161,736,o),
(109,676,o),
(109,586,cs),
(109,62,l),
(109,47,o),
(119,39,o),
(135,39,cs)
);
},
{
closed = 1;
nodes = (
(288,450,ls),
(304,450,o),
(314,459,o),
(314,475,cs),
(314,491,o),
(304,500,o),
(288,500,cs),
(55,500,ls),
(39,500,o),
(29,491,o),
(29,475,cs),
(29,459,o),
(39,450,o),
(55,450,cs)
);
},
{
pos = (-12,0);
ref = _chevron;
}
);
width = 355;
}
);
unicode = 102;
},
{
color = 5;
glyphname = g;
lastChange = "2024-01-01 22:02:38 +0000";
layers = (
{
background = {
shapes = (
{
closed = 1;
nodes = (
(410,-308,o),
(532,-234,o),
(532,-53,cs),
(532,473,ls),
(532,489,o),
(523,499,o),
(505,499,cs),
(487,499,o),
(477,489,o),
(477,473,cs),
(477,-53,ls),
(477,-196,o),
(385,-255,o),
(293,-255,cs),
(237,-255,o),
(182,-238,o),
(144,-191,cs),
(133,-177,o),
(121,-174,o),
(108,-185,cs),
(105,-187,ls),
(92,-197,o),
(89,-210,o),
(100,-224,cs),
(149,-285,o),
(222,-308,o),
(293,-308,cs)
);
},
{
closed = 1;
nodes = (
(84,234,o),
(74,243,o),
(74,259,cs),
(74,275,o),
(84,284,o),
(100,284,cs),
(248,284,ls),
(265,284,o),
(274,275,o),
(274,259,cs),
(274,243,o),
(264,234,o),
(248,234,cs),
(100,234,ls)
);
},
{
closed = 1;
nodes = (
(228,14,o),
(219,24,o),
(219,40,cs),
(219,448,ls),
(219,464,o),
(228,474,o),
(246,474,cs),
(264,474,o),
(274,464,o),
(274,448,cs),
(274,40,ls),
(274,24,o),
(264,14,o),
(246,14,cs)
);
},
{
closed = 1;
nodes = (
(410,-10,o),
(532,65,o),
(532,250,cs),
(532,406,o),
(418,504,o),
(291,504,cs),
(164,504,o),
(50,406,o),
(50,250,cs),
(50,65,o),
(171,-10,o),
(291,-10,cs)
);
},
{
closed = 1;
nodes = (
(198,40,o),
(105,103,o),
(105,249,cs),
(105,373,o),
(194,454,o),
(291,454,cs),
(388,454,o),
(477,373,o),
(477,249,cs),
(477,103,o),
(383,40,o),
(291,40,cs)
);
},
{
closed = 1;
nodes = (
(313,14,o),
(304,24,o),
(304,40,cs),
(304,448,ls),
(304,464,o),
(313,474,o),
(331,474,cs),
(349,474,o),
(359,464,o),
(359,448,cs),
(359,40,ls),
(359,24,o),
(349,14,o),
(331,14,cs)
);
},
{
closed = 1;
nodes = (
(314,234,o),
(304,243,o),
(304,259,cs),
(304,275,o),
(314,284,o),
(330,284,cs),
(478,284,ls),
(495,284,o),
(504,275,o),
(504,259,cs),
(504,243,o),
(494,234,o),
(478,234,cs),
(330,234,ls)
);
}
);
};
layerId = m01;
shapes = (
{
closed = 1;
nodes = (
(410,-309,o),
(532,-235,o),
(532,-54,cs),
(532,474,ls),
(532,490,o),
(523,500,o),
(505,500,cs),
(487,500,o),
(477,490,o),
(477,474,cs),
(477,-54,ls),
(477,-197,o),
(385,-256,o),
(293,-256,cs),
(237,-256,o),
(182,-239,o),
(144,-192,cs),
(137,-183,o),
(126,-176,o),
(116,-176,cs),
(110,-176,o),
(104,-178,o),
(99,-182,cs),
(93,-187,o),
(90,-193,o),
(90,-200,cs),
(90,-208,o),
(94,-217,o),
(100,-225,cs),
(149,-286,o),
(222,-309,o),
(293,-309,cs)
);
},
{
closed = 1;
nodes = (
(410,-10,o),
(512,70,o),
(512,255,cs),
(512,411,o),
(418,509,o),
(291,509,cs),
(164,509,o),
(50,411,o),
(50,255,cs),
(50,70,o),
(171,-10,o),
(291,-10,cs)
);
},
{
closed = 1;
nodes = (
(198,40,o),
(105,108,o),
(105,254,cs),
(105,378,o),
(194,459,o),
(291,459,cs),
(388,459,o),
(477,378,o),
(477,254,cs),
(477,108,o),
(383,40,o),
(291,40,cs)
);
},
{
closed = 1;
nodes = (
(479,468,o),
(483,461,o),
(487,459,cs),
(490,454,o),
(497,452,o),
(512,452,cs),
(563,452,ls),
(571,452,o),
(577,454,o),
(582,459,cs),
(586,463,o),
(588,468,o),
(588,476,cs),
(588,483,o),
(587,489,o),
(582,493,cs),
(577,498,o),
(571,500,o),
(563,500,cs),
(512,500,ls),
(497,500,o),
(490,497,o),
(488,495,cs),
(483,490,o),
(478,483,o),
(478,476,cs)
);
},
{
pos = (161,-1);
ref = _kebab.long;
}
);
width = 618;
},
{
background = {
shapes = (
{
closed = 1;
nodes = (
(410,-308,o),
(532,-234,o),
(532,-53,cs),
(532,473,ls),
(532,489,o),
(523,499,o),
(505,499,cs),
(487,499,o),
(477,489,o),
(477,473,cs),
(477,-53,ls),
(477,-196,o),
(385,-255,o),
(293,-255,cs),
(237,-255,o),
(182,-238,o),
(144,-191,cs),
(133,-177,o),
(122,-176,o),
(108,-185,cs),
(105,-187,ls),
(91,-196,o),
(89,-210,o),
(100,-224,cs),
(149,-285,o),
(222,-308,o),
(293,-308,cs)
);
},
{
closed = 1;
nodes = (
(84,234,o),
(74,243,o),
(74,259,cs),
(74,275,o),
(84,284,o),
(100,284,cs),
(308,284,ls),
(325,284,o),
(334,275,o),
(334,259,cs),
(334,243,o),
(324,234,o),
(308,234,cs),
(100,234,ls)
);
},
{
closed = 1;
nodes = (
(229,14,o),
(220,24,o),
(220,40,cs),
(220,458,ls),
(220,474,o),
(229,484,o),
(247,484,cs),
(265,484,o),
(275,474,o),
(275,458,cs),
(275,40,ls),
(275,24,o),
(265,14,o),
(247,14,cs)
);
},
{
closed = 1;
nodes = (
(410,-10,o),
(532,65,o),
(532,250,cs),
(532,406,o),
(418,504,o),
(291,504,cs),
(164,504,o),
(50,406,o),
(50,250,cs),
(50,65,o),
(171,-10,o),
(291,-10,cs)
);
},
{
closed = 1;
nodes = (
(198,40,o),
(105,103,o),
(105,249,cs),
(105,373,o),
(194,454,o),
(291,454,cs),
(388,454,o),
(477,373,o),
(477,249,cs),
(477,103,o),
(383,40,o),
(291,40,cs)
);
},
{
closed = 1;
nodes = (
(314,14,o),
(305,24,o),
(305,40,cs),
(305,458,ls),
(305,474,o),
(314,484,o),
(332,484,cs),
(350,484,o),
(360,474,o),
(360,458,cs),
(360,40,ls),
(360,24,o),
(350,14,o),
(332,14,cs)
);
},
{
closed = 1;
nodes = (
(254,234,o),
(244,243,o),
(244,259,cs),
(244,275,o),
(254,284,o),
(270,284,cs),
(478,284,ls),
(495,284,o),
(504,275,o),
(504,259,cs),
(504,243,o),
(494,234,o),
(478,234,cs),
(270,234,ls)
);
}
);
};
layerId = m002;
shapes = (
{
closed = 1;
nodes = (
(410,-309,o),
(532,-235,o),
(532,-54,cs),
(532,474,ls),
(532,490,o),
(523,500,o),
(505,500,cs),
(487,500,o),
(477,490,o),
(477,474,cs),
(477,-54,ls),
(477,-197,o),
(385,-256,o),
(293,-256,cs),
(237,-256,o),
(182,-239,o),
(144,-192,cs),
(137,-183,o),
(126,-176,o),
(116,-176,cs),
(110,-176,o),
(104,-178,o),
(99,-182,cs),
(93,-187,o),
(90,-193,o),
(90,-200,cs),
(90,-208,o),
(94,-217,o),
(100,-225,cs),
(149,-286,o),
(222,-309,o),
(293,-309,cs)
);
},
{
closed = 1;
nodes = (
(410,-10,o),
(512,70,o),
(512,255,cs),
(512,411,o),
(418,509,o),
(291,509,cs),
(164,509,o),
(50,411,o),
(50,255,cs),
(50,70,o),
(171,-10,o),
(291,-10,cs)
);
},
{
closed = 1;
nodes = (
(198,40,o),
(105,108,o),
(105,254,cs),
(105,378,o),
(194,459,o),
(291,459,cs),
(388,459,o),
(477,378,o),
(477,254,cs),
(477,108,o),
(383,40,o),
(291,40,cs)
);
},
{
closed = 1;
nodes = (
(479,468,o),
(483,461,o),
(487,459,cs),
(490,454,o),
(497,452,o),
(512,452,cs),
(563,452,ls),
(571,452,o),
(577,454,o),
(582,459,cs),
(586,463,o),
(588,468,o),
(588,476,cs),
(588,483,o),
(587,489,o),
(582,493,cs),
(577,498,o),
(571,500,o),
(563,500,cs),
(512,500,ls),
(497,500,o),
(490,497,o),
(488,495,cs),
(483,490,o),
(478,483,o),
(478,476,cs)
);
},
{
pos = (161,-1);
ref = _kebab.long;
}
);
width = 618;
},
{
background = {
shapes = (
{
closed = 1;
nodes = (
(410,-308,o),
(532,-234,o),
(532,-53,cs),
(532,473,ls),
(532,489,o),
(523,499,o),
(505,499,cs),
(487,499,o),
(477,489,o),
(477,473,cs),
(477,-53,ls),
(477,-196,o),
(385,-255,o),
(293,-255,cs),
(237,-255,o),
(182,-238,o),
(144,-191,cs),
(133,-177,o),
(121,-174,o),
(108,-185,cs),
(105,-187,ls),
(92,-197,o),
(89,-210,o),
(100,-224,cs),
(149,-285,o),
(222,-308,o),
(293,-308,cs)
);
},
{
closed = 1;
nodes = (
(84,234,o),
(74,243,o),
(74,259,cs),
(74,275,o),
(84,284,o),
(100,284,cs),
(308,284,ls),
(325,284,o),
(334,275,o),
(334,259,cs),
(334,243,o),
(324,234,o),
(308,234,cs),
(100,234,ls)
);
},
{
closed = 1;
nodes = (
(410,-10,o),
(532,65,o),
(532,250,cs),
(532,406,o),
(418,504,o),
(291,504,cs),
(164,504,o),
(50,406,o),
(50,250,cs),
(50,65,o),
(171,-10,o),
(291,-10,cs)
);
},
{
closed = 1;
nodes = (
(198,40,o),
(105,103,o),
(105,249,cs),
(105,373,o),
(194,454,o),
(291,454,cs),
(388,454,o),
(477,373,o),
(477,249,cs),
(477,103,o),
(383,40,o),
(291,40,cs)
);
},
{
closed = 1;
nodes = (
(307,14,o),
(317,24,o),
(317,40,cs),
(317,448,ls),
(317,464,o),
(307,474,o),
(289,474,cs),
(271,474,o),
(262,464,o),
(262,448,cs),
(262,40,ls),
(262,24,o),
(271,14,o),
(289,14,cs)
);
},
{
closed = 1;
nodes = (
(271,14,o),
(262,24,o),
(262,40,cs),
(262,448,ls),
(262,464,o),
(271,474,o),
(289,474,cs),
(307,474,o),
(317,464,o),
(317,448,cs),
(317,40,ls),
(317,24,o),
(307,14,o),
(289,14,cs)
);
},
{
closed = 1;
nodes = (
(254,234,o),
(244,243,o),
(244,259,cs),
(244,275,o),
(254,284,o),
(270,284,cs),
(478,284,ls),
(495,284,o),
(504,275,o),
(504,259,cs),
(504,243,o),
(494,234,o),
(478,234,cs),
(270,234,ls)
);
}
);
};
layerId = m003;
shapes = (
{
closed = 1;
nodes = (
(410,-309,o),
(532,-235,o),
(532,-54,cs),
(532,474,ls),
(532,490,o),
(523,500,o),
(505,500,cs),
(487,500,o),
(477,490,o),
(477,474,cs),
(477,-54,ls),
(477,-197,o),
(385,-256,o),
(293,-256,cs),
(237,-256,o),
(182,-239,o),
(144,-192,cs),
(137,-183,o),
(126,-176,o),
(116,-176,cs),
(110,-176,o),
(104,-178,o),
(99,-182,cs),
(93,-187,o),
(90,-193,o),
(90,-200,cs),
(90,-208,o),
(94,-217,o),
(100,-225,cs),
(149,-286,o),
(222,-309,o),
(293,-309,cs)
);
},
{
closed = 1;
nodes = (
(410,-10,o),
(512,70,o),
(512,255,cs),
(512,411,o),
(418,509,o),
(291,509,cs),
(164,509,o),
(50,411,o),
(50,255,cs),
(50,70,o),
(171,-10,o),
(291,-10,cs)
);
},
{
closed = 1;
nodes = (
(198,40,o),
(105,108,o),
(105,254,cs),
(105,378,o),
(194,459,o),
(291,459,cs),
(388,459,o),
(477,378,o),
(477,254,cs),
(477,108,o),
(383,40,o),
(291,40,cs)
);
},
{
closed = 1;
nodes = (
(479,468,o),
(483,461,o),
(487,459,cs),
(490,454,o),
(497,452,o),
(512,452,cs),
(563,452,ls),
(571,452,o),
(577,454,o),
(582,459,cs),
(586,463,o),
(588,468,o),
(588,476,cs),
(588,483,o),
(587,489,o),
(582,493,cs),
(577,498,o),
(571,500,o),
(563,500,cs),
(512,500,ls),
(497,500,o),
(490,497,o),
(488,495,cs),
(483,490,o),
(478,483,o),
(478,476,cs)
);
},
{
pos = (161,-1);
ref = _kebab.long;
}
);
width = 618;
}
);
unicode = 103;
},
{
color = 5;
glyphname = h;
lastChange = "2024-01-05 20:54:21 +0000";
layers = (
{
background = {
shapes = (
{
closed = 1;
nodes = (
(305,-4,o),
(315,6,o),
(315,22,cs),
(315,246,ls),
(315,262,o),
(305,272,o),
(287,272,cs),
(269,272,o),
(260,263,o),
(260,246,cs),
(260,22,ls),
(260,6,o),
(269,-4,o),
(287,-4,cs)
);
},
{
closed = 1;
nodes = (
(336,142,ls),
(352,142,o),
(362,151,o),
(362,167,cs),
(362,183,o),
(352,192,o),
(336,192,cs),
(238,192,ls),
(222,192,o),
(212,183,o),
(212,167,cs),
(212,151,o),
(222,142,o),
(238,142,cs)
);
},
{
closed = 1;
nodes = (
(336,222,ls),
(352,222,o),
(362,231,o),
(362,247,cs),
(362,263,o),
(352,272,o),
(336,272,cs),
(238,272,ls),
(222,272,o),
(212,263,o),
(212,247,cs),
(212,231,o),
(222,222,o),
(238,222,cs)
);
},
{
closed = 1;
nodes = (
(305,201,o),
(315,211,o),
(315,227,cs),
(315,451,ls),
(315,467,o),
(305,477,o),
(287,477,cs),
(269,477,o),
(260,468,o),
(260,451,cs),
(260,227,ls),
(260,211,o),
(269,201,o),
(287,201,cs)
);
}
);
};
guides = (
{
angle = 270;
pos = (319,240);
showMeasurement = 1;
}
);
layerId = m01;
shapes = (
{
closed = 1;
nodes = (
(156,249,l),
(156,255,ls),
(156,398,o),
(238,457,o),
(310,457,cs),
(383,457,o),
(465,398,o),
(465,255,c),
(520,255,l),
(520,436,o),
(408,510,o),
(310,510,cs),
(213,510,o),
(121,436,o),
(121,255,cs),
(121,249,l)
);
},
{
pos = (-14,50);
ref = _chevron;
},
{
pos = (-83,-406);
ref = _Bristles.small;
},
{
closed = 1;
nodes = (
(146,0,o),
(156,10,o),
(156,26,cs),
(156,700,ls),
(156,716,o),
(146,726,o),
(128,726,cs),
(110,726,o),
(101,717,o),
(101,700,cs),
(101,26,ls),
(101,10,o),
(110,0,o),
(128,0,cs)
);
},
{
pos = (340,50);
ref = _chevron;
},
{
closed = 1;
nodes = (
(510,0,o),
(520,10,o),
(520,26,cs),
(520,255,ls),
(520,271,o),
(510,281,o),
(492,281,cs),
(474,281,o),
(465,272,o),
(465,255,cs),
(465,26,ls),
(465,10,o),
(474,0,o),
(492,0,cs)
);
},
{
pos = (186,-406);
ref = _Bristles.small;
},
{
closed = 1;
nodes = (
(121,678,ls),
(136,678,o),
(143,680,o),
(146,685,cs),
(150,687,o),
(154,694,o),
(155,702,cs),
(155,709,o),
(150,716,o),
(145,721,cs),
(143,723,o),
(136,726,o),
(121,726,cs),
(70,726,ls),
(62,726,o),
(56,724,o),
(51,719,cs),
(46,715,o),
(45,709,o),
(45,702,cs),
(45,694,o),
(47,689,o),
(51,685,cs),
(56,680,o),
(62,678,o),
(70,678,cs)
);
}
);
width = 580;
},
{
background = {
shapes = (
{
closed = 1;
nodes = (
(305,-4,o),
(315,6,o),
(315,22,cs),
(315,246,ls),
(315,262,o),
(305,272,o),
(287,272,cs),
(269,272,o),
(260,263,o),
(260,246,cs),
(260,22,ls),
(260,6,o),
(269,-4,o),
(287,-4,cs)
);
},
{
closed = 1;
nodes = (
(336,142,ls),
(352,142,o),
(362,151,o),
(362,167,cs),
(362,183,o),
(352,192,o),
(336,192,cs),
(238,192,ls),
(222,192,o),
(212,183,o),
(212,167,cs),
(212,151,o),
(222,142,o),
(238,142,cs)
);
},
{
closed = 1;
nodes = (
(336,222,ls),
(352,222,o),
(362,231,o),
(362,247,cs),
(362,263,o),
(352,272,o),
(336,272,cs),
(238,272,ls),
(222,272,o),
(212,263,o),
(212,247,cs),
(212,231,o),
(222,222,o),
(238,222,cs)
);
},
{
closed = 1;
nodes = (
(305,201,o),
(315,211,o),
(315,227,cs),
(315,451,ls),
(315,467,o),
(305,477,o),
(287,477,cs),
(269,477,o),
(260,468,o),
(260,451,cs),
(260,227,ls),
(260,211,o),
(269,201,o),
(287,201,cs)
);
}
);
};
layerId = m002;
shapes = (
{
closed = 1;
nodes = (
(156,249,l),
(156,255,ls),
(156,398,o),
(238,457,o),
(310,457,cs),
(383,457,o),
(465,398,o),
(465,255,c),
(520,255,l),
(520,436,o),
(408,510,o),
(310,510,cs),
(213,510,o),
(121,436,o),
(121,255,cs),
(121,249,l)
);
},
{
pos = (-14,0);
ref = _chevron;
},
{
pos = (-14,0);
ref = _chevron;
},
{
pos = (-83,-406);
ref = _Bristles.small;
},
{
closed = 1;
nodes = (
(146,6,o),
(156,16,o),
(156,32,cs),
(156,700,ls),
(156,716,o),
(146,726,o),
(128,726,cs),
(110,726,o),
(101,717,o),
(101,700,cs),
(101,32,ls),
(101,16,o),
(110,6,o),
(128,6,cs)
);
},
{
pos = (340,0);
ref = _chevron;
},
{
pos = (340,0);
ref = _chevron;
},
{
closed = 1;
nodes = (
(510,6,o),
(520,16,o),
(520,32,cs),
(520,255,ls),
(520,271,o),
(510,281,o),
(492,281,cs),
(474,281,o),
(465,272,o),
(465,255,cs),
(465,32,ls),
(465,16,o),
(474,6,o),
(492,6,cs)
);
},
{
pos = (186,-406);
ref = _Bristles.small;
},
{
closed = 1;
nodes = (
(121,678,ls),
(136,678,o),
(143,680,o),
(146,685,cs),
(150,687,o),
(154,694,o),
(155,702,cs),
(155,709,o),
(150,716,o),
(145,721,cs),
(143,723,o),
(136,726,o),
(121,726,cs),
(70,726,ls),
(62,726,o),
(56,724,o),
(51,719,cs),
(46,715,o),
(45,709,o),
(45,702,cs),
(45,694,o),
(47,689,o),
(51,685,cs),
(56,680,o),
(62,678,o),
(70,678,cs)
);
}
);
width = 580;
},
{
background = {
shapes = (
{
closed = 1;
nodes = (
(336,182,ls),
(352,182,o),
(362,191,o),
(362,207,cs),
(362,223,o),
(352,232,o),
(336,232,cs),
(238,232,ls),
(222,232,o),
(212,223,o),
(212,207,cs),
(212,191,o),
(222,182,o),
(238,182,cs)
);
},
{
closed = 1;
nodes = (
(336,182,ls),
(352,182,o),
(362,191,o),
(362,207,cs),
(362,223,o),
(352,232,o),
(336,232,cs),
(238,232,ls),
(222,232,o),
(212,223,o),
(212,207,cs),
(212,191,o),
(222,182,o),
(238,182,cs)
);
},
{
closed = 1;
nodes = (
(305,188,o),
(315,198,o),
(315,214,cs),
(315,438,ls),
(315,454,o),
(305,464,o),
(287,464,cs),
(269,464,o),
(260,455,o),
(260,438,cs),
(260,214,ls),
(260,198,o),
(269,188,o),
(287,188,cs)
);
},
{
closed = 1;
nodes = (
(305,201,o),
(315,211,o),
(315,227,cs),
(315,451,ls),
(315,467,o),
(305,477,o),
(287,477,cs),
(269,477,o),
(260,468,o),
(260,451,cs),
(260,227,ls),
(260,211,o),
(269,201,o),
(287,201,cs)
);
}
);
};
layerId = m003;
shapes = (
{
closed = 1;
nodes = (
(156,249,l),
(156,255,ls),
(156,398,o),
(238,457,o),
(310,457,cs),
(383,457,o),
(465,398,o),
(465,255,c),
(520,255,l),
(520,436,o),
(408,510,o),
(310,510,cs),
(213,510,o),
(121,436,o),
(121,255,cs),
(121,249,l)
);
},
{
pos = (-14,0);
ref = _chevron;
},
{
pos = (-83,-406);
ref = _Bristles.small;
},
{
closed = 1;
nodes = (
(146,44,o),
(156,54,o),
(156,70,cs),
(156,700,ls),
(156,716,o),
(146,726,o),
(128,726,cs),
(110,726,o),
(101,717,o),
(101,700,cs),
(101,70,ls),
(101,54,o),
(110,44,o),
(128,44,cs)
);
},
{
pos = (340,0);
ref = _chevron;
},
{
closed = 1;
nodes = (
(510,46,o),
(520,56,o),
(520,72,cs),
(520,255,ls),
(520,271,o),
(510,281,o),
(492,281,cs),
(474,281,o),
(465,272,o),
(465,255,cs),
(465,72,ls),
(465,56,o),
(474,46,o),
(492,46,cs)
);
},
{
pos = (196,-406);
ref = _Bristles.small;
},
{
closed = 1;
nodes = (
(121,678,ls),
(136,678,o),
(143,680,o),
(146,685,cs),
(150,687,o),
(154,694,o),
(155,702,cs),
(155,709,o),
(150,716,o),
(145,721,cs),
(143,723,o),
(136,726,o),
(121,726,cs),
(70,726,ls),
(62,726,o),
(56,724,o),
(51,719,cs),
(46,715,o),
(45,709,o),
(45,702,cs),
(45,694,o),
(47,689,o),
(51,685,cs),
(56,680,o),
(62,678,o),
(70,678,cs)
);
}
);
width = 580;
}
);
metricLeft = n;
metricRight = n;
unicode = 104;
},
{
color = 5;
glyphname = i;
lastChange = "2024-01-05 20:54:49 +0000";
layers = (
{
layerId = m01;
shapes = (
{
closed = 1;
nodes = (
(136,0,o),
(146,10,o),
(146,26,cs),
(146,464,ls),
(146,480,o),
(136,490,o),
(118,490,cs),
(100,490,o),
(91,481,o),
(91,464,cs),
(91,26,ls),
(91,10,o),
(100,0,o),
(118,0,cs)
);
},
{
pos = (-29,50);
ref = _chevron;
},
{
closed = 1;
nodes = (
(111,442,ls),
(126,442,o),
(133,444,o),
(136,449,cs),
(140,451,o),
(144,458,o),
(145,466,cs),
(145,473,o),
(140,480,o),
(135,485,cs),
(133,487,o),
(126,490,o),
(111,490,cs),
(60,490,ls),
(52,490,o),
(46,488,o),
(41,483,cs),
(36,479,o),
(35,473,o),
(35,466,cs),
(35,458,o),
(37,453,o),
(41,449,cs),
(46,444,o),
(52,442,o),
(60,442,cs)
);
},
{
closed = 1;
nodes = (
(139,587,o),
(156,604,o),
(156,625,cs),
(156,645,o),
(139,662,o),
(118,662,cs),
(97,662,o),
(81,645,o),
(81,625,cs),
(81,604,o),
(97,587,o),
(118,587,cs)
);
}
);
width = 226;
},
{
background = {
shapes = (
{
closed = 1;
nodes = (
(91,459,o),
(101,450,o),
(117,450,cs),
(215,450,ls),
(231,450,o),
(241,459,o),
(241,475,cs),
(241,491,o),
(231,500,o),
(215,500,cs),
(117,500,ls),
(101,500,o),
(91,491,o),
(91,475,cs)
);
},
{
closed = 1;
nodes = (
(91,379,o),
(101,370,o),
(117,370,cs),
(215,370,ls),
(231,370,o),
(241,379,o),
(241,395,cs),
(241,411,o),
(231,420,o),
(215,420,cs),
(117,420,ls),
(101,420,o),
(91,411,o),
(91,395,cs)
);
}
);
};
layerId = m002;
shapes = (
{
closed = 1;
nodes = (
(136,21,o),
(146,31,o),
(146,47,cs),
(146,464,ls),
(146,480,o),
(136,490,o),
(118,490,cs),
(100,490,o),
(91,481,o),
(91,464,cs),
(91,47,ls),
(91,31,o),
(100,21,o),
(118,21,cs)
);
},
{
pos = (-29,0);
ref = _chevron;
},
{
closed = 1;
nodes = (
(111,442,ls),
(126,442,o),
(133,444,o),
(136,449,cs),
(140,451,o),
(144,458,o),
(145,466,cs),
(145,473,o),
(140,480,o),
(135,485,cs),
(133,487,o),
(126,490,o),
(111,490,cs),
(60,490,ls),
(52,490,o),
(46,488,o),
(41,483,cs),
(36,479,o),
(35,473,o),
(35,466,cs),
(35,458,o),
(37,453,o),
(41,449,cs),
(46,444,o),
(52,442,o),
(60,442,cs)
);
},
{
closed = 1;
nodes = (
(139,587,o),
(156,604,o),
(156,625,cs),
(156,645,o),
(139,662,o),
(118,662,cs),
(97,662,o),
(81,645,o),
(81,625,cs),
(81,604,o),
(97,587,o),
(118,587,cs)
);
}
);
width = 226;
},
{
layerId = m003;
shapes = (
{
closed = 1;
nodes = (
(136,41,o),
(146,51,o),
(146,67,cs),
(146,464,ls),
(146,480,o),
(136,490,o),
(118,490,cs),
(100,490,o),
(91,481,o),
(91,464,cs),
(91,67,ls),
(91,51,o),
(100,41,o),
(118,41,cs)
);
},
{
pos = (-29,0);
ref = _chevron;
},
{
closed = 1;
nodes = (
(111,442,ls),
(126,442,o),
(133,444,o),
(136,449,cs),
(140,451,o),
(144,458,o),
(145,466,cs),
(145,473,o),
(140,480,o),
(135,485,cs),
(133,487,o),
(126,490,o),
(111,490,cs),
(60,490,ls),
(52,490,o),
(46,488,o),
(41,483,cs),
(36,479,o),
(35,473,o),
(35,466,cs),
(35,458,o),
(37,453,o),
(41,449,cs),
(46,444,o),
(52,442,o),
(60,442,cs)
);
},
{
closed = 1;
nodes = (
(139,587,o),
(156,604,o),
(156,625,cs),
(156,645,o),
(139,662,o),
(118,662,cs),
(97,662,o),
(81,645,o),
(81,625,cs),
(81,604,o),
(97,587,o),
(118,587,cs)
);
}
);
width = 226;
}
);
unicode = 105;
},
{
color = 5;
glyphname = j;
lastChange = "2024-01-01 22:08:29 +0000";
layers = (
{
layerId = m01;
shapes = (
{
closed = 1;
nodes = (
(153,-309,o),
(206,-248,o),
(206,-157,cs),
(206,477,l),
(206,490,o),
(196,500,o),
(178,500,cs),
(162,500,o),
(151,490,o),
(151,477,cs),
(148,-142,ls),
(148,-208,o),
(126,-260,o),
(63,-260,cs),
(46,-260,o),
(31,-254,o),
(19,-243,cs),
(11,-235,o),
(3,-231,o),
(-6,-231,cs),
(-10,-231,o),
(-15,-232,o),
(-20,-236,cs),
(-26,-241,o),
(-30,-249,o),
(-30,-257,cs),
(-29,-263,o),
(-27,-270,o),
(-21,-276,cs),
(3,-300,o),
(33,-309,o),
(67,-309,cs)
);
},
{
closed = 1;
nodes = (
(201,588,o),
(218,605,o),
(218,626,cs),
(218,646,o),
(201,663,o),
(180,663,cs),
(159,663,o),
(143,646,o),
(143,626,cs),
(143,605,o),
(159,588,o),
(180,588,cs)
);
},
{
closed = 1;
nodes = (
(205,483,o),
(200,490,o),
(195,495,cs),
(193,497,o),
(186,500,o),
(171,500,cs),
(120,500,ls),
(112,500,o),
(106,498,o),
(101,493,cs),
(96,489,o),
(95,483,o),
(95,476,cs),
(95,468,o),
(97,463,o),
(101,459,cs),
(106,454,o),
(112,452,o),
(120,452,cs),
(171,452,ls),
(186,452,o),
(193,454,o),
(196,459,cs),
(200,461,o),
(204,468,o),
(205,476,cs)
);
},
{
pos = (-153,-135);
ref = _Bristles.large;
}
);
width = 288;
},
{
layerId = m002;
shapes = (
{
closed = 1;
nodes = (
(153,-309,o),
(206,-248,o),
(206,-157,cs),
(206,477,l),
(206,490,o),
(196,500,o),
(178,500,cs),
(162,500,o),
(151,490,o),
(151,477,cs),
(148,-142,ls),
(148,-208,o),
(126,-260,o),
(63,-260,cs),
(46,-260,o),
(31,-254,o),
(19,-243,cs),
(11,-235,o),
(3,-231,o),
(-6,-231,cs),
(-10,-231,o),
(-15,-232,o),
(-20,-236,cs),
(-26,-241,o),
(-30,-249,o),
(-30,-257,cs),
(-29,-263,o),
(-27,-270,o),
(-21,-276,cs),
(3,-300,o),
(33,-309,o),
(67,-309,cs)
);
},
{
closed = 1;
nodes = (
(201,588,o),
(218,605,o),
(218,626,cs),
(218,646,o),
(201,663,o),
(180,663,cs),
(159,663,o),
(143,646,o),
(143,626,cs),
(143,605,o),
(159,588,o),
(180,588,cs)
);
},
{
closed = 1;
nodes = (
(205,483,o),
(200,490,o),
(195,495,cs),
(193,497,o),
(186,500,o),
(171,500,cs),
(120,500,ls),
(112,500,o),
(106,498,o),
(101,493,cs),
(96,489,o),
(95,483,o),
(95,476,cs),
(95,468,o),
(97,463,o),
(101,459,cs),
(106,454,o),
(112,452,o),
(120,452,cs),
(171,452,ls),
(186,452,o),
(193,454,o),
(196,459,cs),
(200,461,o),
(204,468,o),
(205,476,cs)
);
},
{
pos = (-153,-135);
ref = _Bristles.large;
}
);
width = 288;
},
{
layerId = m003;
shapes = (
{
closed = 1;
nodes = (
(153,-309,o),
(206,-248,o),
(206,-157,cs),
(206,477,l),
(206,490,o),
(196,500,o),
(178,500,cs),
(162,500,o),
(151,490,o),
(151,477,cs),
(148,-142,ls),
(148,-208,o),
(126,-260,o),
(63,-260,cs),
(46,-260,o),
(31,-254,o),
(19,-243,cs),
(11,-235,o),
(3,-231,o),
(-6,-231,cs),
(-10,-231,o),
(-15,-232,o),
(-20,-236,cs),
(-26,-241,o),
(-30,-249,o),
(-30,-257,cs),
(-29,-263,o),
(-27,-270,o),
(-21,-276,cs),
(3,-300,o),
(33,-309,o),
(67,-309,cs)
);
},
{
closed = 1;
nodes = (
(201,588,o),
(218,605,o),
(218,626,cs),
(218,646,o),
(201,663,o),
(180,663,cs),
(159,663,o),
(143,646,o),
(143,626,cs),
(143,605,o),
(159,588,o),
(180,588,cs)
);
},
{
closed = 1;
nodes = (
(205,483,o),
(200,490,o),
(195,495,cs),
(193,497,o),
(186,500,o),
(171,500,cs),
(120,500,ls),
(112,500,o),
(106,498,o),
(101,493,cs),
(96,489,o),
(95,483,o),
(95,476,cs),
(95,468,o),
(97,463,o),
(101,459,cs),
(106,454,o),
(112,452,o),
(120,452,cs),
(171,452,ls),
(186,452,o),
(193,454,o),
(196,459,cs),
(200,461,o),
(204,468,o),
(205,476,cs)
);
},
{
pos = (-153,-135);
ref = _Bristles.large;
}
);
width = 288;
}
);
unicode = 106;
},
{
color = 5;
glyphname = k;
lastChange = "2024-01-02 16:08:10 +0000";
layers = (
{
layerId = m01;
shapes = (
{
closed = 1;
nodes = (
(451,0,o),
(463,13,o),
(463,31,cs),
(463,103,o),
(452,175,o),
(409,230,cs),
(380,267,o),
(333,302,o),
(258,314,c),
(402,457,ls),
(408,463,o),
(413,470,o),
(413,481,cs),
(413,490,o),
(405,505,o),
(384,505,cs),
(376,505,o),
(370,502,o),
(364,496,cs),
(91,230,l),
(136,192,l),
(216,271,l),
(374,255,o),
(401,156,o),
(408,32,cs),
(409,13,o),
(421,0,o),
(437,0,cs)
);
},
{
closed = 1;
nodes = (
(131,0,o),
(141,10,o),
(141,26,cs),
(141,700,ls),
(141,716,o),
(131,726,o),
(113,726,cs),
(95,726,o),
(86,717,o),
(86,700,cs),
(86,26,ls),
(86,10,o),
(95,0,o),
(113,0,cs)
);
},
{
closed = 1;
nodes = (
(140,709,o),
(135,716,o),
(130,721,cs),
(128,723,o),
(121,726,o),
(106,726,cs),
(55,726,ls),
(47,726,o),
(41,724,o),
(36,719,cs),
(31,715,o),
(30,709,o),
(30,702,cs),
(30,694,o),
(32,689,o),
(36,685,cs),
(41,680,o),
(47,678,o),
(55,678,cs),
(106,678,ls),
(121,678,o),
(128,680,o),
(131,685,cs),
(135,687,o),
(139,694,o),
(140,702,cs)
);
},
{
pos = (-34,50);
ref = _chevron;
},
{
pos = (-98,-161);
ref = _Bristles.small;
},
{
pos = (280,50);
ref = _chevron;
}
);
width = 503;
},
{
layerId = m002;
shapes = (
{
closed = 1;
nodes = (
(450,5,o),
(462,18,o),
(462,36,cs),
(462,103,o),
(452,175,o),
(409,230,cs),
(380,267,o),
(333,302,o),
(258,314,c),
(402,457,ls),
(408,463,o),
(413,470,o),
(413,481,cs),
(413,490,o),
(405,505,o),
(384,505,cs),
(376,505,o),
(370,502,o),
(364,496,cs),
(91,230,l),
(136,192,l),
(216,271,l),
(374,255,o),
(400,156,o),
(407,37,cs),
(408,18,o),
(420,5,o),
(436,5,cs)
);
},
{
closed = 1;
nodes = (
(131,16,o),
(141,26,o),
(141,42,cs),
(141,700,ls),
(141,716,o),
(131,726,o),
(113,726,cs),
(95,726,o),
(86,717,o),
(86,700,cs),
(86,42,ls),
(86,26,o),
(95,16,o),
(113,16,cs)
);
},
{
closed = 1;
nodes = (
(140,709,o),
(135,716,o),
(130,721,cs),
(128,723,o),
(121,726,o),
(106,726,cs),
(55,726,ls),
(47,726,o),
(41,724,o),
(36,719,cs),
(31,715,o),
(30,709,o),
(30,702,cs),
(30,694,o),
(32,689,o),
(36,685,cs),
(41,680,o),
(47,678,o),
(55,678,cs),
(106,678,ls),
(121,678,o),
(128,680,o),
(131,685,cs),
(135,687,o),
(139,694,o),
(140,702,cs)
);
},
{
pos = (-29,0);
ref = _chevron;
},
{
pos = (280,0);
ref = _chevron;
},
{
pos = (-98,-161);
ref = _Bristles.small;
}
);
width = 503;
},
{
layerId = m003;
shapes = (
{
closed = 1;
nodes = (
(446,41,o),
(458,54,o),
(458,72,cs),
(458,103,o),
(452,175,o),
(409,230,cs),
(380,267,o),
(333,302,o),
(258,314,c),
(402,457,ls),
(408,463,o),
(413,470,o),
(413,481,cs),
(413,490,o),
(405,505,o),
(384,505,cs),
(376,505,o),
(370,502,o),
(364,496,cs),
(91,230,l),
(136,192,l),
(216,271,l),
(374,255,o),
(396,156,o),
(403,72,cs),
(404,54,o),
(416,41,o),
(432,41,cs)
);
},
{
closed = 1;
nodes = (
(131,36,o),
(141,46,o),
(141,62,cs),
(141,700,ls),
(141,716,o),
(131,726,o),
(113,726,cs),
(95,726,o),
(86,717,o),
(86,700,cs),
(86,62,ls),
(86,46,o),
(95,36,o),
(113,36,cs)
);
},
{
closed = 1;
nodes = (
(140,709,o),
(135,716,o),
(130,721,cs),
(128,723,o),
(121,726,o),
(106,726,cs),
(55,726,ls),
(47,726,o),
(41,724,o),
(36,719,cs),
(31,715,o),
(30,709,o),
(30,702,cs),
(30,694,o),
(32,689,o),
(36,685,cs),
(41,680,o),
(47,678,o),
(55,678,cs),
(106,678,ls),
(121,678,o),
(128,680,o),
(131,685,cs),
(135,687,o),
(139,694,o),
(140,702,cs)
);
},
{
pos = (-29,0);
ref = _chevron;
},
{
pos = (280,0);
ref = _chevron;
},
{
pos = (-98,-161);
ref = _Bristles.small;
}
);
width = 503;
}
);
metricLeft = b;
unicode = 107;
},
{
color = 5;
glyphname = l;
lastChange = "2024-01-02 23:36:47 +0000";
layers = (
{
layerId = m01;
shapes = (
{
closed = 1;
nodes = (
(141,0,o),
(151,10,o),
(151,26,cs),
(151,700,ls),
(151,716,o),
(141,726,o),
(123,726,cs),
(105,726,o),
(96,717,o),
(96,700,cs),
(96,26,ls),
(96,10,o),
(105,0,o),
(123,0,cs)
);
},
{
closed = 1;
nodes = (
(150,709,o),
(145,716,o),
(140,721,cs),
(138,723,o),
(131,726,o),
(116,726,cs),
(65,726,ls),
(57,726,o),
(51,724,o),
(46,719,cs),
(41,715,o),
(40,709,o),
(40,702,cs),
(40,694,o),
(42,689,o),
(46,685,cs),
(51,680,o),
(57,678,o),
(65,678,cs),
(116,678,ls),
(131,678,o),
(138,680,o),
(141,685,cs),
(145,687,o),
(149,694,o),
(150,702,cs)
);
},
{
pos = (-24,50);
ref = _chevron;
}
);
width = 221;
},
{
layerId = m002;
shapes = (
{
closed = 1;
nodes = (
(141,6,o),
(151,16,o),
(151,32,cs),
(151,700,ls),
(151,716,o),
(141,726,o),
(123,726,cs),
(105,726,o),
(96,717,o),
(96,700,cs),
(96,32,ls),
(96,16,o),
(105,6,o),
(123,6,cs)
);
},
{
closed = 1;
nodes = (
(150,709,o),
(145,716,o),
(140,721,cs),
(138,723,o),
(131,726,o),
(116,726,cs),
(65,726,ls),
(57,726,o),
(51,724,o),
(46,719,cs),
(41,715,o),
(40,709,o),
(40,702,cs),
(40,694,o),
(42,689,o),
(46,685,cs),
(51,680,o),
(57,678,o),
(65,678,cs),
(116,678,ls),
(131,678,o),
(138,680,o),
(141,685,cs),
(145,687,o),
(149,694,o),
(150,702,cs)
);
},
{
pos = (-24,0);
ref = _chevron;
}
);
width = 221;
},
{
layerId = m003;
shapes = (
{
closed = 1;
nodes = (
(141,36,o),
(151,46,o),
(151,62,cs),
(151,700,ls),
(151,716,o),
(141,726,o),
(123,726,cs),
(105,726,o),
(96,717,o),
(96,700,cs),
(96,62,ls),
(96,46,o),
(105,36,o),
(123,36,cs)
);
},
{
closed = 1;
nodes = (
(150,709,o),
(145,716,o),
(140,721,cs),
(138,723,o),
(131,726,o),
(116,726,cs),
(65,726,ls),
(57,726,o),
(51,724,o),
(46,719,cs),
(41,715,o),
(40,709,o),
(40,702,cs),
(40,694,o),
(42,689,o),
(46,685,cs),
(51,680,o),
(57,678,o),
(65,678,cs),
(116,678,ls),
(131,678,o),
(138,680,o),
(141,685,cs),
(145,687,o),
(149,694,o),
(150,702,cs)
);
},
{
pos = (-24,0);
ref = _chevron;
}
);
width = 221;
}
);
unicode = 108;
},
{
color = 5;
glyphname = m;
lastChange = "2024-01-01 21:31:39 +0000";
layers = (
{
guides = (
{
angle = 270;
pos = (431,237);
showMeasurement = 1;
}
);
layerId = m01;
shapes = (
{
closed = 1;
nodes = (
(156,250,l),
(156,393,o),
(248,459,o),
(310,459,cs),
(373,459,o),
(437,393,o),
(437,250,c),
(492,250,l),
(492,441,o),
(398,509,o),
(310,509,cs),
(223,509,o),
(121,431,o),
(121,250,c)
);
},
{
closed = 1;
nodes = (
(149,0,o),
(159,10,o),
(159,26,cs),
(159,475,ls),
(159,491,o),
(149,501,o),
(131,501,cs),
(113,501,o),
(104,492,o),
(104,475,cs),
(104,26,ls),
(104,10,o),
(113,0,o),
(131,0,cs)
);
},
{
closed = 1;
nodes = (
(482,0,o),
(492,10,o),
(492,26,cs),
(492,274,ls),
(492,290,o),
(482,300,o),
(464,300,cs),
(446,300,o),
(437,291,o),
(437,274,cs),
(437,26,ls),
(437,10,o),
(446,0,o),
(464,0,cs)
);
},
{
closed = 1;
nodes = (
(816,0,o),
(826,10,o),
(826,26,cs),
(826,256,ls),
(826,272,o),
(816,282,o),
(798,282,cs),
(780,282,o),
(771,273,o),
(771,256,cs),
(771,26,ls),
(771,10,o),
(780,0,o),
(798,0,cs)
);
},
{
closed = 1;
nodes = (
(492,252,l),
(492,395,o),
(566,461,o),
(635,461,cs),
(698,461,o),
(771,405,o),
(771,252,c),
(826,252,l),
(826,453,o),
(723,511,o),
(635,511,cs),
(532,511,o),
(457,433,o),
(457,252,c)
);
},
{
closed = 1;
nodes = (
(155,483,o),
(150,490,o),
(145,495,cs),
(143,497,o),
(136,500,o),
(121,500,cs),
(70,500,ls),
(62,500,o),
(56,498,o),
(51,493,cs),
(46,489,o),
(45,483,o),
(45,476,cs),
(45,468,o),
(47,463,o),
(51,459,cs),
(56,454,o),
(62,452,o),
(70,452,cs),
(121,452,ls),
(136,452,o),
(143,454,o),
(146,459,cs),
(150,461,o),
(154,468,o),
(155,476,cs)
);
},
{
pos = (317,50);
ref = _chevron;
},
{
pos = (133,-145);
ref = _bones.short;
},
{
pos = (492,-488);
ref = _Bristles.small;
},
{
pos = (-70,-488);
ref = _Bristles.small;
}
);
width = 886;
},
{
layerId = m002;
shapes = (
{
closed = 1;
nodes = (
(156,250,l),
(156,393,o),
(248,459,o),
(310,459,cs),
(373,459,o),
(437,393,o),
(437,250,c),
(492,250,l),
(492,441,o),
(398,509,o),
(310,509,cs),
(223,509,o),
(121,431,o),
(121,250,c)
);
},
{
closed = 1;
nodes = (
(149,-4,o),
(159,6,o),
(159,22,cs),
(159,475,ls),
(159,491,o),
(149,501,o),
(131,501,cs),
(113,501,o),
(104,492,o),
(104,475,cs),
(104,22,ls),
(104,6,o),
(113,-4,o),
(131,-4,cs)
);
},
{
closed = 1;
nodes = (
(482,6,o),
(492,16,o),
(492,32,cs),
(492,274,ls),
(492,290,o),
(482,300,o),
(464,300,cs),
(446,300,o),
(437,291,o),
(437,274,cs),
(437,32,ls),
(437,16,o),
(446,6,o),
(464,6,cs)
);
},
{
closed = 1;
nodes = (
(816,-4,o),
(826,6,o),
(826,22,cs),
(826,256,ls),
(826,272,o),
(816,282,o),
(798,282,cs),
(780,282,o),
(771,273,o),
(771,256,cs),
(771,22,ls),
(771,6,o),
(780,-4,o),
(798,-4,cs)
);
},
{
closed = 1;
nodes = (
(492,252,l),
(492,395,o),
(566,461,o),
(635,461,cs),
(698,461,o),
(771,405,o),
(771,252,c),
(826,252,l),
(826,453,o),
(723,511,o),
(635,511,cs),
(532,511,o),
(457,433,o),
(457,252,c)
);
},
{
closed = 1;
nodes = (
(155,483,o),
(150,490,o),
(145,495,cs),
(143,497,o),
(136,500,o),
(121,500,cs),
(70,500,ls),
(62,500,o),
(56,498,o),
(51,493,cs),
(46,489,o),
(45,483,o),
(45,476,cs),
(45,468,o),
(47,463,o),
(51,459,cs),
(56,454,o),
(62,452,o),
(70,452,cs),
(121,452,ls),
(136,452,o),
(143,454,o),
(146,459,cs),
(150,461,o),
(154,468,o),
(155,476,cs)
);
},
{
pos = (317,0);
ref = _chevron;
},
{
pos = (133,-145);
ref = _bones.short;
},
{
pos = (492,-488);
ref = _Bristles.small;
},
{
pos = (-70,-488);
ref = _Bristles.small;
}
);
width = 886;
},
{
layerId = m003;
shapes = (
{
closed = 1;
nodes = (
(156,250,l),
(156,393,o),
(248,459,o),
(310,459,cs),
(373,459,o),
(437,393,o),
(437,250,c),
(492,250,l),
(492,441,o),
(398,509,o),
(310,509,cs),
(223,509,o),
(121,431,o),
(121,250,c)
);
},
{
closed = 1;
nodes = (
(149,-4,o),
(159,6,o),
(159,22,cs),
(159,475,ls),
(159,491,o),
(149,501,o),
(131,501,cs),
(113,501,o),
(104,492,o),
(104,475,cs),
(104,22,ls),
(104,6,o),
(113,-4,o),
(131,-4,cs)
);
},
{
closed = 1;
nodes = (
(482,38,o),
(492,48,o),
(492,64,cs),
(492,274,ls),
(492,290,o),
(482,300,o),
(464,300,cs),
(446,300,o),
(437,291,o),
(437,274,cs),
(437,64,ls),
(437,48,o),
(446,38,o),
(464,38,cs)
);
},
{
closed = 1;
nodes = (
(816,-4,o),
(826,6,o),
(826,22,cs),
(826,256,ls),
(826,272,o),
(816,282,o),
(798,282,cs),
(780,282,o),
(771,273,o),
(771,256,cs),
(771,22,ls),
(771,6,o),
(780,-4,o),
(798,-4,cs)
);
},
{
closed = 1;
nodes = (
(492,252,l),
(492,395,o),
(566,461,o),
(635,461,cs),
(698,461,o),
(771,405,o),
(771,252,c),
(826,252,l),
(826,453,o),
(723,511,o),
(635,511,cs),
(532,511,o),
(457,433,o),
(457,252,c)
);
},
{
closed = 1;
nodes = (
(155,483,o),
(150,490,o),
(145,495,cs),
(143,497,o),
(136,500,o),
(121,500,cs),
(70,500,ls),
(62,500,o),
(56,498,o),
(51,493,cs),
(46,489,o),
(45,483,o),
(45,476,cs),
(45,468,o),
(47,463,o),
(51,459,cs),
(56,454,o),
(62,452,o),
(70,452,cs),
(121,452,ls),
(136,452,o),
(143,454,o),
(146,459,cs),
(150,461,o),
(154,468,o),
(155,476,cs)
);
},
{
pos = (317,0);
ref = _chevron;
},
{
pos = (133,-145);
ref = _bones.short;
},
{
pos = (492,-488);
ref = _Bristles.small;
},
{
pos = (-70,-488);
ref = _Bristles.small;
}
);
width = 886;
}
);
metricLeft = n;
metricRight = n;
unicode = 109;
},
{
color = 5;
glyphname = n;
lastChange = "2024-01-05 20:55:05 +0000";
layers = (
{
guides = (
{
pos = (329,60);
showMeasurement = 1;
}
);
layerId = m01;
shapes = (
{
closed = 1;
nodes = (
(153,250,l),
(153,393,o),
(245,457,o),
(337,457,cs),
(430,457,o),
(492,393,o),
(492,250,c),
(547,250,l),
(547,431,o),
(455,510,o),
(337,510,cs),
(220,510,o),
(118,431,o),
(118,250,c)
);
},
{
pos = (-80,-488);
ref = _Bristles.small;
},
{
closed = 1;
nodes = (
(149,-4,o),
(159,6,o),
(159,22,cs),
(159,474,ls),
(159,490,o),
(149,500,o),
(131,500,cs),
(113,500,o),
(104,491,o),
(104,474,cs),
(104,22,ls),
(104,6,o),
(113,-4,o),
(131,-4,cs)
);
},
{
closed = 1;
nodes = (
(121,452,ls),
(136,452,o),
(143,454,o),
(146,459,cs),
(150,461,o),
(154,468,o),
(155,476,cs),
(155,483,o),
(150,490,o),
(145,495,cs),
(143,497,o),
(136,500,o),
(121,500,cs),
(70,500,ls),
(62,500,o),
(56,498,o),
(51,493,cs),
(46,489,o),
(45,483,o),
(45,476,cs),
(45,468,o),
(47,463,o),
(51,459,cs),
(56,454,o),
(62,452,o),
(70,452,cs)
);
},
{
pos = (223,-488);
ref = _Bristles.small;
},
{
closed = 1;
nodes = (
(537,-4,o),
(547,6,o),
(547,22,cs),
(547,250,ls),
(547,266,o),
(537,276,o),
(519,276,cs),
(501,276,o),
(492,267,o),
(492,250,cs),
(492,22,ls),
(492,6,o),
(501,-4,o),
(519,-4,cs)
);
}
);
width = 607;
},
{
layerId = m002;
shapes = (
{
closed = 1;
nodes = (
(153,250,l),
(153,393,o),
(245,457,o),
(337,457,cs),
(430,457,o),
(492,393,o),
(492,250,c),
(547,250,l),
(547,431,o),
(455,510,o),
(337,510,cs),
(220,510,o),
(118,431,o),
(118,250,c)
);
},
{
pos = (-80,-488);
ref = _Bristles.small;
},
{
closed = 1;
nodes = (
(149,-4,o),
(159,6,o),
(159,22,cs),
(159,474,ls),
(159,490,o),
(149,500,o),
(131,500,cs),
(113,500,o),
(104,491,o),
(104,474,cs),
(104,22,ls),
(104,6,o),
(113,-4,o),
(131,-4,cs)
);
},
{
closed = 1;
nodes = (
(121,452,ls),
(136,452,o),
(143,454,o),
(146,459,cs),
(150,461,o),
(154,468,o),
(155,476,cs),
(155,483,o),
(150,490,o),
(145,495,cs),
(143,497,o),
(136,500,o),
(121,500,cs),
(70,500,ls),
(62,500,o),
(56,498,o),
(51,493,cs),
(46,489,o),
(45,483,o),
(45,476,cs),
(45,468,o),
(47,463,o),
(51,459,cs),
(56,454,o),
(62,452,o),
(70,452,cs)
);
},
{
pos = (223,-488);
ref = _Bristles.small;
},
{
closed = 1;
nodes = (
(537,-4,o),
(547,6,o),
(547,22,cs),
(547,250,ls),
(547,266,o),
(537,276,o),
(519,276,cs),
(501,276,o),
(492,267,o),
(492,250,cs),
(492,22,ls),
(492,6,o),
(501,-4,o),
(519,-4,cs)
);
}
);
width = 607;
},
{
layerId = m003;
shapes = (
{
closed = 1;
nodes = (
(153,250,l),
(153,393,o),
(245,457,o),
(337,457,cs),
(430,457,o),
(492,393,o),
(492,250,c),
(547,250,l),
(547,431,o),
(455,510,o),
(337,510,cs),
(220,510,o),
(118,431,o),
(118,250,c)
);
},
{
pos = (-80,-488);
ref = _Bristles.small;
},
{
closed = 1;
nodes = (
(149,-4,o),
(159,6,o),
(159,22,cs),
(159,474,ls),
(159,490,o),
(149,500,o),
(131,500,cs),
(113,500,o),
(104,491,o),
(104,474,cs),
(104,22,ls),
(104,6,o),
(113,-4,o),
(131,-4,cs)
);
},
{
closed = 1;
nodes = (
(121,452,ls),
(136,452,o),
(143,454,o),
(146,459,cs),
(150,461,o),
(154,468,o),
(155,476,cs),
(155,483,o),
(150,490,o),
(145,495,cs),
(143,497,o),
(136,500,o),
(121,500,cs),
(70,500,ls),
(62,500,o),
(56,498,o),
(51,493,cs),
(46,489,o),
(45,483,o),
(45,476,cs),
(45,468,o),
(47,463,o),
(51,459,cs),
(56,454,o),
(62,452,o),
(70,452,cs)
);
},
{
pos = (223,-488);
ref = _Bristles.small;
},
{
closed = 1;
nodes = (
(537,-4,o),
(547,6,o),
(547,22,cs),
(547,250,ls),
(547,266,o),
(537,276,o),
(519,276,cs),
(501,276,o),
(492,267,o),
(492,250,cs),
(492,22,ls),
(492,6,o),
(501,-4,o),
(519,-4,cs)
);
}
);
width = 607;
}
);
unicode = 110;
},
{
color = 5;
glyphname = o;
lastChange = "2024-01-05 20:54:58 +0000";
layers = (
{
guides = (
{
angle = 180;
pos = (310,250);
showMeasurement = 1;
}
);
layerId = m01;
shapes = (
{
closed = 1;
nodes = (
(437,-10,o),
(570,66,o),
(570,250,cs),
(570,434,o),
(437,510,o),
(310,510,cs),
(183,510,o),
(50,434,o),
(50,250,cs),
(50,66,o),
(183,-10,o),
(310,-10,cs)
);
},
{
pos = (-44,0);
ref = _kebab.long;
},
{
closed = 1;
nodes = (
(211,40,o),
(105,104,o),
(105,250,cs),
(105,396,o),
(211,460,o),
(310,460,cs),
(409,460,o),
(515,396,o),
(515,250,cs),
(515,104,o),
(409,40,o),
(310,40,cs)
);
}
);
width = 620;
},
{
guides = (
{
angle = 180;
pos = (310,250);
showMeasurement = 1;
}
);
layerId = m002;
shapes = (
{
closed = 1;
nodes = (
(437,-10,o),
(570,66,o),
(570,250,cs),
(570,434,o),
(437,510,o),
(310,510,cs),
(183,510,o),
(50,434,o),
(50,250,cs),
(50,66,o),
(183,-10,o),
(310,-10,cs)
);
},
{
pos = (-44,0);
ref = _kebab.long;
},
{
closed = 1;
nodes = (
(211,40,o),
(105,104,o),
(105,250,cs),
(105,396,o),
(211,460,o),
(310,460,cs),
(409,460,o),
(515,396,o),
(515,250,cs),
(515,104,o),
(409,40,o),
(310,40,cs)
);
}
);
width = 620;
},
{
guides = (
{
angle = 180;
pos = (310,250);
showMeasurement = 1;
}
);
layerId = m003;
shapes = (
{
closed = 1;
nodes = (
(437,-10,o),
(570,66,o),
(570,250,cs),
(570,434,o),
(437,510,o),
(310,510,cs),
(183,510,o),
(50,434,o),
(50,250,cs),
(50,66,o),
(183,-10,o),
(310,-10,cs)
);
},
{
pos = (-44,0);
ref = _kebab.long;
},
{
closed = 1;
nodes = (
(211,40,o),
(105,104,o),
(105,250,cs),
(105,396,o),
(211,460,o),
(310,460,cs),
(409,460,o),
(515,396,o),
(515,250,cs),
(515,104,o),
(409,40,o),
(310,40,cs)
);
}
);
width = 620;
}
);
unicode = 111;
},
{
color = 5;
glyphname = p;
lastChange = "2024-01-02 21:17:46 +0000";
layers = (
{
layerId = m01;
shapes = (
{
closed = 1;
nodes = (
(219,505,o),
(125,407,o),
(125,251,cs),
(125,66,o),
(226,-9,o),
(346,-9,cs),
(465,-9,o),
(587,66,o),
(587,251,cs),
(587,407,o),
(473,505,o),
(346,505,cs)
);
},
{
closed = 1;
nodes = (
(443,455,o),
(532,374,o),
(532,250,cs),
(532,104,o),
(438,41,o),
(346,41,cs),
(253,41,o),
(160,104,o),
(160,250,cs),
(160,374,o),
(249,455,o),
(346,455,cs)
);
},
{
closed = 1;
nodes = (
(114,500,o),
(104,490,o),
(104,474,cs),
(104,-274,ls),
(104,-290,o),
(114,-300,o),
(132,-300,cs),
(150,-300,o),
(159,-291,o),
(159,-274,cs),
(159,474,ls),
(159,490,o),
(150,500,o),
(132,500,cs)
);
},
{
closed = 1;
nodes = (
(155,483,o),
(150,490,o),
(145,495,cs),
(143,497,o),
(136,500,o),
(121,500,cs),
(70,500,ls),
(62,500,o),
(56,498,o),
(51,493,cs),
(46,489,o),
(45,483,o),
(45,476,cs),
(45,468,o),
(47,463,o),
(51,459,cs),
(56,454,o),
(62,452,o),
(70,452,cs),
(121,452,ls),
(136,452,o),
(143,454,o),
(146,459,cs),
(150,461,o),
(154,468,o),
(155,476,cs)
);
},
{
pos = (0,-6);
ref = _kebab.long;
},
{
pos = (-10,-250);
ref = _chevron;
}
);
width = 637;
},
{
layerId = m002;
shapes = (
{
closed = 1;
nodes = (
(219,505,o),
(125,407,o),
(125,251,cs),
(125,66,o),
(226,-9,o),
(346,-9,cs),
(465,-9,o),
(587,66,o),
(587,251,cs),
(587,407,o),
(473,505,o),
(346,505,cs)
);
},
{
closed = 1;
nodes = (
(443,455,o),
(532,374,o),
(532,250,cs),
(532,104,o),
(438,41,o),
(346,41,cs),
(253,41,o),
(160,104,o),
(160,250,cs),
(160,374,o),
(249,455,o),
(346,455,cs)
);
},
{
closed = 1;
nodes = (
(114,500,o),
(104,490,o),
(104,474,cs),
(104,-274,ls),
(104,-290,o),
(114,-300,o),
(132,-300,cs),
(150,-300,o),
(159,-291,o),
(159,-274,cs),
(159,474,ls),
(159,490,o),
(150,500,o),
(132,500,cs)
);
},
{
closed = 1;
nodes = (
(155,483,o),
(150,490,o),
(145,495,cs),
(143,497,o),
(136,500,o),
(121,500,cs),
(70,500,ls),
(62,500,o),
(56,498,o),
(51,493,cs),
(46,489,o),
(45,483,o),
(45,476,cs),
(45,468,o),
(47,463,o),
(51,459,cs),
(56,454,o),
(62,452,o),
(70,452,cs),
(121,452,ls),
(136,452,o),
(143,454,o),
(146,459,cs),
(150,461,o),
(154,468,o),
(155,476,cs)
);
},
{
pos = (0,-6);
ref = _kebab.long;
},
{
pos = (-10,-300);
ref = _chevron;
}
);
width = 637;
},
{
layerId = m003;
shapes = (
{
closed = 1;
nodes = (
(219,505,o),
(125,407,o),
(125,251,cs),
(125,66,o),
(226,-9,o),
(346,-9,cs),
(465,-9,o),
(587,66,o),
(587,251,cs),
(587,407,o),
(473,505,o),
(346,505,cs)
);
},
{
closed = 1;
nodes = (
(443,455,o),
(532,374,o),
(532,250,cs),
(532,104,o),
(438,41,o),
(346,41,cs),
(253,41,o),
(160,104,o),
(160,250,cs),
(160,374,o),
(249,455,o),
(346,455,cs)
);
},
{
closed = 1;
nodes = (
(114,500,o),
(104,490,o),
(104,474,cs),
(104,-234,ls),
(104,-250,o),
(114,-260,o),
(132,-260,cs),
(150,-260,o),
(159,-251,o),
(159,-234,cs),
(159,474,ls),
(159,490,o),
(150,500,o),
(132,500,cs)
);
},
{
closed = 1;
nodes = (
(155,483,o),
(150,490,o),
(145,495,cs),
(143,497,o),
(136,500,o),
(121,500,cs),
(70,500,ls),
(62,500,o),
(56,498,o),
(51,493,cs),
(46,489,o),
(45,483,o),
(45,476,cs),
(45,468,o),
(47,463,o),
(51,459,cs),
(56,454,o),
(62,452,o),
(70,452,cs),
(121,452,ls),
(136,452,o),
(143,454,o),
(146,459,cs),
(150,461,o),
(154,468,o),
(155,476,cs)
);
},
{
pos = (0,-6);
ref = _kebab.long;
},
{
pos = (-10,-300);
ref = _chevron;
}
);
width = 637;
}
);
metricLeft = h;
metricRight = o;
unicode = 112;
},
{
color = 5;
glyphname = q;
lastChange = "2024-01-02 22:30:57 +0000";
layers = (
{
layerId = m01;
shapes = (
{
closed = 1;
nodes = (
(410,-9,o),
(512,66,o),
(512,251,cs),
(512,407,o),
(418,505,o),
(291,505,cs),
(164,505,o),
(50,407,o),
(50,251,cs),
(50,66,o),
(171,-9,o),
(291,-9,cs)
);
},
{
closed = 1;
nodes = (
(198,41,o),
(105,104,o),
(105,250,cs),
(105,374,o),
(194,455,o),
(291,455,cs),
(388,455,o),
(477,374,o),
(477,250,cs),
(477,104,o),
(383,41,o),
(291,41,cs)
);
},
{
closed = 1;
nodes = (
(523,-300,o),
(532,-291,o),
(532,-274,cs),
(532,474,ls),
(532,490,o),
(523,500,o),
(505,500,cs),
(487,500,o),
(477,490,o),
(477,474,cs),
(477,-274,ls),
(477,-290,o),
(487,-300,o),
(505,-300,cs)
);
},
{
closed = 1;
nodes = (
(479,468,o),
(485,462,o),
(488,459,cs),
(492,455,o),
(498,452,o),
(513,452,cs),
(564,452,ls),
(572,452,o),
(578,454,o),
(583,459,cs),
(587,463,o),
(589,468,o),
(589,476,cs),
(589,483,o),
(588,488,o),
(583,493,cs),
(578,498,o),
(572,500,o),
(564,500,cs),
(513,500,ls),
(498,500,o),
(491,497,o),
(489,495,cs),
(484,490,o),
(479,483,o),
(479,476,cs)
);
},
{
pos = (163,-6);
ref = _kebab.long;
},
{
pos = (358,-250);
ref = _chevron;
}
);
width = 619;
},
{
layerId = m002;
shapes = (
{
closed = 1;
nodes = (
(410,-9,o),
(512,66,o),
(512,251,cs),
(512,407,o),
(418,505,o),
(291,505,cs),
(164,505,o),
(50,407,o),
(50,251,cs),
(50,66,o),
(171,-9,o),
(291,-9,cs)
);
},
{
closed = 1;
nodes = (
(198,41,o),
(105,104,o),
(105,250,cs),
(105,374,o),
(194,455,o),
(291,455,cs),
(388,455,o),
(477,374,o),
(477,250,cs),
(477,104,o),
(383,41,o),
(291,41,cs)
);
},
{
closed = 1;
nodes = (
(523,-300,o),
(532,-291,o),
(532,-274,cs),
(532,474,ls),
(532,490,o),
(523,500,o),
(505,500,cs),
(487,500,o),
(477,490,o),
(477,474,cs),
(477,-274,ls),
(477,-290,o),
(487,-300,o),
(505,-300,cs)
);
},
{
closed = 1;
nodes = (
(479,468,o),
(485,462,o),
(488,459,cs),
(492,455,o),
(498,452,o),
(513,452,cs),
(564,452,ls),
(572,452,o),
(578,454,o),
(583,459,cs),
(587,463,o),
(589,468,o),
(589,476,cs),
(589,483,o),
(588,488,o),
(583,493,cs),
(578,498,o),
(572,500,o),
(564,500,cs),
(513,500,ls),
(498,500,o),
(491,497,o),
(489,495,cs),
(484,490,o),
(479,483,o),
(479,476,cs)
);
},
{
pos = (163,-6);
ref = _kebab.long;
},
{
pos = (358,-300);
ref = _chevron;
}
);
width = 619;
},
{
layerId = m003;
shapes = (
{
closed = 1;
nodes = (
(410,-9,o),
(512,66,o),
(512,251,cs),
(512,407,o),
(418,505,o),
(291,505,cs),
(164,505,o),
(50,407,o),
(50,251,cs),
(50,66,o),
(171,-9,o),
(291,-9,cs)
);
},
{
closed = 1;
nodes = (
(198,41,o),
(105,104,o),
(105,250,cs),
(105,374,o),
(194,455,o),
(291,455,cs),
(388,455,o),
(477,374,o),
(477,250,cs),
(477,104,o),
(383,41,o),
(291,41,cs)
);
},
{
closed = 1;
nodes = (
(523,-250,o),
(532,-241,o),
(532,-224,cs),
(532,474,ls),
(532,490,o),
(523,500,o),
(505,500,cs),
(487,500,o),
(477,490,o),
(477,474,cs),
(477,-224,ls),
(477,-240,o),
(487,-250,o),
(505,-250,cs)
);
},
{
closed = 1;
nodes = (
(479,468,o),
(485,462,o),
(488,459,cs),
(492,455,o),
(498,452,o),
(513,452,cs),
(564,452,ls),
(572,452,o),
(578,454,o),
(583,459,cs),
(587,463,o),
(589,468,o),
(589,476,cs),
(589,483,o),
(588,488,o),
(583,493,cs),
(578,498,o),
(572,500,o),
(564,500,cs),
(513,500,ls),
(498,500,o),
(491,497,o),
(489,495,cs),
(484,490,o),
(479,483,o),
(479,476,cs)
);
},
{
pos = (163,-6);
ref = _kebab.long;
},
{
pos = (353,-300);
ref = _chevron;
}
);
width = 619;
}
);
metricLeft = o;
unicode = 113;
},
{
color = 5;
glyphname = r;
lastChange = "2024-01-02 16:15:52 +0000";
layers = (
{
guides = (
{
angle = 270;
pos = (173,224);
showMeasurement = 1;
},
{
angle = 180;
pos = (193,250);
showMeasurement = 1;
}
);
layerId = m01;
shapes = (
{
closed = 1;
nodes = (
(158,249,l),
(158,392,o),
(244,455,o),
(336,455,cs),
(352,455,o),
(371,448,o),
(381,448,cs),
(393,448,o),
(401,455,o),
(401,472,cs),
(401,486,o),
(390,496,o),
(376,500,cs),
(365,503,o),
(351,505,o),
(337,505,cs),
(220,505,o),
(115,421,o),
(115,240,c)
);
},
{
closed = 1;
nodes = (
(148,-4,o),
(158,6,o),
(158,22,cs),
(158,474,ls),
(158,490,o),
(148,500,o),
(130,500,cs),
(112,500,o),
(103,491,o),
(103,474,cs),
(103,22,ls),
(103,6,o),
(112,-4,o),
(130,-4,cs)
);
},
{
closed = 1;
nodes = (
(155,483,o),
(150,490,o),
(145,495,cs),
(143,497,o),
(136,500,o),
(121,500,cs),
(70,500,ls),
(62,500,o),
(56,498,o),
(51,493,cs),
(46,488,o),
(45,483,o),
(45,476,cs),
(45,468,o),
(47,463,o),
(51,459,cs),
(56,454,o),
(62,452,o),
(70,452,cs),
(121,452,ls),
(136,452,o),
(142,455,o),
(146,459,cs),
(149,462,o),
(155,468,o),
(155,476,cs)
);
},
{
pos = (-81,-428);
ref = _Bristles.small;
}
);
width = 426;
},
{
layerId = m002;
shapes = (
{
closed = 1;
nodes = (
(158,249,l),
(158,392,o),
(244,455,o),
(336,455,cs),
(352,455,o),
(371,448,o),
(381,448,cs),
(393,448,o),
(401,455,o),
(401,472,cs),
(401,486,o),
(390,496,o),
(376,500,cs),
(365,503,o),
(351,505,o),
(337,505,cs),
(220,505,o),
(115,421,o),
(115,240,c)
);
},
{
closed = 1;
nodes = (
(148,-4,o),
(158,6,o),
(158,22,cs),
(158,474,ls),
(158,490,o),
(148,500,o),
(130,500,cs),
(112,500,o),
(103,491,o),
(103,474,cs),
(103,22,ls),
(103,6,o),
(112,-4,o),
(130,-4,cs)
);
},
{
closed = 1;
nodes = (
(155,483,o),
(150,490,o),
(145,495,cs),
(143,497,o),
(136,500,o),
(121,500,cs),
(70,500,ls),
(62,500,o),
(56,498,o),
(51,493,cs),
(46,488,o),
(45,483,o),
(45,476,cs),
(45,468,o),
(47,463,o),
(51,459,cs),
(56,454,o),
(62,452,o),
(70,452,cs),
(121,452,ls),
(136,452,o),
(142,455,o),
(146,459,cs),
(149,462,o),
(155,468,o),
(155,476,cs)
);
},
{
pos = (-81,-428);
ref = _Bristles.small;
}
);
width = 426;
},
{
layerId = m003;
shapes = (
{
closed = 1;
nodes = (
(158,249,l),
(158,392,o),
(244,455,o),
(336,455,cs),
(352,455,o),
(371,448,o),
(381,448,cs),
(393,448,o),
(401,455,o),
(401,472,cs),
(401,486,o),
(390,496,o),
(376,500,cs),
(365,503,o),
(351,505,o),
(337,505,cs),
(220,505,o),
(115,421,o),
(115,240,c)
);
},
{
closed = 1;
nodes = (
(148,-4,o),
(158,6,o),
(158,22,cs),
(158,474,ls),
(158,490,o),
(148,500,o),
(130,500,cs),
(112,500,o),
(103,491,o),
(103,474,cs),
(103,22,ls),
(103,6,o),
(112,-4,o),
(130,-4,cs)
);
},
{
closed = 1;
nodes = (
(155,483,o),
(150,490,o),
(145,495,cs),
(143,497,o),
(136,500,o),
(121,500,cs),
(70,500,ls),
(62,500,o),
(56,498,o),
(51,493,cs),
(46,488,o),
(45,483,o),
(45,476,cs),
(45,468,o),
(47,463,o),
(51,459,cs),
(56,454,o),
(62,452,o),
(70,452,cs),
(121,452,ls),
(136,452,o),
(142,455,o),
(146,459,cs),
(149,462,o),
(155,468,o),
(155,476,cs)
);
},
{
pos = (-81,-428);
ref = _Bristles.small;
}
);
width = 426;
}
);
metricLeft = n;
unicode = 114;
},
{
color = 5;
glyphname = s;
lastChange = "2024-01-05 20:54:40 +0000";
layers = (
{
guides = (
{
angle = -23.554;
pos = (202,330);
showMeasurement = 1;
}
);
layerId = m01;
shapes = (
{
closed = 1;
nodes = (
(318,-10,o),
(389,43,o),
(389,137,cs),
(389,318,o),
(102,257,o),
(102,378,cs),
(102,428,o),
(142,455,o),
(210,455,cs),
(248,455,o),
(294,438,o),
(307,410,cs),
(314,396,o),
(320,388,o),
(335,388,cs),
(340,388,ls),
(355,388,o),
(365,395,o),
(365,408,cs),
(365,410,o),
(365,413,o),
(364,415,cs),
(350,471,o),
(286,510,o),
(210,510,cs),
(104,510,o),
(47,450,o),
(47,376,cs),
(47,206,o),
(334,256,o),
(334,138,cs),
(334,88,o),
(289,46,o),
(208,46,cs),
(161,46,o),
(99,60,o),
(86,117,cs),
(82,133,o),
(74,142,o),
(58,142,cs),
(55,142,ls),
(40,142,o),
(30,134,o),
(30,120,cs),
(30,118,o),
(30,116,o),
(30,114,cs),
(47,14,o),
(153,-10,o),
(204,-10,cs)
);
},
{
angle = -90;
pos = (-414,315);
ref = _Bristles.small;
},
{
angle = -90;
pos = (-412,694);
ref = _Bristles.small;
}
);
width = 419;
},
{
guides = (
{
angle = -23.554;
pos = (205,332);
showMeasurement = 1;
}
);
layerId = m002;
shapes = (
{
closed = 1;
nodes = (
(318,-10,o),
(389,43,o),
(389,137,cs),
(389,318,o),
(102,257,o),
(102,378,cs),
(102,428,o),
(142,455,o),
(210,455,cs),
(248,455,o),
(294,438,o),
(307,410,cs),
(314,396,o),
(320,388,o),
(335,388,cs),
(340,388,ls),
(355,388,o),
(365,395,o),
(365,408,cs),
(365,410,o),
(365,413,o),
(364,415,cs),
(350,471,o),
(286,510,o),
(210,510,cs),
(104,510,o),
(47,450,o),
(47,376,cs),
(47,206,o),
(334,256,o),
(334,138,cs),
(334,88,o),
(289,46,o),
(208,46,cs),
(161,46,o),
(99,60,o),
(86,117,cs),
(82,133,o),
(74,142,o),
(58,142,cs),
(55,142,ls),
(40,142,o),
(30,134,o),
(30,120,cs),
(30,118,o),
(30,116,o),
(30,114,cs),
(47,14,o),
(153,-10,o),
(204,-10,cs)
);
},
{
angle = -90;
pos = (-414,315);
ref = _Bristles.small;
},
{
angle = -90;
pos = (-412,694);
ref = _Bristles.small;
}
);
width = 419;
},
{
guides = (
{
angle = -23.554;
pos = (205,332);
showMeasurement = 1;
}
);
layerId = m003;
shapes = (
{
closed = 1;
nodes = (
(318,-10,o),
(389,43,o),
(389,137,cs),
(389,318,o),
(102,257,o),
(102,378,cs),
(102,428,o),
(142,455,o),
(210,455,cs),
(248,455,o),
(294,438,o),
(307,410,cs),
(314,396,o),
(320,388,o),
(335,388,cs),
(340,388,ls),
(355,388,o),
(365,395,o),
(365,408,cs),
(365,410,o),
(365,413,o),
(364,415,cs),
(350,471,o),
(286,510,o),
(210,510,cs),
(104,510,o),
(47,450,o),
(47,376,cs),
(47,206,o),
(334,256,o),
(334,138,cs),
(334,88,o),
(289,46,o),
(208,46,cs),
(161,46,o),
(99,60,o),
(86,117,cs),
(82,133,o),
(74,142,o),
(58,142,cs),
(55,142,ls),
(40,142,o),
(30,134,o),
(30,120,cs),
(30,118,o),
(30,116,o),
(30,114,cs),
(47,14,o),
(153,-10,o),
(204,-10,cs)
);
},
{
angle = -90;
pos = (-414,315);
ref = _Bristles.small;
},
{
angle = -90;
pos = (-412,694);
ref = _Bristles.small;
}
);
width = 419;
}
);
unicode = 115;
},
{
color = 5;
glyphname = t;
lastChange = "2024-01-02 22:29:51 +0000";
layers = (
{
layerId = m01;
shapes = (
{
closed = 1;
nodes = (
(306,0,o),
(351,20,o),
(380,80,cs),
(382,84,o),
(383,89,o),
(383,93,cs),
(383,104,o),
(377,114,o),
(367,118,cs),
(364,119,o),
(360,120,o),
(357,120,cs),
(346,120,o),
(336,112,o),
(329,99,cs),
(311,65,o),
(286,50,o),
(259,50,cs),
(217,50,o),
(186,82,o),
(186,175,cs),
(186,356,o),
(188,459,o),
(188,640,cs),
(188,652,o),
(176,666,o),
(160,666,cs),
(141,666,o),
(131,653,o),
(131,640,cs),
(131,150,ls),
(131,37,o),
(196,0,o),
(259,0,cs)
);
},
{
closed = 1;
nodes = (
(326,450,ls),
(342,450,o),
(352,459,o),
(352,475,cs),
(352,491,o),
(342,500,o),
(326,500,cs),
(74,500,ls),
(58,500,o),
(48,491,o),
(48,475,cs),
(48,459,o),
(58,450,o),
(74,450,cs)
);
},
{
pos = (-52,-307);
ref = _Bristles.small;
}
);
width = 428;
},
{
layerId = m002;
shapes = (
{
closed = 1;
nodes = (
(306,0,o),
(351,20,o),
(380,80,cs),
(382,84,o),
(383,89,o),
(383,93,cs),
(383,104,o),
(377,114,o),
(367,118,cs),
(364,119,o),
(360,120,o),
(357,120,cs),
(346,120,o),
(336,112,o),
(329,99,cs),
(311,65,o),
(286,50,o),
(259,50,cs),
(217,50,o),
(186,82,o),
(186,175,cs),
(186,356,o),
(188,459,o),
(188,640,cs),
(188,652,o),
(176,666,o),
(160,666,cs),
(141,666,o),
(131,653,o),
(131,640,cs),
(131,150,ls),
(131,37,o),
(196,0,o),
(259,0,cs)
);
},
{
closed = 1;
nodes = (
(326,450,ls),
(342,450,o),
(352,459,o),
(352,475,cs),
(352,491,o),
(342,500,o),
(326,500,cs),
(74,500,ls),
(58,500,o),
(48,491,o),
(48,475,cs),
(48,459,o),
(58,450,o),
(74,450,cs)
);
},
{
pos = (-52,-307);
ref = _Bristles.small;
}
);
width = 428;
},
{
layerId = m003;
shapes = (
{
closed = 1;
nodes = (
(306,0,o),
(351,20,o),
(380,80,cs),
(382,84,o),
(383,89,o),
(383,93,cs),
(383,104,o),
(377,114,o),
(367,118,cs),
(364,119,o),
(360,120,o),
(357,120,cs),
(346,120,o),
(336,112,o),
(329,99,cs),
(311,65,o),
(286,50,o),
(259,50,cs),
(217,50,o),
(186,82,o),
(186,175,cs),
(186,356,o),
(188,459,o),
(188,640,cs),
(188,652,o),
(176,666,o),
(160,666,cs),
(141,666,o),
(131,653,o),
(131,640,cs),
(131,150,ls),
(131,37,o),
(196,0,o),
(259,0,cs)
);
},
{
closed = 1;
nodes = (
(326,450,ls),
(342,450,o),
(352,459,o),
(352,475,cs),
(352,491,o),
(342,500,o),
(326,500,cs),
(74,500,ls),
(58,500,o),
(48,491,o),
(48,475,cs),
(48,459,o),
(58,450,o),
(74,450,cs)
);
},
{
pos = (-52,-307);
ref = _Bristles.small;
}
);
width = 428;
}
);
unicode = 116;
},
{
color = 5;
glyphname = u;
lastChange = "2024-01-02 21:14:10 +0000";
layers = (
{
layerId = m01;
shapes = (
{
closed = 1;
nodes = (
(387,-4,o),
(483,70,o),
(483,251,c),
(448,251,l),
(448,108,o),
(362,46,o),
(270,46,cs),
(177,46,o),
(115,108,o),
(115,251,c),
(60,251,l),
(60,70,o),
(152,-4,o),
(270,-4,cs)
);
},
{
closed = 1;
nodes = (
(106,225,o),
(115,234,o),
(115,251,cs),
(115,479,ls),
(115,495,o),
(106,505,o),
(88,505,cs),
(70,505,o),
(60,495,o),
(60,479,cs),
(60,251,ls),
(60,235,o),
(70,225,o),
(88,225,cs)
);
},
{
closed = 1;
nodes = (
(494,0,o),
(503,9,o),
(503,26,cs),
(503,479,ls),
(503,495,o),
(494,505,o),
(476,505,cs),
(458,505,o),
(448,495,o),
(448,479,cs),
(448,26,ls),
(448,10,o),
(458,0,o),
(476,0,cs)
);
},
{
closed = 1;
nodes = (
(454,16,o),
(458,9,o),
(462,7,cs),
(465,2,o),
(472,0,o),
(487,0,cs),
(538,0,ls),
(546,0,o),
(552,2,o),
(557,7,cs),
(561,11,o),
(563,16,o),
(563,24,cs),
(563,31,o),
(562,37,o),
(557,41,cs),
(552,46,o),
(546,48,o),
(538,48,cs),
(487,48,ls),
(472,48,o),
(465,45,o),
(463,43,cs),
(458,38,o),
(453,31,o),
(453,24,cs)
);
},
{
angle = 90;
pos = (533,-78);
ref = _kebab.long;
},
{
pos = (-124,-221);
ref = _Bristles.small;
},
{
pos = (179,-221);
ref = _Bristles.small;
}
);
width = 593;
},
{
layerId = m002;
shapes = (
{
closed = 1;
nodes = (
(387,-4,o),
(483,70,o),
(483,251,c),
(448,251,l),
(448,108,o),
(362,46,o),
(270,46,cs),
(177,46,o),
(115,108,o),
(115,251,c),
(60,251,l),
(60,70,o),
(152,-4,o),
(270,-4,cs)
);
},
{
closed = 1;
nodes = (
(106,225,o),
(115,234,o),
(115,251,cs),
(115,479,ls),
(115,495,o),
(106,505,o),
(88,505,cs),
(70,505,o),
(60,495,o),
(60,479,cs),
(60,251,ls),
(60,235,o),
(70,225,o),
(88,225,cs)
);
},
{
closed = 1;
nodes = (
(494,0,o),
(503,9,o),
(503,26,cs),
(503,479,ls),
(503,495,o),
(494,505,o),
(476,505,cs),
(458,505,o),
(448,495,o),
(448,479,cs),
(448,26,ls),
(448,10,o),
(458,0,o),
(476,0,cs)
);
},
{
closed = 1;
nodes = (
(454,16,o),
(458,9,o),
(462,7,cs),
(465,2,o),
(472,0,o),
(487,0,cs),
(538,0,ls),
(546,0,o),
(552,2,o),
(557,7,cs),
(561,11,o),
(563,16,o),
(563,24,cs),
(563,31,o),
(562,37,o),
(557,41,cs),
(552,46,o),
(546,48,o),
(538,48,cs),
(487,48,ls),
(472,48,o),
(465,45,o),
(463,43,cs),
(458,38,o),
(453,31,o),
(453,24,cs)
);
},
{
angle = 90;
pos = (533,-78);
ref = _kebab.long;
},
{
pos = (-124,-221);
ref = _Bristles.small;
},
{
pos = (179,-221);
ref = _Bristles.small;
}
);
width = 593;
},
{
layerId = m003;
shapes = (
{
closed = 1;
nodes = (
(387,-4,o),
(483,70,o),
(483,251,c),
(448,251,l),
(448,108,o),
(362,46,o),
(270,46,cs),
(177,46,o),
(115,108,o),
(115,251,c),
(60,251,l),
(60,70,o),
(152,-4,o),
(270,-4,cs)
);
},
{
closed = 1;
nodes = (
(106,225,o),
(115,234,o),
(115,251,cs),
(115,479,ls),
(115,495,o),
(106,505,o),
(88,505,cs),
(70,505,o),
(60,495,o),
(60,479,cs),
(60,251,ls),
(60,235,o),
(70,225,o),
(88,225,cs)
);
},
{
closed = 1;
nodes = (
(494,0,o),
(503,9,o),
(503,26,cs),
(503,479,ls),
(503,495,o),
(494,505,o),
(476,505,cs),
(458,505,o),
(448,495,o),
(448,479,cs),
(448,26,ls),
(448,10,o),
(458,0,o),
(476,0,cs)
);
},
{
closed = 1;
nodes = (
(454,16,o),
(458,9,o),
(462,7,cs),
(465,2,o),
(472,0,o),
(487,0,cs),
(538,0,ls),
(546,0,o),
(552,2,o),
(557,7,cs),
(561,11,o),
(563,16,o),
(563,24,cs),
(563,31,o),
(562,37,o),
(557,41,cs),
(552,46,o),
(546,48,o),
(538,48,cs),
(487,48,ls),
(472,48,o),
(465,45,o),
(463,43,cs),
(458,38,o),
(453,31,o),
(453,24,cs)
);
},
{
angle = 90;
pos = (533,-78);
ref = _kebab.long;
},
{
pos = (-124,-221);
ref = _Bristles.small;
},
{
pos = (179,-221);
ref = _Bristles.small;
}
);
width = 593;
}
);
unicode = 117;
},
{
color = 5;
glyphname = v;
lastChange = "2024-01-02 21:05:13 +0000";
layers = (
{
guides = (
{
pos = (278,550);
showMeasurement = 1;
}
);
layerId = m01;
shapes = (
{
closed = 1;
nodes = (
(272,0,o),
(283,6,o),
(290,26,cs),
(449,465,ls),
(451,469,o),
(451,474,o),
(451,477,cs),
(451,487,o),
(446,494,o),
(436,498,cs),
(432,500,o),
(428,500,o),
(425,500,cs),
(414,500,o),
(406,494,o),
(402,482,cs),
(253,63,ls),
(252,59,o),
(249,58,o),
(247,58,cs),
(245,58,o),
(242,59,o),
(241,62,cs),
(91,482,ls),
(87,493,o),
(80,500,o),
(69,500,cs),
(66,500,o),
(62,499,o),
(58,498,cs),
(46,494,o),
(40,486,o),
(40,476,cs),
(40,472,o),
(40,468,o),
(42,464,cs),
(202,26,ls),
(209,6,o),
(226,0,o),
(248,0,cs)
);
},
{
angle = 20;
pos = (118,-280);
ref = _Bristles.small;
},
{
angle = 160;
pos = (373,-280);
ref = _Bristles.small;
scale = (1,-1);
}
);
width = 491;
},
{
layerId = m002;
shapes = (
{
closed = 1;
nodes = (
(272,0,o),
(283,6,o),
(290,26,cs),
(449,465,ls),
(451,469,o),
(451,474,o),
(451,477,cs),
(451,487,o),
(446,494,o),
(436,498,cs),
(432,500,o),
(428,500,o),
(425,500,cs),
(414,500,o),
(406,494,o),
(402,482,cs),
(253,63,ls),
(252,59,o),
(249,58,o),
(247,58,cs),
(245,58,o),
(242,59,o),
(241,62,cs),
(91,482,ls),
(87,493,o),
(80,500,o),
(69,500,cs),
(66,500,o),
(62,499,o),
(58,498,cs),
(46,494,o),
(40,486,o),
(40,476,cs),
(40,472,o),
(40,468,o),
(42,464,cs),
(202,26,ls),
(209,6,o),
(226,0,o),
(248,0,cs)
);
},
{
angle = 20;
pos = (118,-280);
ref = _Bristles.small;
},
{
angle = 160;
pos = (373,-280);
ref = _Bristles.small;
scale = (1,-1);
}
);
width = 491;
},
{
layerId = m003;
shapes = (
{
closed = 1;
nodes = (
(272,0,o),
(283,6,o),
(290,26,cs),
(449,465,ls),
(451,469,o),
(451,474,o),
(451,477,cs),
(451,487,o),
(446,494,o),
(436,498,cs),
(432,500,o),
(428,500,o),
(425,500,cs),
(414,500,o),
(406,494,o),
(402,482,cs),
(253,63,ls),
(252,59,o),
(249,58,o),
(247,58,cs),
(245,58,o),
(242,59,o),
(241,62,cs),
(91,482,ls),
(87,493,o),
(80,500,o),
(69,500,cs),
(66,500,o),
(62,499,o),
(58,498,cs),
(46,494,o),
(40,486,o),
(40,476,cs),
(40,472,o),
(40,468,o),
(42,464,cs),
(202,26,ls),
(209,6,o),
(226,0,o),
(248,0,cs)
);
},
{
angle = 20;
pos = (118,-280);
ref = _Bristles.small;
},
{
angle = 160;
pos = (373,-280);
ref = _Bristles.small;
scale = (1,-1);
}
);
width = 491;
}
);
unicode = 118;
},
{
color = 5;
glyphname = w;
lastChange = "2024-01-02 21:05:41 +0000";
layers = (
{
layerId = m01;
shapes = (
{
closed = 1;
nodes = (
(272,0,o),
(283,6,o),
(290,26,cs),
(449,465,ls),
(451,469,o),
(451,474,o),
(451,477,cs),
(451,487,o),
(446,494,o),
(436,498,cs),
(432,500,o),
(428,500,o),
(425,500,cs),
(414,500,o),
(406,494,o),
(402,482,cs),
(253,63,ls),
(252,59,o),
(249,58,o),
(247,58,cs),
(245,58,o),
(242,59,o),
(241,62,cs),
(91,482,ls),
(87,493,o),
(80,500,o),
(69,500,cs),
(66,500,o),
(62,499,o),
(58,498,cs),
(46,494,o),
(40,486,o),
(40,476,cs),
(40,472,o),
(40,468,o),
(42,464,cs),
(202,26,ls),
(209,6,o),
(226,0,o),
(248,0,cs)
);
},
{
closed = 1;
nodes = (
(548,0,o),
(559,6,o),
(566,26,cs),
(725,465,ls),
(727,469,o),
(727,474,o),
(727,477,cs),
(727,487,o),
(722,494,o),
(712,498,cs),
(708,500,o),
(704,500,o),
(701,500,cs),
(690,500,o),
(682,494,o),
(678,482,cs),
(529,63,ls),
(528,59,o),
(525,58,o),
(523,58,cs),
(521,58,o),
(518,59,o),
(517,62,cs),
(367,482,ls),
(363,493,o),
(356,500,o),
(345,500,cs),
(342,500,o),
(338,499,o),
(334,498,cs),
(322,494,o),
(316,486,o),
(316,476,cs),
(316,472,o),
(316,468,o),
(318,464,cs),
(478,26,ls),
(485,6,o),
(502,0,o),
(524,0,cs)
);
},
{
angle = 20;
pos = (118,-280);
ref = _Bristles.small;
},
{
angle = 160;
pos = (651,-280);
ref = _Bristles.small;
scale = (1,-1);
}
);
width = 767;
},
{
layerId = m002;
shapes = (
{
closed = 1;
nodes = (
(272,0,o),
(283,6,o),
(290,26,cs),
(449,465,ls),
(451,469,o),
(451,474,o),
(451,477,cs),
(451,487,o),
(446,494,o),
(436,498,cs),
(432,500,o),
(428,500,o),
(425,500,cs),
(414,500,o),
(406,494,o),
(402,482,cs),
(253,63,ls),
(252,59,o),
(249,58,o),
(247,58,cs),
(245,58,o),
(242,59,o),
(241,62,cs),
(91,482,ls),
(87,493,o),
(80,500,o),
(69,500,cs),
(66,500,o),
(62,499,o),
(58,498,cs),
(46,494,o),
(40,486,o),
(40,476,cs),
(40,472,o),
(40,468,o),
(42,464,cs),
(202,26,ls),
(209,6,o),
(226,0,o),
(248,0,cs)
);
},
{
closed = 1;
nodes = (
(548,0,o),
(559,6,o),
(566,26,cs),
(725,465,ls),
(727,469,o),
(727,474,o),
(727,477,cs),
(727,487,o),
(722,494,o),
(712,498,cs),
(708,500,o),
(704,500,o),
(701,500,cs),
(690,500,o),
(682,494,o),
(678,482,cs),
(529,63,ls),
(528,59,o),
(525,58,o),
(523,58,cs),
(521,58,o),
(518,59,o),
(517,62,cs),
(367,482,ls),
(363,493,o),
(356,500,o),
(345,500,cs),
(342,500,o),
(338,499,o),
(334,498,cs),
(322,494,o),
(316,486,o),
(316,476,cs),
(316,472,o),
(316,468,o),
(318,464,cs),
(478,26,ls),
(485,6,o),
(502,0,o),
(524,0,cs)
);
},
{
angle = 20;
pos = (118,-280);
ref = _Bristles.small;
},
{
angle = 160;
pos = (651,-280);
ref = _Bristles.small;
scale = (1,-1);
}
);
width = 767;
},
{
layerId = m003;
shapes = (
{
closed = 1;
nodes = (
(272,0,o),
(283,6,o),
(290,26,cs),
(449,465,ls),
(451,469,o),
(451,474,o),
(451,477,cs),
(451,487,o),
(446,494,o),
(436,498,cs),
(432,500,o),
(428,500,o),
(425,500,cs),
(414,500,o),
(406,494,o),
(402,482,cs),
(253,63,ls),
(252,59,o),
(249,58,o),
(247,58,cs),
(245,58,o),
(242,59,o),
(241,62,cs),
(91,482,ls),
(87,493,o),
(80,500,o),
(69,500,cs),
(66,500,o),
(62,499,o),
(58,498,cs),
(46,494,o),
(40,486,o),
(40,476,cs),
(40,472,o),
(40,468,o),
(42,464,cs),
(202,26,ls),
(209,6,o),
(226,0,o),
(248,0,cs)
);
},
{
closed = 1;
nodes = (
(548,0,o),
(559,6,o),
(566,26,cs),
(725,465,ls),
(727,469,o),
(727,474,o),
(727,477,cs),
(727,487,o),
(722,494,o),
(712,498,cs),
(708,500,o),
(704,500,o),
(701,500,cs),
(690,500,o),
(682,494,o),
(678,482,cs),
(529,63,ls),
(528,59,o),
(525,58,o),
(523,58,cs),
(521,58,o),
(518,59,o),
(517,62,cs),
(367,482,ls),
(363,493,o),
(356,500,o),
(345,500,cs),
(342,500,o),
(338,499,o),
(334,498,cs),
(322,494,o),
(316,486,o),
(316,476,cs),
(316,472,o),
(316,468,o),
(318,464,cs),
(478,26,ls),
(485,6,o),
(502,0,o),
(524,0,cs)
);
},
{
angle = 20;
pos = (118,-280);
ref = _Bristles.small;
},
{
angle = 160;
pos = (651,-280);
ref = _Bristles.small;
scale = (1,-1);
}
);
width = 767;
}
);
metricLeft = v;
metricRight = v;
unicode = 119;
},
{
color = 5;
glyphname = x;
lastChange = "2024-01-02 21:11:05 +0000";
layers = (
{
layerId = m01;
shapes = (
{
closed = 1;
nodes = (
(398,-5,o),
(404,-3,o),
(410,2,cs),
(418,8,o),
(423,14,o),
(423,22,cs),
(423,27,o),
(421,32,o),
(417,38,cs),
(273,244,l),
(421,456,ls),
(425,462,o),
(427,467,o),
(427,472,cs),
(427,479,o),
(424,486,o),
(416,491,cs),
(410,495,o),
(404,497,o),
(398,497,cs),
(391,496,o),
(385,492,o),
(380,485,cs),
(242,288,l),
(103,486,ls),
(98,494,o),
(91,498,o),
(83,498,cs),
(78,498,o),
(72,496,o),
(66,492,cs),
(57,486,o),
(52,478,o),
(52,470,cs),
(52,465,o),
(55,460,o),
(58,455,cs),
(203,248,l),
(56,37,ls),
(52,32,o),
(50,26,o),
(50,21,cs),
(51,14,o),
(54,7,o),
(62,2,cs),
(68,-2,o),
(73,-4,o),
(78,-4,cs),
(85,-4,o),
(91,0,o),
(97,8,cs),
(234,204,l),
(372,7,ls),
(377,-1,o),
(384,-5,o),
(392,-5,cs)
);
},
{
angle = -35;
pos = (-261,46);
ref = _Bristles.small;
},
{
angle = -35;
pos = (-390,-275);
ref = _Bristles.small;
}
);
width = 477;
},
{
layerId = m002;
shapes = (
{
closed = 1;
nodes = (
(398,-5,o),
(404,-3,o),
(410,2,cs),
(418,8,o),
(423,14,o),
(423,22,cs),
(423,27,o),
(421,32,o),
(417,38,cs),
(273,244,l),
(421,456,ls),
(425,462,o),
(427,467,o),
(427,472,cs),
(427,479,o),
(424,486,o),
(416,491,cs),
(410,495,o),
(404,497,o),
(398,497,cs),
(391,496,o),
(385,492,o),
(380,485,cs),
(242,288,l),
(103,486,ls),
(98,494,o),
(91,498,o),
(83,498,cs),
(78,498,o),
(72,496,o),
(66,492,cs),
(57,486,o),
(52,478,o),
(52,470,cs),
(52,465,o),
(55,460,o),
(58,455,cs),
(203,248,l),
(56,37,ls),
(52,32,o),
(50,26,o),
(50,21,cs),
(51,14,o),
(54,7,o),
(62,2,cs),
(68,-2,o),
(73,-4,o),
(78,-4,cs),
(85,-4,o),
(91,0,o),
(97,8,cs),
(234,204,l),
(372,7,ls),
(377,-1,o),
(384,-5,o),
(392,-5,cs)
);
},
{
angle = -35;
pos = (-262,42);
ref = _Bristles.small;
},
{
angle = -35;
pos = (-389,-268);
ref = _Bristles.small;
}
);
width = 477;
},
{
layerId = m003;
shapes = (
{
closed = 1;
nodes = (
(398,-5,o),
(404,-3,o),
(410,2,cs),
(418,8,o),
(423,14,o),
(423,22,cs),
(423,27,o),
(421,32,o),
(417,38,cs),
(273,244,l),
(421,456,ls),
(425,462,o),
(427,467,o),
(427,472,cs),
(427,479,o),
(424,486,o),
(416,491,cs),
(410,495,o),
(404,497,o),
(398,497,cs),
(391,496,o),
(385,492,o),
(380,485,cs),
(242,288,l),
(103,486,ls),
(98,494,o),
(91,498,o),
(83,498,cs),
(78,498,o),
(72,496,o),
(66,492,cs),
(57,486,o),
(52,478,o),
(52,470,cs),
(52,465,o),
(55,460,o),
(58,455,cs),
(203,248,l),
(56,37,ls),
(52,32,o),
(50,26,o),
(50,21,cs),
(51,14,o),
(54,7,o),
(62,2,cs),
(68,-2,o),
(73,-4,o),
(78,-4,cs),
(85,-4,o),
(91,0,o),
(97,8,cs),
(234,204,l),
(372,7,ls),
(377,-1,o),
(384,-5,o),
(392,-5,cs)
);
},
{
angle = -35;
pos = (-262,42);
ref = _Bristles.small;
},
{
angle = -35;
pos = (-389,-268);
ref = _Bristles.small;
}
);
width = 477;
}
);
unicode = 120;
},
{
color = 5;
glyphname = y;
lastChange = "2024-01-02 22:12:03 +0000";
layers = (
{
layerId = m01;
shapes = (
{
closed = 1;
nodes = (
(381,-309,o),
(503,-235,o),
(503,-54,cs),
(503,474,ls),
(503,490,o),
(494,500,o),
(476,500,cs),
(458,500,o),
(448,490,o),
(448,474,cs),
(448,-54,ls),
(448,-197,o),
(356,-256,o),
(264,-256,cs),
(208,-256,o),
(153,-239,o),
(115,-192,cs),
(108,-183,o),
(97,-176,o),
(87,-176,cs),
(81,-176,o),
(75,-178,o),
(70,-182,cs),
(64,-187,o),
(61,-193,o),
(61,-200,cs),
(61,-208,o),
(65,-217,o),
(71,-225,cs),
(120,-286,o),
(193,-309,o),
(264,-309,cs)
);
},
{
closed = 1;
nodes = (
(387,-4,o),
(483,70,o),
(483,251,c),
(448,251,l),
(448,108,o),
(362,46,o),
(270,46,cs),
(177,46,o),
(115,108,o),
(115,251,c),
(60,251,l),
(60,70,o),
(152,-4,o),
(270,-4,cs)
);
},
{
closed = 1;
nodes = (
(106,225,o),
(115,234,o),
(115,251,cs),
(115,474,ls),
(115,490,o),
(106,500,o),
(88,500,cs),
(70,500,o),
(60,490,o),
(60,474,cs),
(60,251,ls),
(60,235,o),
(70,225,o),
(88,225,cs)
);
},
{
angle = 90;
pos = (533,-78);
ref = _kebab.long;
},
{
pos = (-54,450);
ref = _chevron;
scale = (1,-1);
},
{
pos = (324,450);
ref = _chevron;
scale = (1,-1);
}
);
width = 581;
},
{
layerId = m002;
shapes = (
{
closed = 1;
nodes = (
(381,-309,o),
(503,-235,o),
(503,-54,cs),
(503,468,ls),
(503,484,o),
(494,494,o),
(476,494,cs),
(458,494,o),
(448,484,o),
(448,468,cs),
(448,-54,ls),
(448,-197,o),
(356,-256,o),
(264,-256,cs),
(208,-256,o),
(153,-239,o),
(115,-192,cs),
(108,-183,o),
(97,-176,o),
(87,-176,cs),
(81,-176,o),
(75,-178,o),
(70,-182,cs),
(64,-187,o),
(61,-193,o),
(61,-200,cs),
(61,-208,o),
(65,-217,o),
(71,-225,cs),
(120,-286,o),
(193,-309,o),
(264,-309,cs)
);
},
{
closed = 1;
nodes = (
(387,-4,o),
(483,70,o),
(483,251,c),
(448,251,l),
(448,108,o),
(362,46,o),
(270,46,cs),
(177,46,o),
(115,108,o),
(115,251,c),
(60,251,l),
(60,70,o),
(152,-4,o),
(270,-4,cs)
);
},
{
closed = 1;
nodes = (
(106,225,o),
(115,234,o),
(115,251,cs),
(115,468,ls),
(115,484,o),
(106,494,o),
(88,494,cs),
(70,494,o),
(60,484,o),
(60,468,cs),
(60,251,ls),
(60,235,o),
(70,225,o),
(88,225,cs)
);
},
{
angle = 90;
pos = (533,-78);
ref = _kebab.long;
},
{
pos = (-54,500);
ref = _chevron;
scale = (1,-1);
},
{
pos = (324,500);
ref = _chevron;
scale = (1,-1);
}
);
width = 581;
},
{
background = {
shapes = (
{
angle = 90;
pos = (533,-78);
ref = _kebab.long;
},
{
pos = (-124,-221);
ref = _Bristles.small;
},
{
pos = (179,-221);
ref = _Bristles.small;
}
);
};
layerId = m003;
shapes = (
{
closed = 1;
nodes = (
(381,-309,o),
(503,-235,o),
(503,-54,cs),
(503,428,ls),
(503,444,o),
(494,454,o),
(476,454,cs),
(458,454,o),
(448,444,o),
(448,428,cs),
(448,-54,ls),
(448,-197,o),
(356,-256,o),
(264,-256,cs),
(208,-256,o),
(153,-239,o),
(115,-192,cs),
(108,-183,o),
(97,-176,o),
(87,-176,cs),
(81,-176,o),
(75,-178,o),
(70,-182,cs),
(64,-187,o),
(61,-193,o),
(61,-200,cs),
(61,-208,o),
(65,-217,o),
(71,-225,cs),
(120,-286,o),
(193,-309,o),
(264,-309,cs)
);
},
{
closed = 1;
nodes = (
(387,-4,o),
(483,70,o),
(483,251,c),
(448,251,l),
(448,108,o),
(362,46,o),
(270,46,cs),
(177,46,o),
(115,108,o),
(115,251,c),
(60,251,l),
(60,70,o),
(152,-4,o),
(270,-4,cs)
);
},
{
closed = 1;
nodes = (
(106,225,o),
(115,234,o),
(115,251,cs),
(115,428,ls),
(115,444,o),
(106,454,o),
(88,454,cs),
(70,454,o),
(60,444,o),
(60,428,cs),
(60,251,ls),
(60,235,o),
(70,225,o),
(88,225,cs)
);
},
{
pos = (-54,500);
ref = _chevron;
scale = (1,-1);
},
{
pos = (324,500);
ref = _chevron;
scale = (1,-1);
},
{
angle = 90;
pos = (533,-78);
ref = _kebab.long;
}
);
width = 581;
}
);
metricLeft = u;
unicode = 121;
},
{
color = 5;
glyphname = z;
lastChange = "2024-01-02 22:10:18 +0000";
layers = (
{
layerId = m01;
shapes = (
{
closed = 1;
nodes = (
(484,0,l),
(499,0,o),
(510,9,o),
(510,25,c),
(510,109,ls),
(510,125,o),
(501,135,o),
(485,135,cs),
(469,135,o),
(460,125,o),
(460,109,cs),
(460,50,l),
(126,50,l),
(505,454,ls),
(509,458,o),
(511,464,o),
(511,471,cs),
(511,484,o),
(502,500,o),
(484,500,cs),
(76,500,ls),
(51,500,o),
(51,478,o),
(51,467,cs),
(51,391,ls),
(51,375,o),
(60,365,o),
(76,365,cs),
(92,365,o),
(101,375,o),
(101,391,cs),
(101,450,l),
(434,450,l),
(59,45,l),
(53,39,o),
(50,31,o),
(50,23,cs),
(50,11,o),
(57,0,o),
(76,0,cs)
);
},
{
angle = -43;
pos = (-20,298);
ref = _ladder.short;
}
);
width = 560;
},
{
layerId = m002;
shapes = (
{
closed = 1;
nodes = (
(484,0,l),
(499,0,o),
(510,9,o),
(510,25,c),
(510,109,ls),
(510,125,o),
(501,135,o),
(485,135,cs),
(469,135,o),
(460,125,o),
(460,109,cs),
(460,50,l),
(126,50,l),
(505,454,ls),
(509,458,o),
(511,464,o),
(511,471,cs),
(511,484,o),
(502,500,o),
(484,500,cs),
(76,500,ls),
(51,500,o),
(51,478,o),
(51,467,cs),
(51,391,ls),
(51,375,o),
(60,365,o),
(76,365,cs),
(92,365,o),
(101,375,o),
(101,391,cs),
(101,450,l),
(434,450,l),
(59,45,l),
(53,39,o),
(50,31,o),
(50,23,cs),
(50,11,o),
(57,0,o),
(76,0,cs)
);
},
{
angle = -43;
pos = (-20,298);
ref = _ladder.short;
}
);
width = 560;
},
{
layerId = m003;
shapes = (
{
closed = 1;
nodes = (
(484,0,l),
(499,0,o),
(510,9,o),
(510,25,c),
(510,109,ls),
(510,125,o),
(501,135,o),
(485,135,cs),
(469,135,o),
(460,125,o),
(460,109,cs),
(460,50,l),
(126,50,l),
(505,454,ls),
(509,458,o),
(511,464,o),
(511,471,cs),
(511,484,o),
(502,500,o),
(484,500,cs),
(76,500,ls),
(51,500,o),
(51,478,o),
(51,467,cs),
(51,391,ls),
(51,375,o),
(60,365,o),
(76,365,cs),
(92,365,o),
(101,375,o),
(101,391,cs),
(101,450,l),
(434,450,l),
(59,45,l),
(53,39,o),
(50,31,o),
(50,23,cs),
(50,11,o),
(57,0,o),
(76,0,cs)
);
},
{
angle = -43;
pos = (-20,298);
ref = _ladder.short;
}
);
width = 560;
}
);
unicode = 122;
},
{
color = 5;
glyphname = zero;
lastChange = "2023-12-18 10:43:04 +0000";
layers = (
{
layerId = m01;
shapes = (
{
closed = 1;
nodes = (
(421,-8,o),
(542,97,o),
(542,331,cs),
(542,565,o),
(421,670,o),
(300,670,cs),
(188,670,o),
(58,565,o),
(58,331,cs),
(58,97,o),
(188,-8,o),
(300,-8,cs)
);
},
{
closed = 1;
nodes = (
(210,42,o),
(113,135,o),
(113,331,cs),
(113,527,o),
(210,620,o),
(300,620,cs),
(399,620,o),
(487,527,o),
(487,331,cs),
(487,135,o),
(399,42,o),
(300,42,cs)
);
}
);
width = 600;
},
{
layerId = m002;
shapes = (
{
closed = 1;
nodes = (
(421,-8,o),
(542,97,o),
(542,331,cs),
(542,565,o),
(421,670,o),
(300,670,cs),
(188,670,o),
(58,565,o),
(58,331,cs),
(58,97,o),
(188,-8,o),
(300,-8,cs)
);
},
{
closed = 1;
nodes = (
(210,42,o),
(113,135,o),
(113,331,cs),
(113,527,o),
(210,620,o),
(300,620,cs),
(399,620,o),
(487,527,o),
(487,331,cs),
(487,135,o),
(399,42,o),
(300,42,cs)
);
}
);
width = 600;
},
{
layerId = m003;
shapes = (
{
closed = 1;
nodes = (
(421,-8,o),
(542,97,o),
(542,331,cs),
(542,565,o),
(421,670,o),
(300,670,cs),
(188,670,o),
(58,565,o),
(58,331,cs),
(58,97,o),
(188,-8,o),
(300,-8,cs)
);
},
{
closed = 1;
nodes = (
(210,42,o),
(113,135,o),
(113,331,cs),
(113,527,o),
(210,620,o),
(300,620,cs),
(399,620,o),
(487,527,o),
(487,331,cs),
(487,135,o),
(399,42,o),
(300,42,cs)
);
}
);
width = 600;
}
);
unicode = 48;
},
{
color = 5;
glyphname = one;
lastChange = "2024-01-02 23:02:02 +0000";
layers = (
{
layerId = m01;
shapes = (
{
closed = 1;
nodes = (
(337,6,o),
(347,16,o),
(347,32,cs),
(347,674,ls),
(347,677,o),
(347,679,o),
(346,681,c),
(344,693,o),
(334,700,o),
(319,700,cs),
(301,700,o),
(292,691,o),
(291,673,cs),
(287,577,o),
(175,543,o),
(140,543,cs),
(115,543,o),
(103,530,o),
(103,517,cs),
(103,502,o),
(116,491,o),
(135,491,cs),
(187,491,o),
(249,512,o),
(292,562,c),
(292,32,ls),
(292,16,o),
(301,6,o),
(319,6,cs)
);
},
{
closed = 1;
nodes = (
(470,0,ls),
(486,0,o),
(496,9,o),
(496,25,cs),
(496,41,o),
(486,50,o),
(470,50,cs),
(155,50,ls),
(139,50,o),
(129,41,o),
(129,25,cs),
(129,9,o),
(139,0,o),
(155,0,cs)
);
},
{
pos = (-12,-142);
ref = _bones.short;
},
{
pos = (19,-232);
ref = _Bristles.small;
}
);
width = 600;
},
{
layerId = m002;
shapes = (
{
closed = 1;
nodes = (
(337,6,o),
(347,16,o),
(347,32,cs),
(347,674,ls),
(347,677,o),
(347,679,o),
(346,681,c),
(344,693,o),
(334,700,o),
(319,700,cs),
(301,700,o),
(292,691,o),
(291,673,cs),
(287,577,o),
(175,543,o),
(140,543,cs),
(115,543,o),
(103,530,o),
(103,517,cs),
(103,502,o),
(116,491,o),
(135,491,cs),
(187,491,o),
(249,512,o),
(292,562,c),
(292,32,ls),
(292,16,o),
(301,6,o),
(319,6,cs)
);
},
{
closed = 1;
nodes = (
(470,0,ls),
(486,0,o),
(496,9,o),
(496,25,cs),
(496,41,o),
(486,50,o),
(470,50,cs),
(155,50,ls),
(139,50,o),
(129,41,o),
(129,25,cs),
(129,9,o),
(139,0,o),
(155,0,cs)
);
},
{
pos = (-12,-142);
ref = _bones.short;
},
{
pos = (19,-232);
ref = _Bristles.small;
}
);
width = 600;
},
{
layerId = m003;
shapes = (
{
closed = 1;
nodes = (
(337,6,o),
(347,16,o),
(347,32,cs),
(347,674,ls),
(347,677,o),
(347,679,o),
(346,681,c),
(344,693,o),
(334,700,o),
(319,700,cs),
(301,700,o),
(292,691,o),
(291,673,cs),
(287,577,o),
(175,543,o),
(140,543,cs),
(115,543,o),
(103,530,o),
(103,517,cs),
(103,502,o),
(116,491,o),
(135,491,cs),
(187,491,o),
(249,512,o),
(292,562,c),
(292,32,ls),
(292,16,o),
(301,6,o),
(319,6,cs)
);
},
{
closed = 1;
nodes = (
(470,0,ls),
(486,0,o),
(496,9,o),
(496,25,cs),
(496,41,o),
(486,50,o),
(470,50,cs),
(155,50,ls),
(139,50,o),
(129,41,o),
(129,25,cs),
(129,9,o),
(139,0,o),
(155,0,cs)
);
},
{
pos = (-12,-142);
ref = _bones.short;
},
{
pos = (19,-232);
ref = _Bristles.small;
}
);
width = 600;
}
);
unicode = 49;
},
{
color = 5;
glyphname = two;
lastChange = "2024-01-02 23:03:13 +0000";
layers = (
{
layerId = m01;
shapes = (
{
closed = 1;
nodes = (
(506,0,ls),
(520,0,o),
(530,9,o),
(530,25,cs),
(530,41,o),
(521,50,o),
(506,50,cs),
(125,50,l),
(125,146,ls),
(125,307,o),
(507,237,o),
(507,505,cs),
(507,646,o),
(393,710,o),
(289,710,cs),
(194,710,o),
(103,657,o),
(84,582,cs),
(83,578,o),
(82,573,o),
(82,569,cs),
(82,554,o),
(89,548,o),
(99,546,cs),
(102,545,o),
(105,545,o),
(107,545,cs),
(125,546,o),
(133,557,o),
(141,574,cs),
(159,612,o),
(215,655,o),
(289,655,cs),
(363,655,o),
(454,612,o),
(454,506,cs),
(454,284,o),
(70,356,o),
(70,150,cs),
(70,27,l),
(70,12,o),
(77,0,o),
(94,0,cs)
);
},
{
closed = 1;
nodes = (
(521,0,o),
(530,10,o),
(530,26,cs),
(530,109,ls),
(530,125,o),
(521,135,o),
(505,135,cs),
(489,135,o),
(480,125,o),
(480,109,cs),
(480,26,ls),
(480,10,o),
(489,0,o),
(505,0,cs)
);
},
{
pos = (-103,-480);
ref = _Bristles.small;
},
{
pos = (87,250);
ref = _kebab.long;
}
);
width = 600;
},
{
layerId = m002;
shapes = (
{
closed = 1;
nodes = (
(506,0,ls),
(520,0,o),
(530,9,o),
(530,25,cs),
(530,41,o),
(521,50,o),
(506,50,cs),
(125,50,l),
(125,146,ls),
(125,307,o),
(507,237,o),
(507,505,cs),
(507,646,o),
(393,710,o),
(289,710,cs),
(194,710,o),
(103,657,o),
(84,582,cs),
(83,578,o),
(82,573,o),
(82,569,cs),
(82,554,o),
(89,548,o),
(99,546,cs),
(102,545,o),
(105,545,o),
(107,545,cs),
(125,546,o),
(133,557,o),
(141,574,cs),
(159,612,o),
(215,655,o),
(289,655,cs),
(363,655,o),
(454,612,o),
(454,506,cs),
(454,284,o),
(70,356,o),
(70,150,cs),
(70,27,l),
(70,12,o),
(77,0,o),
(94,0,cs)
);
},
{
closed = 1;
nodes = (
(521,0,o),
(530,10,o),
(530,26,cs),
(530,109,ls),
(530,125,o),
(521,135,o),
(505,135,cs),
(489,135,o),
(480,125,o),
(480,109,cs),
(480,26,ls),
(480,10,o),
(489,0,o),
(505,0,cs)
);
},
{
pos = (-103,-480);
ref = _Bristles.small;
},
{
pos = (87,250);
ref = _kebab.long;
}
);
width = 600;
},
{
layerId = m003;
shapes = (
{
closed = 1;
nodes = (
(506,0,ls),
(520,0,o),
(530,9,o),
(530,25,cs),
(530,41,o),
(521,50,o),
(506,50,cs),
(125,50,l),
(125,146,ls),
(125,307,o),
(507,237,o),
(507,505,cs),
(507,646,o),
(393,710,o),
(289,710,cs),
(194,710,o),
(103,657,o),
(84,582,cs),
(83,578,o),
(82,573,o),
(82,569,cs),
(82,554,o),
(89,548,o),
(99,546,cs),
(102,545,o),
(105,545,o),
(107,545,cs),
(125,546,o),
(133,557,o),
(141,574,cs),
(159,612,o),
(215,655,o),
(289,655,cs),
(363,655,o),
(454,612,o),
(454,506,cs),
(454,284,o),
(70,356,o),
(70,150,cs),
(70,27,l),
(70,12,o),
(77,0,o),
(94,0,cs)
);
},
{
closed = 1;
nodes = (
(521,0,o),
(530,10,o),
(530,26,cs),
(530,109,ls),
(530,125,o),
(521,135,o),
(505,135,cs),
(489,135,o),
(480,125,o),
(480,109,cs),
(480,26,ls),
(480,10,o),
(489,0,o),
(505,0,cs)
);
},
{
pos = (-103,-480);
ref = _Bristles.small;
},
{
pos = (87,250);
ref = _kebab.long;
}
);
width = 600;
}
);
unicode = 50;
},
{
color = 5;
glyphname = three;
lastChange = "2024-01-02 23:04:19 +0000";
layers = (
{
layerId = m01;
shapes = (
{
closed = 1;
nodes = (
(411,0,o),
(503,75,o),
(503,209,cs),
(503,418,o),
(300,442,o),
(226,442,cs),
(210,442,o),
(198,432,o),
(198,417,cs),
(198,403,o),
(210,392,o),
(227,392,cs),
(343,392,o),
(448,330,o),
(448,209,cs),
(448,113,o),
(383,50,o),
(285,50,cs),
(213,50,o),
(139,85,o),
(122,170,cs),
(119,187,o),
(108,197,o),
(93,197,cs),
(77,197,o),
(66,185,o),
(66,169,cs),
(69,73,o),
(179,0,o),
(285,0,cs)
);
},
{
closed = 1;
nodes = (
(117,565,o),
(126,575,o),
(126,591,cs),
(126,674,ls),
(126,690,o),
(117,700,o),
(101,700,cs),
(85,700,o),
(76,690,o),
(76,674,cs),
(76,591,ls),
(76,575,o),
(85,565,o),
(101,565,cs)
);
},
{
closed = 1;
nodes = (
(186,345,o),
(192,348,o),
(197,353,cs),
(495,652,ls),
(503,660,o),
(504,664,o),
(504,675,cs),
(504,691,o),
(494,700,o),
(478,700,cs),
(102,700,ls),
(86,700,o),
(76,691,o),
(76,675,cs),
(76,659,o),
(86,650,o),
(102,650,cs),
(415,650,l),
(158,392,ls),
(152,386,o),
(150,380,o),
(150,374,cs),
(150,367,o),
(153,361,o),
(159,354,cs),
(165,348,o),
(172,345,o),
(179,345,cs)
);
},
{
angle = -45;
pos = (-360,255);
ref = _Bristles.small;
},
{
pos = (50,-31);
ref = _kebab.long;
}
);
width = 600;
},
{
layerId = m002;
shapes = (
{
closed = 1;
nodes = (
(411,0,o),
(503,75,o),
(503,209,c),
(503,418,o),
(300,442,o),
(226,442,c),
(210,442,o),
(198,432,o),
(198,417,c),
(198,403,o),
(210,392,o),
(227,392,c),
(343,392,o),
(448,330,o),
(448,209,c),
(448,113,o),
(383,50,o),
(285,50,c),
(213,50,o),
(139,85,o),
(122,170,c),
(119,187,o),
(108,197,o),
(93,197,c),
(77,197,o),
(66,185,o),
(66,169,c),
(69,73,o),
(179,0,o),
(285,0,c)
);
},
{
closed = 1;
nodes = (
(117,565,o),
(126,575,o),
(126,591,c),
(126,674,l),
(126,690,o),
(117,700,o),
(101,700,c),
(85,700,o),
(76,690,o),
(76,674,c),
(76,591,l),
(76,575,o),
(85,565,o),
(101,565,c)
);
},
{
closed = 1;
nodes = (
(186,345,o),
(192,348,o),
(197,353,c),
(495,652,l),
(503,660,o),
(504,664,o),
(504,675,c),
(504,691,o),
(494,700,o),
(478,700,c),
(102,700,l),
(86,700,o),
(76,691,o),
(76,675,c),
(76,659,o),
(86,650,o),
(102,650,c),
(415,650,l),
(158,392,l),
(152,386,o),
(150,380,o),
(150,374,c),
(150,367,o),
(153,361,o),
(159,354,c),
(165,348,o),
(172,345,o),
(179,345,c)
);
},
{
angle = -45;
pos = (-360,255);
ref = _Bristles.small;
},
{
pos = (50,-31);
ref = _kebab.long;
}
);
width = 600;
},
{
layerId = m003;
shapes = (
{
closed = 1;
nodes = (
(411,0,o),
(503,75,o),
(503,209,cs),
(503,418,o),
(300,442,o),
(226,442,cs),
(210,442,o),
(198,432,o),
(198,417,cs),
(198,403,o),
(210,392,o),
(227,392,cs),
(343,392,o),
(448,330,o),
(448,209,cs),
(448,113,o),
(383,50,o),
(285,50,cs),
(213,50,o),
(139,85,o),
(122,170,cs),
(119,187,o),
(108,197,o),
(93,197,cs),
(77,197,o),
(66,185,o),
(66,169,cs),
(69,73,o),
(179,0,o),
(285,0,cs)
);
},
{
closed = 1;
nodes = (
(117,565,o),
(126,575,o),
(126,591,cs),
(126,674,ls),
(126,690,o),
(117,700,o),
(101,700,cs),
(85,700,o),
(76,690,o),
(76,674,cs),
(76,591,ls),
(76,575,o),
(85,565,o),
(101,565,cs)
);
},
{
closed = 1;
nodes = (
(186,345,o),
(192,348,o),
(197,353,cs),
(495,652,ls),
(503,660,o),
(504,664,o),
(504,675,cs),
(504,691,o),
(494,700,o),
(478,700,cs),
(102,700,ls),
(86,700,o),
(76,691,o),
(76,675,cs),
(76,659,o),
(86,650,o),
(102,650,cs),
(415,650,l),
(158,392,ls),
(152,386,o),
(150,380,o),
(150,374,cs),
(150,367,o),
(153,361,o),
(159,354,cs),
(165,348,o),
(172,345,o),
(179,345,cs)
);
},
{
angle = -45;
pos = (-360,255);
ref = _Bristles.small;
},
{
pos = (50,-31);
ref = _kebab.long;
}
);
width = 600;
}
);
unicode = 51;
},
{
color = 5;
glyphname = four;
lastChange = "2024-01-05 22:51:44 +0000";
layers = (
{
layerId = m01;
shapes = (
{
closed = 1;
nodes = (
(439,6,o),
(449,16,o),
(449,32,c),
(449,644,l),
(449,661,o),
(438,670,o),
(421,670,c),
(408,670,o),
(400,664,o),
(393,656,cs),
(56,237,l),
(52,232,o),
(50,227,o),
(50,222,c),
(50,215,o),
(54,208,o),
(63,202,c),
(69,197,o),
(75,195,o),
(81,195,c),
(89,195,o),
(97,199,o),
(102,206,c),
(393,562,l),
(393,32,l),
(393,16,o),
(403,6,o),
(421,6,c)
);
},
{
closed = 1;
nodes = (
(492,0,l),
(508,0,o),
(518,9,o),
(518,25,c),
(518,41,o),
(508,50,o),
(492,50,c),
(341,50,l),
(325,50,o),
(315,41,o),
(315,25,c),
(315,9,o),
(325,0,o),
(341,0,c)
);
},
{
closed = 1;
nodes = (
(522,194,l),
(538,194,o),
(548,203,o),
(548,219,c),
(548,235,o),
(538,244,o),
(522,244,c),
(76,244,l),
(60,244,o),
(50,235,o),
(50,219,c),
(50,203,o),
(60,194,o),
(76,194,c)
);
},
{
pos = (206,-284);
ref = _Bristles.small;
},
{
angle = -90;
pos = (-57,550);
ref = _bones.short;
}
);
width = 600;
},
{
layerId = m002;
shapes = (
{
closed = 1;
nodes = (
(439,6,o),
(449,16,o),
(449,32,c),
(449,644,l),
(449,661,o),
(438,670,o),
(421,670,c),
(408,670,o),
(400,664,o),
(393,656,cs),
(56,237,l),
(52,232,o),
(50,227,o),
(50,222,c),
(50,215,o),
(54,208,o),
(63,202,c),
(69,197,o),
(75,195,o),
(81,195,c),
(89,195,o),
(97,199,o),
(102,206,c),
(393,562,l),
(393,32,l),
(393,16,o),
(403,6,o),
(421,6,c)
);
},
{
closed = 1;
nodes = (
(492,0,l),
(508,0,o),
(518,9,o),
(518,25,c),
(518,41,o),
(508,50,o),
(492,50,c),
(341,50,l),
(325,50,o),
(315,41,o),
(315,25,c),
(315,9,o),
(325,0,o),
(341,0,c)
);
},
{
closed = 1;
nodes = (
(522,194,l),
(538,194,o),
(548,203,o),
(548,219,c),
(548,235,o),
(538,244,o),
(522,244,c),
(76,244,l),
(60,244,o),
(50,235,o),
(50,219,c),
(50,203,o),
(60,194,o),
(76,194,c)
);
},
{
pos = (206,-284);
ref = _Bristles.small;
},
{
angle = -90;
pos = (-57,550);
ref = _bones.short;
}
);
width = 600;
},
{
layerId = m003;
shapes = (
{
closed = 1;
nodes = (
(439,6,o),
(449,16,o),
(449,32,c),
(449,644,l),
(449,661,o),
(438,670,o),
(421,670,c),
(408,670,o),
(400,664,o),
(393,656,cs),
(56,237,l),
(52,232,o),
(50,227,o),
(50,222,c),
(50,215,o),
(54,208,o),
(63,202,c),
(69,197,o),
(75,195,o),
(81,195,c),
(89,195,o),
(97,199,o),
(102,206,c),
(393,562,l),
(393,32,l),
(393,16,o),
(403,6,o),
(421,6,c)
);
},
{
closed = 1;
nodes = (
(492,0,l),
(508,0,o),
(518,9,o),
(518,25,c),
(518,41,o),
(508,50,o),
(492,50,c),
(341,50,l),
(325,50,o),
(315,41,o),
(315,25,c),
(315,9,o),
(325,0,o),
(341,0,c)
);
},
{
closed = 1;
nodes = (
(522,194,l),
(538,194,o),
(548,203,o),
(548,219,c),
(548,235,o),
(538,244,o),
(522,244,c),
(76,244,l),
(60,244,o),
(50,235,o),
(50,219,c),
(50,203,o),
(60,194,o),
(76,194,c)
);
},
{
pos = (206,-284);
ref = _Bristles.small;
},
{
angle = -90;
pos = (-57,550);
ref = _bones.short;
}
);
width = 600;
}
);
unicode = 52;
},
{
color = 5;
glyphname = five;
lastChange = "2024-01-02 23:10:56 +0000";
layers = (
{
layerId = m01;
shapes = (
{
closed = 1;
nodes = (
(435,0,o),
(527,85,o),
(527,229,cs),
(527,362,o),
(427,444,o),
(316,444,cs),
(266,444,o),
(231,435,o),
(195,419,c),
(195,644,ls),
(195,660,o),
(186,670,o),
(168,670,cs),
(149,670,o),
(140,661,o),
(140,644,cs),
(140,376,ls),
(140,359,o),
(150,350,o),
(164,350,cs),
(169,350,o),
(173,351,o),
(194,361,cs),
(210,369,o),
(263,394,o),
(314,394,cs),
(411,394,o),
(472,310,o),
(472,229,cs),
(472,123,o),
(407,50,o),
(309,50,cs),
(237,50,o),
(163,85,o),
(146,170,cs),
(143,187,o),
(132,197,o),
(117,197,cs),
(100,197,o),
(90,185,o),
(90,168,cs),
(90,63,o),
(204,0,o),
(309,0,cs)
);
},
{
closed = 1;
nodes = (
(481,620,ls),
(497,620,o),
(507,629,o),
(507,645,cs),
(507,661,o),
(497,670,o),
(481,670,cs),
(126,670,ls),
(110,670,o),
(100,661,o),
(100,645,cs),
(100,629,o),
(110,620,o),
(126,620,cs)
);
},
{
closed = 1;
nodes = (
(498,535,o),
(507,545,o),
(507,561,cs),
(507,644,ls),
(507,660,o),
(498,670,o),
(482,670,cs),
(466,670,o),
(457,660,o),
(457,644,cs),
(457,561,ls),
(457,545,o),
(466,535,o),
(482,535,cs)
);
},
{
pos = (-45,-83);
ref = _Bristles.small;
},
{
pos = (71,-27);
ref = _kebab.long;
}
);
width = 600;
},
{
layerId = m002;
shapes = (
{
closed = 1;
nodes = (
(435,0,o),
(527,85,o),
(527,229,cs),
(527,362,o),
(427,444,o),
(316,444,cs),
(266,444,o),
(231,435,o),
(195,419,c),
(195,644,ls),
(195,660,o),
(186,670,o),
(168,670,cs),
(149,670,o),
(140,661,o),
(140,644,cs),
(140,376,ls),
(140,359,o),
(150,350,o),
(164,350,cs),
(169,350,o),
(173,351,o),
(194,361,cs),
(210,369,o),
(263,394,o),
(314,394,cs),
(411,394,o),
(472,310,o),
(472,229,cs),
(472,123,o),
(407,50,o),
(309,50,cs),
(237,50,o),
(163,85,o),
(146,170,cs),
(143,187,o),
(132,197,o),
(117,197,cs),
(100,197,o),
(90,185,o),
(90,168,cs),
(90,63,o),
(204,0,o),
(309,0,cs)
);
},
{
closed = 1;
nodes = (
(481,620,ls),
(497,620,o),
(507,629,o),
(507,645,cs),
(507,661,o),
(497,670,o),
(481,670,cs),
(126,670,ls),
(110,670,o),
(100,661,o),
(100,645,cs),
(100,629,o),
(110,620,o),
(126,620,cs)
);
},
{
closed = 1;
nodes = (
(498,535,o),
(507,545,o),
(507,561,cs),
(507,644,ls),
(507,660,o),
(498,670,o),
(482,670,cs),
(466,670,o),
(457,660,o),
(457,644,cs),
(457,561,ls),
(457,545,o),
(466,535,o),
(482,535,cs)
);
},
{
pos = (-44,-89);
ref = _Bristles.small;
},
{
pos = (71,-27);
ref = _kebab.long;
}
);
width = 600;
},
{
layerId = m003;
shapes = (
{
closed = 1;
nodes = (
(435,0,o),
(527,85,o),
(527,229,cs),
(527,362,o),
(427,444,o),
(316,444,cs),
(266,444,o),
(231,435,o),
(195,419,c),
(195,644,ls),
(195,660,o),
(186,670,o),
(168,670,cs),
(149,670,o),
(140,661,o),
(140,644,cs),
(140,376,ls),
(140,359,o),
(150,350,o),
(164,350,cs),
(169,350,o),
(173,351,o),
(194,361,cs),
(210,369,o),
(263,394,o),
(314,394,cs),
(411,394,o),
(472,310,o),
(472,229,cs),
(472,123,o),
(407,50,o),
(309,50,cs),
(237,50,o),
(163,85,o),
(146,170,cs),
(143,187,o),
(132,197,o),
(117,197,cs),
(100,197,o),
(90,185,o),
(90,168,cs),
(90,63,o),
(204,0,o),
(309,0,cs)
);
},
{
closed = 1;
nodes = (
(481,620,ls),
(497,620,o),
(507,629,o),
(507,645,cs),
(507,661,o),
(497,670,o),
(481,670,cs),
(126,670,ls),
(110,670,o),
(100,661,o),
(100,645,cs),
(100,629,o),
(110,620,o),
(126,620,cs)
);
},
{
closed = 1;
nodes = (
(498,535,o),
(507,545,o),
(507,561,cs),
(507,644,ls),
(507,660,o),
(498,670,o),
(482,670,cs),
(466,670,o),
(457,660,o),
(457,644,cs),
(457,561,ls),
(457,545,o),
(466,535,o),
(482,535,cs)
);
},
{
pos = (-44,-89);
ref = _Bristles.small;
},
{
pos = (71,-27);
ref = _kebab.long;
}
);
width = 600;
}
);
unicode = 53;
},
{
color = 5;
glyphname = six;
lastChange = "2024-01-02 23:13:57 +0000";
layers = (
{
layerId = m01;
shapes = (
{
closed = 1;
nodes = (
(154,670,o),
(48,550,o),
(48,318,cs),
(48,154,o),
(88,-7,o),
(308,-7,cs),
(428,-7,o),
(543,71,o),
(543,222,cs),
(543,377,o),
(424,455,o),
(311,455,cs),
(242,455,o),
(161,429,o),
(108,352,c),
(117,533,o),
(188,615,o),
(299,615,cs),
(384,615,o),
(429,572,o),
(447,534,cs),
(455,517,o),
(463,506,o),
(481,505,cs),
(483,505,o),
(486,505,o),
(489,506,cs),
(499,508,o),
(506,514,o),
(506,529,cs),
(506,533,o),
(505,538,o),
(504,542,cs),
(485,617,o),
(405,670,o),
(299,670,cs)
);
},
{
closed = 1;
nodes = (
(396,402,o),
(488,337,o),
(488,221,cs),
(488,105,o),
(396,40,o),
(311,40,cs),
(152,40,o),
(108,161,o),
(108,231,cs),
(108,347,o),
(226,402,o),
(311,402,cs)
);
},
{
pos = (-19,-31);
ref = _kebab.long;
},
{
pos = (212,-402);
ref = _Bristles.small;
}
);
width = 600;
},
{
layerId = m002;
shapes = (
{
closed = 1;
nodes = (
(154,670,o),
(48,550,o),
(48,318,cs),
(48,154,o),
(88,-7,o),
(308,-7,cs),
(428,-7,o),
(543,71,o),
(543,222,cs),
(543,377,o),
(424,455,o),
(311,455,cs),
(242,455,o),
(161,429,o),
(108,352,c),
(117,533,o),
(188,615,o),
(299,615,cs),
(384,615,o),
(429,572,o),
(447,534,cs),
(455,517,o),
(463,506,o),
(481,505,cs),
(483,505,o),
(486,505,o),
(489,506,cs),
(499,508,o),
(506,514,o),
(506,529,cs),
(506,533,o),
(505,538,o),
(504,542,cs),
(485,617,o),
(405,670,o),
(299,670,cs)
);
},
{
closed = 1;
nodes = (
(396,402,o),
(488,337,o),
(488,221,cs),
(488,105,o),
(396,40,o),
(311,40,cs),
(152,40,o),
(108,161,o),
(108,231,cs),
(108,347,o),
(226,402,o),
(311,402,cs)
);
},
{
pos = (-19,-31);
ref = _kebab.long;
},
{
pos = (210,-402);
ref = _Bristles.small;
}
);
width = 600;
},
{
layerId = m003;
shapes = (
{
closed = 1;
nodes = (
(154,670,o),
(48,550,o),
(48,318,cs),
(48,154,o),
(88,-7,o),
(308,-7,cs),
(428,-7,o),
(543,71,o),
(543,222,cs),
(543,377,o),
(424,455,o),
(311,455,cs),
(242,455,o),
(161,429,o),
(108,352,c),
(117,533,o),
(188,615,o),
(299,615,cs),
(384,615,o),
(429,572,o),
(447,534,cs),
(455,517,o),
(463,506,o),
(481,505,cs),
(483,505,o),
(486,505,o),
(489,506,cs),
(499,508,o),
(506,514,o),
(506,529,cs),
(506,533,o),
(505,538,o),
(504,542,cs),
(485,617,o),
(405,670,o),
(299,670,cs)
);
},
{
closed = 1;
nodes = (
(396,402,o),
(488,337,o),
(488,221,cs),
(488,105,o),
(396,40,o),
(311,40,cs),
(152,40,o),
(108,161,o),
(108,231,cs),
(108,347,o),
(226,402,o),
(311,402,cs)
);
},
{
pos = (-19,-31);
ref = _kebab.long;
},
{
pos = (225,-402);
ref = _Bristles.small;
}
);
width = 600;
}
);
unicode = 54;
},
{
color = 5;
glyphname = seven;
lastChange = "2024-01-05 22:50:23 +0000";
layers = (
{
layerId = m01;
shapes = (
{
closed = 1;
nodes = (
(311,5,l),
(311,107,ls),
(311,459,o),
(547,407,o),
(547,645,cs),
(547,661,o),
(537,670,o),
(521,670,cs),
(95,670,ls),
(79,670,o),
(69,661,o),
(69,645,cs),
(69,629,o),
(79,620,o),
(95,620,cs),
(492,620,l),
(472,454,o),
(256,442,o),
(256,107,cs),
(256,5,l)
);
},
{
closed = 1;
nodes = (
(359,0,ls),
(375,0,o),
(385,9,o),
(385,25,cs),
(385,41,o),
(375,50,o),
(359,50,cs),
(208,50,ls),
(192,50,o),
(182,41,o),
(182,25,cs),
(182,9,o),
(192,0,o),
(208,0,cs)
);
},
{
angle = 90;
pos = (808,352);
ref = _Bristles.small;
},
{
pos = (13,-38);
ref = _bones.long;
}
);
width = 600;
},
{
layerId = m002;
shapes = (
{
closed = 1;
nodes = (
(311,5,l),
(311,107,ls),
(311,459,o),
(547,407,o),
(547,645,cs),
(547,661,o),
(537,670,o),
(521,670,cs),
(95,670,ls),
(79,670,o),
(69,661,o),
(69,645,cs),
(69,629,o),
(79,620,o),
(95,620,cs),
(492,620,l),
(472,454,o),
(256,442,o),
(256,107,cs),
(256,5,l)
);
},
{
closed = 1;
nodes = (
(359,0,ls),
(375,0,o),
(385,9,o),
(385,25,cs),
(385,41,o),
(375,50,o),
(359,50,cs),
(208,50,ls),
(192,50,o),
(182,41,o),
(182,25,cs),
(182,9,o),
(192,0,o),
(208,0,cs)
);
},
{
angle = 90;
pos = (808,352);
ref = _Bristles.small;
},
{
pos = (13,-38);
ref = _bones.long;
}
);
width = 600;
},
{
layerId = m003;
shapes = (
{
closed = 1;
nodes = (
(311,5,l),
(311,107,ls),
(311,459,o),
(547,407,o),
(547,645,cs),
(547,661,o),
(537,670,o),
(521,670,cs),
(95,670,ls),
(79,670,o),
(69,661,o),
(69,645,cs),
(69,629,o),
(79,620,o),
(95,620,cs),
(492,620,l),
(472,454,o),
(256,442,o),
(256,107,cs),
(256,5,l)
);
},
{
closed = 1;
nodes = (
(359,0,ls),
(375,0,o),
(385,9,o),
(385,25,cs),
(385,41,o),
(375,50,o),
(359,50,cs),
(208,50,ls),
(192,50,o),
(182,41,o),
(182,25,cs),
(182,9,o),
(192,0,o),
(208,0,cs)
);
},
{
pos = (13,-38);
ref = _bones.long;
},
{
angle = 90;
pos = (808,352);
ref = _Bristles.small;
}
);
width = 600;
}
);
unicode = 55;
},
{
color = 5;
glyphname = eight;
lastChange = "2024-01-02 23:17:01 +0000";
layers = (
{
layerId = m01;
shapes = (
{
closed = 1;
nodes = (
(450,-10,o),
(531,61,o),
(531,180,cs),
(531,282,o),
(472,333,o),
(391,351,c),
(461,385,o),
(507,413,o),
(507,505,cs),
(507,605,o),
(420,670,o),
(300,670,cs),
(180,670,o),
(93,605,o),
(93,505,cs),
(93,413,o),
(135,386,o),
(209,351,c),
(128,333,o),
(69,282,o),
(69,180,cs),
(69,48,o),
(168,-10,o),
(300,-10,cs)
);
},
{
closed = 1;
nodes = (
(192,40,o),
(124,98,o),
(124,180,cs),
(124,270,o),
(203,314,o),
(290,331,c),
(397,314,o),
(476,270,o),
(476,180,cs),
(476,92,o),
(393,40,o),
(300,40,cs)
);
},
{
closed = 1;
nodes = (
(237,393,o),
(148,420,o),
(148,506,cs),
(148,580,o),
(220,620,o),
(300,620,cs),
(393,620,o),
(452,580,o),
(452,506,cs),
(452,420,o),
(378,392,o),
(319,371,c)
);
},
{
pos = (-80,25);
ref = _kebab.short;
},
{
pos = (58,335);
ref = _kebab.short;
}
);
width = 600;
},
{
layerId = m002;
shapes = (
{
closed = 1;
nodes = (
(450,-10,o),
(531,61,o),
(531,180,cs),
(531,282,o),
(472,333,o),
(391,351,c),
(461,385,o),
(507,413,o),
(507,505,cs),
(507,605,o),
(420,670,o),
(300,670,cs),
(180,670,o),
(93,605,o),
(93,505,cs),
(93,413,o),
(135,386,o),
(209,351,c),
(128,333,o),
(69,282,o),
(69,180,cs),
(69,48,o),
(168,-10,o),
(300,-10,cs)
);
},
{
closed = 1;
nodes = (
(192,40,o),
(124,98,o),
(124,180,cs),
(124,270,o),
(203,314,o),
(290,331,c),
(397,314,o),
(476,270,o),
(476,180,cs),
(476,92,o),
(393,40,o),
(300,40,cs)
);
},
{
closed = 1;
nodes = (
(237,393,o),
(148,420,o),
(148,506,cs),
(148,580,o),
(220,620,o),
(300,620,cs),
(393,620,o),
(452,580,o),
(452,506,cs),
(452,420,o),
(378,392,o),
(319,371,c)
);
},
{
pos = (-80,25);
ref = _kebab.short;
},
{
pos = (58,335);
ref = _kebab.short;
}
);
width = 600;
},
{
layerId = m003;
shapes = (
{
closed = 1;
nodes = (
(450,-10,o),
(531,61,o),
(531,180,cs),
(531,282,o),
(472,333,o),
(391,351,c),
(461,385,o),
(507,413,o),
(507,505,cs),
(507,605,o),
(420,670,o),
(300,670,cs),
(180,670,o),
(93,605,o),
(93,505,cs),
(93,413,o),
(135,386,o),
(209,351,c),
(128,333,o),
(69,282,o),
(69,180,cs),
(69,48,o),
(168,-10,o),
(300,-10,cs)
);
},
{
closed = 1;
nodes = (
(192,40,o),
(124,98,o),
(124,180,cs),
(124,270,o),
(203,314,o),
(290,331,c),
(397,314,o),
(476,270,o),
(476,180,cs),
(476,92,o),
(393,40,o),
(300,40,cs)
);
},
{
closed = 1;
nodes = (
(237,393,o),
(148,420,o),
(148,506,cs),
(148,580,o),
(220,620,o),
(300,620,cs),
(393,620,o),
(452,580,o),
(452,506,cs),
(452,420,o),
(378,392,o),
(319,371,c)
);
},
{
pos = (-80,25);
ref = _kebab.short;
},
{
pos = (58,335);
ref = _kebab.short;
}
);
width = 600;
}
);
unicode = 56;
},
